<svg width="55" height="59" viewBox="0 0 55 59" fill="none" xmlns="http://www.w3.org/2000/svg">
<path fill-rule="evenodd" clip-rule="evenodd" d="M51.3602 28.4983C50.8078 28.5915 50.4349 29.1152 50.5281 29.6686C50.7483 30.9699 50.8594 32.2791 50.8594 33.5625C50.8594 40.7211 47.6687 47.1827 42.5278 51.4851C41.63 45.6555 37.4911 40.98 31.9951 39.3068C34.1802 37.8492 35.625 35.3656 35.625 32.5469C35.625 28.0658 31.9801 24.4219 27.5 24.4219C23.0199 24.4219 19.375 28.0658 19.375 32.5469C19.375 35.3656 20.8198 37.8492 23.0049 39.3068C17.5089 40.98 13.37 45.6555 12.4722 51.4851C7.33132 47.1827 4.14062 40.7211 4.14062 33.5625C4.14062 32.2791 4.25171 30.9699 4.47189 29.6686C4.56512 29.1152 4.1922 28.5915 3.63976 28.4983C3.07442 28.403 2.56264 28.778 2.46841 29.3314C2.23038 30.7418 2.10938 32.166 2.10938 33.5625C2.10938 46.0356 11.0179 56.5628 23.2917 58.5941C23.3472 58.604 23.4038 58.608 23.4583 58.608C23.9463 58.608 24.3768 58.2549 24.4591 57.759C24.5513 57.2055 24.1764 56.6819 23.623 56.5906C20.2006 56.0242 17.0696 54.7302 14.3582 52.8947C14.8482 46.0023 20.5127 40.6719 27.5 40.6719C34.4873 40.6719 40.1518 46.0023 40.6418 52.8947C37.9304 54.7302 34.7994 56.0242 31.377 56.5906C30.8236 56.6819 30.4487 57.2055 30.5409 57.759C30.6232 58.2549 31.0537 58.608 31.5417 58.608C31.5962 58.608 31.6528 58.604 31.7083 58.5941C43.9821 56.5628 52.8906 46.0356 52.8906 33.5625C52.8906 32.166 52.7696 30.7418 52.5316 29.3314C52.4374 28.778 51.9196 28.4011 51.3602 28.4983ZM21.4062 32.5469C21.4062 29.1866 24.1397 26.4531 27.5 26.4531C30.8603 26.4531 33.5938 29.1866 33.5938 32.5469C33.5938 35.9072 30.8603 38.6406 27.5 38.6406C24.1397 38.6406 21.4062 35.9072 21.4062 32.5469Z" fill="#6BC1FF"/>
<path fill-rule="evenodd" clip-rule="evenodd" d="M38.6222 8.12823C38.5022 7.75928 38.1848 7.49149 37.802 7.43594L31.3125 6.49371L28.4104 0.612213C28.0693 -0.0780945 26.9307 -0.0780945 26.5895 0.612213L23.6874 6.49371L17.1979 7.43594C16.8151 7.49149 16.4977 7.75928 16.3777 8.12823C16.2587 8.49521 16.3578 8.89987 16.6346 9.16965L21.3308 13.7459L20.222 20.2086C20.1565 20.5915 20.3132 20.9763 20.6256 21.2024C20.9401 21.4305 21.3536 21.4643 21.6958 21.2798L27.5 18.227L33.3041 21.2798C33.4529 21.3591 33.6155 21.3968 33.7772 21.3968C33.9875 21.3968 34.1967 21.3314 34.3743 21.2024C34.6867 20.9763 34.8434 20.5915 34.7779 20.2086L33.6691 13.7459L38.3654 9.16965C38.6421 8.89987 38.7413 8.49521 38.6222 8.12823ZM31.8689 12.6628C31.6299 12.8969 31.5208 13.2321 31.5773 13.5634L32.4283 18.5245L27.9731 16.1818C27.8243 16.1045 27.6626 16.0648 27.5 16.0648C27.3373 16.0648 27.1756 16.1045 27.0269 16.1818L22.5716 18.5245L23.4226 13.5634C23.4791 13.2321 23.37 12.8969 23.131 12.6628L19.5267 9.15179L24.5076 8.42776C24.8389 8.37817 25.1245 8.17188 25.2723 7.87234L27.5 3.35757L29.7276 7.87234C29.8754 8.17188 30.161 8.37817 30.4923 8.42776L35.4732 9.15179L31.8689 12.6628Z" fill="#6BC1FF"/>
<path fill-rule="evenodd" clip-rule="evenodd" d="M3.19637 24.4695C3.13091 24.8523 3.28762 25.2372 3.60004 25.4633C3.91544 25.6914 4.33002 25.7231 4.67021 25.5406L9.21871 23.1484L13.7672 25.5406C13.916 25.62 14.0786 25.6577 14.2403 25.6577C14.4506 25.6577 14.6598 25.5922 14.8374 25.4633C15.1498 25.2372 15.3065 24.8523 15.241 24.4695L14.3722 19.4052L18.0529 15.8188C18.3296 15.549 18.4288 15.1444 18.3097 14.7774C18.1897 14.4084 17.8723 14.1407 17.4895 14.0851L12.4034 13.3472L10.1292 8.73721C9.78801 8.04691 8.6494 8.04691 8.30821 8.73721L6.03397 13.3472L0.947909 14.0851C0.565066 14.1407 0.247683 14.4084 0.127672 14.7774C0.00865382 15.1444 0.107836 15.549 0.384554 15.8188L4.0652 19.4052L3.19637 24.4695ZM3.27671 15.801L6.8542 15.2812C7.18547 15.2317 7.47112 15.0254 7.6189 14.7258L9.21871 11.4826L10.8185 14.7258C10.9663 15.0254 11.2519 15.2317 11.5832 15.2812L15.1607 15.801L12.5721 18.3222C12.333 18.5562 12.2239 18.8915 12.2805 19.2227L12.8914 22.7854L9.6918 21.1032C9.54303 21.0259 9.38136 20.9862 9.21871 20.9862C9.05605 20.9862 8.89438 21.0259 8.74561 21.1032L5.54599 22.7854L6.15695 19.2227C6.21349 18.8915 6.10439 18.5562 5.86536 18.3222L3.27671 15.801Z" fill="#6BC1FF"/>
<path fill-rule="evenodd" clip-rule="evenodd" d="M54.052 14.0851L48.9659 13.3472L46.6917 8.73721C46.3505 8.04691 45.2119 8.04691 44.8707 8.73721L42.5965 13.3472L37.5104 14.0851C37.1276 14.1407 36.8102 14.4084 36.6902 14.7774C36.5712 15.1444 36.6703 15.549 36.9471 15.8188L40.6277 19.4052L39.7589 24.4695C39.6934 24.8523 39.8501 25.2372 40.1625 25.4633C40.4769 25.6914 40.8905 25.7231 41.2327 25.5406L45.7812 23.1484L50.3297 25.5406C50.4785 25.62 50.6411 25.6577 50.8028 25.6577C51.0131 25.6577 51.2223 25.5922 51.3999 25.4633C51.7123 25.2372 51.869 24.8523 51.8035 24.4695L50.9347 19.4052L54.6154 15.8188C54.8921 15.549 54.9913 15.1444 54.8722 14.7774C54.7522 14.4084 54.4348 14.1407 54.052 14.0851ZM49.1346 18.3222C48.8955 18.5562 48.7864 18.8915 48.843 19.2227L49.4539 22.7854L46.2543 21.1032C46.1055 21.0259 45.9439 20.9862 45.7812 20.9862C45.6185 20.9862 45.4569 21.0259 45.3081 21.1032L42.1085 22.7854L42.7195 19.2227C42.776 18.8915 42.6669 18.5562 42.4279 18.3222L39.8392 15.801L43.4167 15.2812C43.748 15.2317 44.0336 15.0254 44.1814 14.7258L45.7812 11.4826L47.381 14.7258C47.5288 15.0254 47.8144 15.2317 48.1457 15.2812L51.7232 15.801L49.1346 18.3222Z" fill="#6BC1FF"/>
</svg>
