<svg width="62" height="62" viewBox="0 0 62 62" fill="none" xmlns="http://www.w3.org/2000/svg">
<path d="M1.82349 48.2324C1.82349 50.2382 3.46466 51.8794 5.47055 51.8794H28.1735C28.7205 51.8794 29.0853 51.5147 29.0853 50.9677C29.0853 50.4206 28.7205 50.0559 28.1735 50.0559H5.47055C4.4676 50.0559 3.64702 49.2353 3.64702 48.2324V15.0441H52.8823V35.5588C51.7882 34.7382 50.6029 34.1 49.2352 33.7353L48.8705 30.6353C48.7794 30.1794 48.4147 29.8147 47.9588 29.8147H43.6735C43.2176 29.8147 42.8529 30.1794 42.7617 30.6353L42.397 33.7353C40.6647 34.2824 39.1147 35.1941 37.747 36.3794L34.9205 35.1941C34.4647 35.0118 34.0088 35.1941 33.7353 35.5588L31.547 39.2971C31.2735 39.6618 31.4558 40.2088 31.8205 40.4824L34.2823 42.3059C33.9176 44.0382 33.9176 45.9529 34.2823 47.6853L31.8205 49.5088C31.4558 49.7824 31.3647 50.3294 31.547 50.6941L33.7353 54.4324C34.0088 54.7971 34.4647 54.9794 34.9205 54.7971L37.747 53.5206C39.0235 54.7971 40.6647 55.7088 42.397 56.1647L42.7617 59.2647C42.8529 59.7206 43.2176 60.0853 43.6735 60.0853H47.9588C48.4147 60.0853 48.7794 59.7206 48.8705 59.2647L49.2352 56.1647C50.9676 55.6176 52.5176 54.7059 53.8853 53.5206L56.7117 54.7971C57.1676 54.9794 57.6235 54.7971 57.897 54.4324L60.0853 50.6941C60.3588 50.3294 60.1764 49.7824 59.8117 49.5088L57.35 47.6853C57.7147 45.9529 57.7147 44.0382 57.35 42.3059L59.8117 40.4824C60.1764 40.2088 60.2676 39.6618 60.0853 39.2971L57.897 35.5588C57.6235 35.1941 57.1676 35.0118 56.7117 35.1941L54.7058 36.1059C54.7058 32.9147 54.7058 47.4118 54.7058 5.47059C54.7058 3.46471 53.0647 1.82353 51.0588 1.82353H5.47055C3.46466 1.82353 1.82349 3.46471 1.82349 5.47059V48.2324ZM58.0794 39.4794L55.7088 41.2118C55.4352 41.4853 55.2529 41.85 55.3441 42.2147C55.8911 43.9471 55.8911 46.0441 55.3441 47.7765C55.2529 48.1412 55.3441 48.5059 55.7088 48.7794L58.0794 50.5118L56.7117 52.8824L54.0676 51.6971C53.7029 51.5147 53.3382 51.6059 53.0647 51.8794C51.7882 53.2471 50.0558 54.25 48.2323 54.7059C47.8676 54.7971 47.5941 55.0706 47.5029 55.5265L47.1382 58.3529H44.4941L44.1294 55.4353C44.1294 55.0706 43.7647 54.7059 43.4 54.6147C41.5764 54.1588 39.9352 53.2471 38.5676 51.7882C38.2941 51.5147 37.9294 51.4235 37.5647 51.6059L34.9205 52.7912L33.5529 50.5118L35.9235 48.7794C36.197 48.5059 36.3794 48.1412 36.2882 47.7765C35.7411 46.0441 35.7411 43.9471 36.2882 42.2147C36.3794 41.85 36.2882 41.4853 35.9235 41.2118L33.5529 39.4794L34.9205 37.2L37.5647 38.3853C37.9294 38.5676 38.2941 38.4765 38.5676 38.2029C39.8441 36.8353 41.5764 35.8324 43.4 35.4677C43.7647 35.3765 44.0382 35.1029 44.1294 34.6471L44.4941 31.7294H47.1382L47.5029 34.6471C47.5029 35.0118 47.8676 35.3765 48.2323 35.4677C50.0558 35.9235 51.697 36.8353 53.0647 38.2029C53.4294 38.5676 54.0676 38.5676 54.4323 38.2941L56.8029 37.2912L58.0794 39.4794ZM3.64702 5.47059C3.64702 4.46765 4.4676 3.64706 5.47055 3.64706H51.0588C52.0617 3.64706 52.8823 4.46765 52.8823 5.47059V13.2206H3.64702V5.47059Z" fill="#6BC1FF"/>
<path d="M10.0295 5.65294C8.47948 5.65294 7.29419 6.83823 7.29419 8.38823C7.29419 9.93823 8.47948 11.1235 10.0295 11.1235C11.5795 11.1235 12.7648 9.93823 12.7648 8.38823C12.7648 6.83823 11.4883 5.65294 10.0295 5.65294ZM10.0295 9.3C9.48242 9.3 9.11772 8.93529 9.11772 8.38823C9.11772 7.84117 9.48242 7.47647 10.0295 7.47647C10.5765 7.47647 10.9412 7.84117 10.9412 8.38823C10.9412 8.93529 10.4854 9.3 10.0295 9.3Z" fill="#6BC1FF"/>
<path d="M17.6882 5.65294C16.1382 5.65294 14.9529 6.83823 14.9529 8.38823C14.9529 9.93823 16.1382 11.1235 17.6882 11.1235C19.2382 11.1235 20.4235 9.93823 20.4235 8.38823C20.4235 6.83823 19.2382 5.65294 17.6882 5.65294ZM17.6882 9.3C17.1411 9.3 16.7764 8.93529 16.7764 8.38823C16.7764 7.84117 17.1411 7.47647 17.6882 7.47647C18.2352 7.47647 18.5999 7.84117 18.5999 8.38823C18.5999 8.93529 18.2352 9.3 17.6882 9.3Z" fill="#6BC1FF"/>
<path d="M25.4382 5.65294C23.8882 5.65294 22.7029 6.83823 22.7029 8.38823C22.7029 9.93823 23.8882 11.1235 25.4382 11.1235C26.9882 11.1235 28.1735 9.93823 28.1735 8.38823C28.1735 6.83823 26.897 5.65294 25.4382 5.65294ZM25.4382 9.3C24.8911 9.3 24.5264 8.93529 24.5264 8.38823C24.5264 7.84117 24.8911 7.47647 25.4382 7.47647C25.9852 7.47647 26.3499 7.84117 26.3499 8.38823C26.3499 8.93529 25.8941 9.3 25.4382 9.3Z" fill="#6BC1FF"/>
<path d="M47.1383 7.47647H36.4706C35.9235 7.47647 35.5588 7.84118 35.5588 8.38824C35.5588 8.93529 35.9235 9.3 36.4706 9.3H47.1383C47.6853 9.3 48.05 8.93529 48.05 8.38824C48.05 7.84118 47.6853 7.47647 47.1383 7.47647Z" fill="#6BC1FF"/>
<path d="M8.84399 28.1735C7.02046 28.1735 5.47046 29.7235 5.47046 31.5471C5.47046 33.3706 7.02046 34.9206 8.84399 34.9206C10.6675 34.9206 12.2175 33.3706 12.2175 31.5471C12.2175 30.9088 12.0352 30.2706 11.6705 29.7235L14.4058 26.6235C14.9528 26.9882 15.591 27.1706 16.2293 27.1706C17.3234 27.1706 18.2352 26.6235 18.8734 25.8941L22.8852 28.3559C22.794 28.5382 22.794 28.8118 22.794 29.0853C22.794 30.9088 24.344 32.4588 26.1675 32.4588C27.991 32.4588 29.541 30.9088 29.541 29.0853C29.541 28.5382 29.3587 27.9912 29.0852 27.5353L32.094 24.0706C32.3675 24.1618 32.7322 24.2529 33.0058 24.2529C34.8293 24.2529 36.3793 22.7029 36.3793 20.8794C36.3793 19.0559 34.8293 17.5059 33.0058 17.5059C31.1822 17.5059 29.6322 19.0559 29.6322 20.8794C29.6322 21.7 29.9969 22.5206 30.4528 23.0677L27.7175 26.2588C27.2616 25.9853 26.6234 25.8029 26.0763 25.8029C25.1646 25.8029 24.344 26.1677 23.7058 26.8059L19.5116 24.2529C19.5116 24.1618 19.5116 24.0706 19.5116 23.8882C19.5116 22.0647 17.9616 20.5147 16.1381 20.5147C14.3146 20.5147 12.7646 22.0647 12.7646 23.8882C12.7646 24.4353 12.8558 24.8912 13.1293 25.3471L10.2116 28.6294C9.84693 28.2647 9.39105 28.1735 8.84399 28.1735ZM33.0969 19.2382C33.9175 19.2382 34.6469 19.9677 34.6469 20.7882C34.6469 21.6088 33.9175 22.3382 33.0969 22.3382C32.2763 22.3382 31.5469 21.6088 31.5469 20.7882C31.5469 19.9677 32.1852 19.2382 33.0969 19.2382ZM26.1675 27.5353C26.9881 27.5353 27.7175 28.2647 27.7175 29.0853C27.7175 29.9059 26.9881 30.6353 26.1675 30.6353C25.3469 30.6353 24.6175 29.9059 24.6175 29.0853C24.6175 28.2647 25.2558 27.5353 26.1675 27.5353ZM8.84399 33.0971C8.0234 33.0971 7.29399 32.3677 7.29399 31.5471C7.29399 30.7265 8.0234 29.9971 8.84399 29.9971C9.66458 29.9971 10.394 30.6353 10.394 31.5471C10.394 32.3677 9.66458 33.0971 8.84399 33.0971ZM16.2293 22.2471C17.0499 22.2471 17.7793 22.9765 17.7793 23.7971C17.7793 24.6177 17.0499 25.3471 16.2293 25.3471C15.4087 25.3471 14.6793 24.6177 14.6793 23.7971C14.7705 22.9765 15.4087 22.2471 16.2293 22.2471Z" fill="#6BC1FF"/>
<path d="M33.1882 26.9882V32.0941C33.1882 32.6412 33.5529 33.0059 34.1 33.0059C34.6471 33.0059 35.0118 32.6412 35.0118 32.0941V26.9882C35.0118 26.4412 34.6471 26.0765 34.1 26.0765C33.5529 26.0765 33.1882 26.5324 33.1882 26.9882Z" fill="#6BC1FF"/>
<path d="M6.47353 45.7706H30.9088C31.4559 45.7706 31.8206 45.4059 31.8206 44.8588C31.8206 44.3118 31.4559 43.9471 30.9088 43.9471H27.2618V35.2853C27.2618 34.7382 26.8971 34.3735 26.35 34.3735C25.8029 34.3735 25.4382 34.7382 25.4382 35.2853V43.9471H17.7794V32.3677C17.7794 31.8206 17.4147 31.4559 16.8677 31.4559C16.3206 31.4559 15.9559 31.8206 15.9559 32.3677V43.9471H9.93824V39.2059C9.93824 38.6588 9.57353 38.2941 9.02647 38.2941C8.47941 38.2941 8.11471 38.6588 8.11471 39.2059V43.9471H6.47353C5.92647 43.9471 5.56177 44.3118 5.56177 44.8588C5.56177 45.4059 5.92647 45.7706 6.47353 45.7706Z" fill="#6BC1FF"/>
<path d="M45.8617 38.75C42.397 38.75 39.5706 41.5765 39.5706 45.0412C39.5706 48.5059 42.397 51.3324 45.8617 51.3324C49.3264 51.3324 52.1529 48.5059 52.1529 45.0412C52.0617 41.5765 49.3264 38.75 45.8617 38.75ZM45.8617 49.4176C43.4 49.4176 41.3941 47.4118 41.3941 44.95C41.3941 42.4882 43.4 40.4824 45.8617 40.4824C48.3235 40.4824 50.3294 42.4882 50.3294 44.95C50.3294 47.4118 48.3235 49.4176 45.8617 49.4176Z" fill="#6BC1FF"/>
</svg>
