<svg width="55" height="69" viewBox="0 0 55 69" fill="none" xmlns="http://www.w3.org/2000/svg">
<path d="M18.6709 54.9734C18.8501 57.4878 20.9252 59.5008 23.4438 59.6086C24.8237 59.6677 26.0846 59.1678 27.0233 58.3175V68H4.69862C2.65594 68 1 66.3441 1 64.3012V41.9767H27.0233V50.8955C26.1347 50.0915 24.9573 49.6007 23.6636 49.6007C20.7781 49.6007 18.462 52.0434 18.6709 54.9734Z" stroke="#6BC1FF" stroke-width="2" stroke-miterlimit="10" stroke-linecap="round" stroke-linejoin="round"/>
<path d="M45.8364 67.9998H49.3484C51.391 67.9998 53.047 66.3438 53.047 64.3011V41.9765H43.9463C44.6227 41.0686 44.9989 39.924 44.927 38.6893C44.7821 36.1979 42.7739 34.1659 40.2841 33.9945C37.359 33.7932 34.9234 36.1063 34.9234 38.9884C34.9234 40.1085 35.2914 41.1424 35.9129 41.9765H27.0238V50.8957C26.0824 50.043 24.8154 49.5434 23.4316 49.606C20.9133 49.72 18.8434 51.7375 18.6702 54.2522C18.4687 57.1773 20.7821 59.6129 23.6642 59.6129C24.957 59.6129 26.1354 59.1225 27.0238 58.3178V67.9998H33.8036" stroke="#6BC1FF" stroke-width="2" stroke-miterlimit="10" stroke-linecap="round" stroke-linejoin="round"/>
<path d="M29.6388 2.08324L45.4246 17.869L38.9896 24.3039C38.8252 23.1847 38.2823 22.1103 37.3596 21.2882C35.4968 19.6281 32.6404 19.6096 30.7578 21.2473C28.5446 23.1725 28.4573 26.5326 30.4958 28.5712C31.2878 29.363 32.2791 29.8342 33.3089 29.9846L27.0234 36.2701L20.4585 29.7053C20.3995 30.902 19.9136 32.0812 18.9998 32.9949C17.0442 34.9506 13.8677 34.946 11.9065 32.9849C9.94543 31.0238 9.94094 27.8472 11.8965 25.8917C12.8102 24.9779 13.9895 24.4921 15.1872 24.4339L8.62231 17.869L24.4081 2.08324C25.8524 0.638928 28.1944 0.638928 29.6388 2.08324Z" stroke="#6BC1FF" stroke-width="2" stroke-miterlimit="10" stroke-linecap="round" stroke-linejoin="round"/>
</svg>
