<svg width="127" height="127" viewBox="0 0 127 127" fill="none" xmlns="http://www.w3.org/2000/svg">
<path d="M100.382 74.5955C100.382 76.8179 98.8678 79.5045 96.914 80.6279L25.9161 121.634C24.9636 122.196 24.0844 122.22 23.4493 121.854C23.4249 121.83 23.4006 121.805 23.4006 121.805C23.3517 121.781 23.3028 121.781 23.2541 121.732L17.2215 118.239C16.5865 117.849 16.1958 117.067 16.1958 115.968L16.0248 56.5223L93.9832 11.5106L100.236 15.1496L100.382 74.5955Z" fill="#DEDFFB"/>
<path d="M23.4615 121.858L17.2252 118.244C16.5874 117.854 16.1977 117.074 16.1977 115.976L16.0206 56.5344L22.2567 60.1487L22.434 119.59C22.434 120.724 22.8237 121.503 23.4615 121.858Z" fill="#205988"/>
<path d="M22.2712 60.147L16.028 56.5188L93.9863 11.5095L100.23 15.1377L22.2712 60.147Z" fill="#1D2943"/>
<path d="M100.23 15.1377L100.386 74.598C100.392 76.8076 98.8591 79.5155 96.9135 80.6388L25.9231 121.625C24.0001 122.735 22.434 121.817 22.4277 119.607L22.2712 60.147L100.23 15.1377Z" fill="#1D2943"/>
<path d="M100.26 15.1009L22.2771 60.1126L16.0248 56.4979V52.4193C16.0003 50.1969 17.5635 47.4858 19.5173 46.3624L90.4907 5.38045C91.4677 4.81877 92.3469 4.76988 92.9819 5.13628L98.9412 8.62877C98.9899 8.65321 99.0388 8.67766 99.0877 8.70211C99.1365 8.7264 99.1853 8.75085 99.2098 8.7753C99.8448 9.1417 100.236 9.92326 100.236 11.0222L100.26 15.1009Z" fill="#7E5AF2"/>
<path d="M92.9722 5.1409C92.3362 4.7713 91.4555 4.82082 90.4793 5.38463L19.5116 46.3579C17.5661 47.4812 16.0102 50.202 16.0163 52.4116L16.028 56.493L22.2712 60.1213L22.2597 56.0399C22.2534 53.8303 23.8092 51.1093 25.7548 49.986L96.7227 9.01272C97.6989 8.44913 98.5796 8.39961 99.2156 8.76921L92.9722 5.1409Z" fill="#7E5AF2"/>
<path d="M96.7226 9.01255C98.6682 7.88925 100.234 8.80771 100.241 11.0174L100.252 15.0987L22.2712 60.1211L22.2596 56.0397C22.2533 53.8301 23.8092 51.1091 25.7548 49.9858L96.7226 9.01255Z" fill="#B28AFD"/>
<path d="M27.9264 51.3001C28.9444 50.7124 29.7615 51.178 29.7648 52.3478C29.7682 53.5436 28.9564 54.9497 27.9384 55.5374C26.9204 56.1252 26.1034 55.6595 26.1 54.4637C26.0967 53.2939 26.9084 51.8879 27.9264 51.3001Z" fill="#1A212B"/>
<path d="M34.7812 47.3425C35.7992 46.7548 36.6389 47.2074 36.6422 48.3772C36.6456 49.573 35.8112 50.9921 34.7932 51.5798C33.7752 52.1676 32.9581 51.7019 32.9547 50.5062C32.9514 49.3364 33.7632 47.9303 34.7812 47.3425Z" fill="#1A212B"/>
<path d="M41.6585 43.3719C42.6539 42.7972 43.4936 43.2498 43.4969 44.4196C43.5003 45.6154 42.6659 47.0345 41.6705 47.6092C40.6298 48.21 39.8128 47.7444 39.8094 46.5486C39.8061 45.3788 40.6178 43.9727 41.6585 43.3719Z" fill="#1A212B"/>
<path d="M94.9819 13.0543C95.7511 12.6103 96.4092 12.9593 96.4118 13.8692C96.4143 14.779 95.7605 15.9116 94.9913 16.3557L62.1881 35.2946C61.3737 35.7648 60.7381 35.3767 60.7355 34.4669C60.733 33.557 61.3643 32.4635 62.1787 31.9933L94.9819 13.0543Z" fill="#1A212B"/>
<path d="M96.6285 21.6659L96.7592 74.7328L26.0288 115.569L25.8982 62.5021L96.6285 21.6659Z" fill="#1A212B"/>
<path d="M93.7878 37.3014C93.7878 37.5945 93.617 37.912 93.3482 38.0585L90.1977 39.8903C90.0756 39.9636 89.9535 39.9636 89.8802 39.9147L88.3415 38.889L86.9006 45.4099C86.8517 45.6541 86.6808 45.8984 86.4853 46.0205C86.2412 46.1426 86.0702 46.0694 86.0457 45.8495L84.2873 35.9093L82.6021 43.7981C82.5532 44.0422 82.3823 44.2864 82.1868 44.3842L74.8599 48.6093C74.6891 48.707 74.5426 48.707 74.4692 48.5849L73.4922 47.1196L71.2942 54.3488C71.2209 54.5686 71.0744 54.764 70.9034 54.8616C70.6348 54.9837 70.4882 54.9105 70.4638 54.7151L68.7299 44.4818L66.3852 53.3474C66.3118 53.5673 66.141 53.787 65.97 53.9091L58.6431 58.1344C58.4966 58.2076 58.35 58.2076 58.2767 58.1099L57.1532 56.6689L55.1017 64.5088C55.0284 64.7286 54.8576 64.9728 54.6866 65.0705C54.4423 65.1925 54.2957 65.1194 54.247 64.9239L52.3908 54.1779L50.4857 62.4329C50.4125 62.6526 50.266 62.8969 50.0706 63.019L42.2552 67.5372C42.0842 67.6106 41.9377 67.6106 41.8645 67.4883L41.0829 66.2184L39.1291 73.3255C39.0558 73.5453 38.8848 73.7895 38.7138 73.8873C38.4696 73.9849 38.2986 73.9116 38.2742 73.6919L36.5645 62.6526L34.3177 71.6892C34.2688 71.9333 34.0979 72.1532 33.9025 72.2753L29.311 74.913C29.0666 75.0596 28.8714 74.9618 28.8714 74.6932C28.8714 74.4001 29.0666 74.0581 29.311 73.9116L33.6095 71.445L36.2959 60.5522C36.3448 60.3079 36.5403 60.0638 36.7111 59.9417C36.9554 59.844 37.1019 59.9172 37.1508 60.1371L38.8848 71.3228L40.6189 65.046C40.6676 64.8507 40.8386 64.6309 41.0096 64.5088C41.1805 64.4111 41.3515 64.4354 41.4249 64.5332L42.5238 66.365L49.7286 62.1886L52.0733 52.0774C52.122 51.8332 52.293 51.589 52.4884 51.4912C52.7083 51.3691 52.8791 51.4425 52.928 51.6622L54.8087 62.555L56.6404 55.6432C56.6893 55.4233 56.8358 55.2036 57.0067 55.1059C57.2021 54.9837 57.3486 54.9837 57.422 55.0815L58.8873 56.9864L65.6525 53.0788L68.4855 42.528C68.5344 42.2838 68.681 42.064 68.8764 41.9663C69.1206 41.8441 69.2915 41.893 69.316 42.1129L71.0744 52.4927L73.0282 45.996C73.1015 45.8008 73.2481 45.5809 73.419 45.4832C73.59 45.3855 73.7366 45.3855 73.8097 45.5075L75.1287 47.4615L81.845 43.5782L83.9698 33.7358C84.0186 33.4914 84.1896 33.2473 84.385 33.1252C84.6049 33.0029 84.7758 33.0763 84.8246 33.296L86.5831 43.2607L87.7065 38.1074C87.7554 37.912 87.8775 37.7166 88.024 37.57C88.2439 37.448 88.366 37.4235 88.4636 37.4969L90.3931 38.7669L93.3482 37.0573C93.5925 36.9107 93.7878 37.0328 93.7878 37.3014Z" fill="#4C5C75"/>
<path d="M34.1684 100.946L34.1857 107.025L28.8886 110.083L28.8714 104.004L34.1684 100.946Z" fill="#BF7D5A"/>
<path d="M42.0329 96.4052L42.0378 98.1166L38.5106 100.153L38.5057 98.4416L42.0329 96.4052Z" fill="#DEDFFB"/>
<path d="M68.0881 81.3622L68.093 83.0736L52.9372 91.8238L52.9324 90.1124L68.0881 81.3622Z" fill="#57B3FE"/>
<path d="M92.261 71.7238L92.2659 73.4352L65.6312 88.8128L65.6263 87.1013L92.261 71.7238Z" fill="#DEDFFB"/>
<path d="M82.9572 72.7775L82.962 74.4889L70.2242 81.8431L70.2194 80.1316L82.9572 72.7775Z" fill="#DEDFFB"/>
<path d="M51.1999 91.1125L51.2048 92.824L44.2127 96.8609L44.2078 95.1494L51.1999 91.1125Z" fill="#DEDFFB"/>
<path d="M42.0451 100.716L42.05 102.427L38.5228 104.464L38.5179 102.752L42.0451 100.716Z" fill="#DEDFFB"/>
<path d="M63.1523 88.5297L63.1572 90.2411L44.2249 101.172L44.2201 99.4602L63.1523 88.5297Z" fill="#DEDFFB"/>
<path d="M34.1684 91.2305L34.1857 97.31L28.8886 100.368L28.8714 94.2887L34.1684 91.2305Z" fill="#F45170"/>
<path d="M42.0329 86.6899L42.0378 88.4014L38.5106 90.4378L38.5057 88.7264L42.0329 86.6899Z" fill="#DEDFFB"/>
<path d="M68.0881 71.647L68.093 73.3584L52.9372 82.1086L52.9324 80.3971L68.0881 71.647Z" fill="#DEDFFB"/>
<path d="M92.261 62.0085L92.2659 63.72L65.6312 79.0976L65.6263 77.3861L92.261 62.0085Z" fill="#DEDFFB"/>
<path d="M82.9572 63.0623L82.962 64.7737L70.2242 72.1279L70.2194 70.4164L82.9572 63.0623Z" fill="#F45170"/>
<path d="M51.1999 81.3973L51.2048 83.1088L44.2127 87.1457L44.2078 85.4342L51.1999 81.3973Z" fill="#DEDFFB"/>
<path d="M42.0451 91.0007L42.05 92.7122L38.5228 94.7486L38.5179 93.0372L42.0451 91.0007Z" fill="#DEDFFB"/>
<path d="M63.1523 78.8145L63.1572 80.5259L44.2249 91.4564L44.2201 89.745L63.1523 78.8145Z" fill="#DEDFFB"/>
<path d="M34.1684 81.5153L34.1857 87.5948L28.8886 90.653L28.8714 84.5735L34.1684 81.5153Z" fill="#8FABFE"/>
<path d="M42.0329 76.9747L42.0378 78.6862L38.5106 80.7226L38.5057 79.0112L42.0329 76.9747Z" fill="#DBA660"/>
<path d="M68.0881 61.9318L68.093 63.6432L52.9372 72.3934L52.9324 70.6819L68.0881 61.9318Z" fill="#DEDFFB"/>
<path d="M92.261 52.2933L92.2659 54.0048L65.6312 69.3823L65.6263 67.6709L92.261 52.2933Z" fill="#DEDFFB"/>
<path d="M82.9572 53.347L82.962 55.0585L70.2242 62.4127L70.2194 60.7012L82.9572 53.347Z" fill="#DEDFFB"/>
<path d="M51.1999 71.6821L51.2048 73.3936L44.2127 77.4305L44.2078 75.719L51.1999 71.6821Z" fill="#DEDFFB"/>
<path d="M42.0451 81.2855L42.05 82.997L38.5228 85.0334L38.5179 83.3219L42.0451 81.2855Z" fill="#DEDFFB"/>
<path d="M63.1523 69.0992L63.1572 70.8107L44.2249 81.7412L44.2201 80.0298L63.1523 69.0992Z" fill="#DEDFFB"/>
<path d="M93.7967 49.2404L92.2449 48.9916L90.5824 49.9514L92.7033 57.8518L84.2426 62.7367L82.3879 55.8272L80.8363 55.5784L79.1737 56.5382L96.3608 120.565L97.9125 120.814L99.575 119.854L97.4542 111.953L105.915 107.069L107.769 113.978L109.321 114.227L110.984 113.267L93.7967 49.2404ZM93.5393 60.9665L95.7997 69.387L87.3392 74.2716L85.0787 65.8512L93.5393 60.9665ZM99.727 84.0175L101.987 92.4381L93.5269 97.3229L91.2665 88.9022L99.727 84.0175ZM90.4304 85.7878L88.1751 77.3862L96.6358 72.5015L98.8909 80.903L90.4304 85.7878ZM94.3629 100.437L102.823 95.5527L105.079 103.954L96.6181 108.839L94.3629 100.437Z" fill="#BF7D5A"/>
<path d="M109.321 114.227L107.769 113.978L105.649 106.078L107.2 106.326L109.321 114.227Z" fill="#AA6256"/>
<path d="M106.63 104.203L105.079 103.954L102.557 94.5615L104.109 94.8104L106.63 104.203Z" fill="#AA6256"/>
<path d="M103.539 92.6871L101.987 92.4382L99.461 83.0264L101.013 83.2752L103.539 92.6871Z" fill="#AA6256"/>
<path d="M95.4425 110.662L93.8908 110.413L105.079 103.954L106.63 104.203L95.4425 110.662Z" fill="#BF7D5A"/>
<path d="M100.443 81.152L98.891 80.9031L96.3697 71.5105L97.9214 71.7593L100.443 81.152Z" fill="#AA6256"/>
<path d="M92.3512 99.1464L90.7995 98.8976L101.987 92.4382L103.539 92.6871L92.3512 99.1464Z" fill="#BF7D5A"/>
<path d="M97.3514 69.6359L95.7997 69.387L93.2733 59.9753L94.825 60.2242L97.3514 69.6359Z" fill="#AA6256"/>
<path d="M89.2548 87.6113L87.703 87.3625L98.891 80.9031L100.443 81.1519L89.2548 87.6113Z" fill="#BF7D5A"/>
<path d="M92.1342 50.2002L90.5825 49.9514L92.2449 48.9916L93.7967 49.2404L92.1342 50.2002Z" fill="#BF7D5A"/>
<path d="M94.255 58.1008L92.7032 57.8519L90.5825 49.9514L92.1342 50.2003L94.255 58.1008Z" fill="#AA6256"/>
<path d="M87.6052 75.2629L86.0534 75.0141L95.7997 69.3871L97.3514 69.6359L87.6052 75.2629Z" fill="#BF7D5A"/>
<path d="M84.5088 63.7278L82.957 63.4789L92.7033 57.8519L94.255 58.1008L84.5088 63.7278Z" fill="#BF7D5A"/>
<path d="M97.9125 120.814L96.3608 120.565L79.1737 56.5382L80.7255 56.7871L97.9125 120.814Z" fill="#AA6256"/>
<path d="M92.1342 50.2003L93.7967 49.2405L110.984 113.267L109.321 114.227L107.2 106.326L97.4542 111.953L99.575 119.854L97.9125 120.814L80.7255 56.7871L82.388 55.8273L84.5087 63.7278L94.255 58.1008L92.1342 50.2003ZM103.539 92.6871L101.013 83.2753L91.2665 88.9023L93.7929 98.3141L103.539 92.6871ZM97.3514 69.6359L94.825 60.2242L85.0787 65.8512L87.6052 75.2629L97.3514 69.6359ZM106.63 104.203L104.109 94.8104L94.3629 100.437L96.8842 109.83L106.63 104.203ZM100.443 81.152L97.9214 71.7594L88.1752 77.3864L90.6965 86.779L100.443 81.152Z" fill="#DBA660"/>
<path d="M80.7255 56.787L79.1737 56.5382L80.8362 55.5784L82.388 55.8272L80.7255 56.787Z" fill="#BF7D5A"/>
<path d="M83.1638 107.518L71.8804 101.021C70.9278 100.46 69.4136 100.46 68.4855 101.021L57.2754 107.518C56.6717 107.884 56.4658 108.373 56.6569 108.831C56.6068 108.72 56.567 108.608 56.567 108.495V112.329C56.567 112.671 56.8114 113.037 57.2754 113.306L68.5589 119.827C69.5114 120.364 71.0256 120.364 71.9537 119.827L83.1638 113.306C83.6279 113.037 83.872 112.696 83.872 112.329V108.519C83.872 108.153 83.6523 107.811 83.1638 107.518ZM56.6569 108.831C56.721 108.984 56.8299 109.136 56.9823 109.276C56.8275 109.135 56.726 108.984 56.6569 108.831Z" fill="#5EC363"/>
<path d="M83.1701 109.496L71.969 116.006C71.0278 116.553 69.5167 116.553 68.5693 116.006L57.2876 109.492C56.8109 109.217 56.5728 108.859 56.5738 108.501L56.5659 112.318C56.5649 112.676 56.803 113.034 57.2797 113.31L68.5614 119.823C69.5088 120.37 71.0198 120.37 71.9611 119.823L83.1622 113.314C83.6299 113.042 83.864 112.689 83.8649 112.336L83.8729 108.519C83.8718 108.872 83.6377 109.225 83.1701 109.496Z" fill="#5EC363"/>
<path d="M83.159 107.527C84.1065 108.074 84.1114 108.949 83.1701 109.496L71.969 116.006C71.0277 116.553 69.5167 116.553 68.5693 116.006L57.2876 109.492C56.3402 108.945 56.3353 108.07 57.2765 107.523L68.4776 101.014C69.4189 100.467 70.9299 100.467 71.8773 101.014L83.159 107.527Z" fill="#78E75A"/>
<path d="M75.0366 112.117L73.8676 111.442C73.0772 111.772 72.1815 111.981 71.2583 112.069L71.2633 113.023L69.2338 113.024L69.2288 112.069C68.3034 111.981 67.4061 111.772 66.612 111.442L65.4511 112.117L64.0113 111.286L65.1723 110.611C64.5997 110.152 64.2365 109.633 64.0825 109.098H62.4337L62.4275 107.922L64.075 107.922C64.2235 107.387 64.5809 106.867 65.1482 106.408L63.9797 105.733L65.4101 104.902L66.5786 105.577C67.3702 105.247 68.2647 105.038 69.1883 104.95L69.1834 103.996L71.2128 103.996L71.2182 104.951C72.1433 105.038 73.0405 105.247 73.835 105.577L74.996 104.902L76.4357 105.733L75.2748 106.408C75.8469 106.867 76.2101 107.386 76.3646 107.922L78.013 107.922L78.0192 109.097L76.3716 109.098C76.2228 109.633 75.865 110.151 75.298 110.611L76.467 111.286L75.0366 112.117ZM66.9847 110.392C68.7847 111.431 71.6948 111.432 73.4835 110.392C75.2726 109.353 75.2623 107.667 73.4623 106.628C71.6619 105.588 68.7519 105.588 66.9628 106.627C65.174 107.667 65.1843 109.353 66.9847 110.392Z" fill="#1A212B"/>
<path d="M72.167 107.38C73.2474 108.004 73.2535 109.015 72.1802 109.639C71.1069 110.263 69.3603 110.263 68.28 109.639C67.1993 109.015 67.1944 108.004 68.2677 107.38C69.341 106.757 71.0863 106.756 72.167 107.38Z" fill="#1A212B"/>
</svg>
