<svg width="143" height="143" viewBox="0 0 143 143" fill="none" xmlns="http://www.w3.org/2000/svg">
<path d="M111.635 32.1094C111.635 33.7595 110.48 35.7669 109.023 36.6194L89.4979 47.867C88.7278 48.3345 88.0403 48.3345 87.5729 48.0045C87.5453 48.0045 87.5178 47.9769 87.5178 47.9769L85.4278 46.7669C84.9603 46.492 84.6579 45.9144 84.6579 45.0895L84.6304 31.6144C84.6304 29.9645 85.7853 27.9295 87.2154 27.1045L106.74 15.8294C107.455 15.417 108.115 15.362 108.61 15.6369L110.728 16.902C111.278 17.1494 111.608 17.7545 111.608 18.6345L111.635 32.1094Z" fill="#F9A83D"/>
<path d="M87.6527 48.0621C87.1858 47.7908 86.8972 47.2121 86.8949 46.3878L86.8567 32.9108C86.8519 31.2514 88.0089 29.232 89.453 28.3982L108.972 17.1287C109.699 16.7091 110.358 16.6707 110.835 16.9475L108.6 15.6488C108.123 15.3719 107.464 15.4104 106.737 15.83L87.2182 27.0994C85.7741 27.9333 84.6171 29.9526 84.6219 31.6121L84.6601 45.089C84.6624 45.9135 84.951 46.492 85.4178 46.7633L87.6527 48.0621Z" fill="#F9A83D"/>
<path d="M108.972 17.1288C110.416 16.295 111.594 16.9664 111.599 18.6258L111.637 32.1027C111.642 33.7622 110.472 35.7738 109.027 36.6076L89.5081 47.8771C88.064 48.7108 86.8995 48.0472 86.8948 46.3878L86.8566 32.9109C86.8519 31.2514 88.0088 29.232 89.4529 28.3982L108.972 17.1288Z" fill="#FFD06C"/>
<path d="M78.8004 100.447L78.8279 106.304C78.8279 108.257 77.4529 110.649 75.7479 111.639L31.7479 137.049C30.7853 137.599 29.9603 137.599 29.3828 137.132C29.4378 137.187 29.4929 137.242 29.5478 137.27L22.0679 132.98C21.5178 132.649 21.1603 131.962 21.1603 130.999V125.114H21.1328L20.9129 42.5595V36.6745C20.8854 34.7219 22.2604 32.3294 23.9929 31.3394L67.9654 5.957C68.8454 5.46185 69.6153 5.40697 70.1653 5.73695L77.4803 9.91701C77.5353 9.94437 77.6179 9.99942 77.6728 10.0269C78.2228 10.3294 78.5528 11.0169 78.5803 12.0069V17.8919L78.6078 27.4345L78.7178 67.9419L78.8279 100.419H78.8004V100.447Z" fill="#1D2943"/>
<path d="M78.8137 100.422L28.6403 129.389L28.4136 46.8566L78.5851 17.8877L78.8137 100.422Z" fill="#638DFF"/>
<path d="M29.5583 137.259L22.0628 132.975C21.509 132.653 21.1652 131.967 21.1633 130.994L21.1466 125.106L28.6403 129.389L28.657 135.278C28.6607 136.252 29.0027 136.936 29.5583 137.259Z" fill="#1D2943"/>
<path d="M78.813 100.421L78.8297 106.31C78.8353 108.27 77.4576 110.657 75.7513 111.642L31.7557 137.043C30.0494 138.028 28.6627 137.237 28.6571 135.277L28.6404 129.388L78.813 100.421Z" fill="#4C5C75"/>
<path d="M28.6404 129.388L21.1457 125.105L20.9181 42.5726L28.4128 46.8557L28.6404 129.388Z" fill="#1D2943"/>
<path d="M26.477 128.131L28.6405 129.388L28.4128 46.8558L26.477 45.7308V128.131Z" fill="#497BFE"/>
<path d="M78.8147 100.417L28.6392 129.39L28.4163 46.8584L78.5862 17.8857L78.614 27.4337L78.7255 67.933L78.8147 100.417Z" fill="#57B3FE"/>
<path d="M77.667 10.0192C77.1058 9.69208 76.329 9.73854 75.4704 10.2347L31.4744 35.6355C29.7684 36.6205 28.3912 39.0067 28.3968 40.9673L28.4136 46.8566L20.918 42.5721L20.9013 36.6847C20.8957 34.724 22.2728 32.3379 23.9807 31.351L67.9749 5.95024C68.8334 5.4559 69.6121 5.40944 70.1733 5.73466L77.667 10.0192Z" fill="#1D2943"/>
<path d="M75.4701 10.234C77.1764 9.24885 78.5631 10.0397 78.5687 11.9997L78.5854 17.8885L28.4128 46.8557L28.3961 40.9669C28.3905 39.0069 29.7682 36.62 31.4745 35.6349L75.4701 10.234Z" fill="#4C5C75"/>
<path d="M57.1646 115.736C58.2983 115.081 59.2205 115.606 59.2242 116.908C59.2279 118.211 58.3116 119.797 57.178 120.452L50.3045 124.42C49.1714 125.074 48.2497 124.55 48.246 123.247C48.2423 121.944 49.158 120.358 50.2911 119.704L57.1646 115.736Z" fill="#9EA9C9"/>
<path d="M62.403 21.4018C63.1455 20.9731 63.7496 21.3167 63.752 22.1705C63.7544 23.025 63.1542 24.0646 62.4118 24.4933C61.6688 24.9222 61.064 24.5783 61.0616 23.7238C61.0592 22.87 61.66 21.8308 62.403 21.4018Z" fill="#9EA9C9"/>
<path d="M58.7867 24.0547C59.2584 23.7823 59.6423 24.001 59.6438 24.5431C59.6453 25.0852 59.264 25.7457 58.7922 26.0181L44.0866 34.5084C43.6148 34.7808 43.231 34.5621 43.2295 34.0199C43.2279 33.4778 43.6093 32.8173 44.081 32.545L58.7867 24.0547Z" fill="#9EA9C9"/>
<path d="M35.1387 29.4341C33.848 28.7015 31.7199 28.7015 30.4292 29.4341C29.2782 30.0969 29.1385 31.1085 30.0106 31.8411C30.1154 31.7364 30.2549 31.6318 30.4292 31.5271C31.7199 30.7946 33.848 30.7946 35.1387 31.5271C35.2781 31.6318 35.4176 31.7364 35.5573 31.8411C36.3945 31.1085 36.255 30.0969 35.1387 29.4341Z" fill="#1A212B"/>
<path d="M30.4292 31.5271C30.2549 31.6319 30.1154 31.7364 30.0106 31.8412C30.1154 31.9457 30.2549 32.0504 30.4292 32.155C31.7548 32.9225 33.848 32.9225 35.1387 32.155C35.2781 32.0854 35.4176 31.9806 35.5573 31.8761V31.8412C35.4176 31.7364 35.2781 31.6319 35.1387 31.5271C33.848 30.7947 31.7199 30.7947 30.4292 31.5271Z" fill="#4C5C75"/>
<path d="M76.3253 76.7968L33.8928 101.299L31.9953 100.199L31.8578 51.4694L74.2903 26.9668L76.1878 28.0669L76.3253 76.7968Z" fill="#205988"/>
<path d="M33.8963 101.305L32.0054 100.206L31.8673 51.4719L33.7582 52.5708L33.8963 101.305Z" fill="#205988"/>
<path d="M33.7582 52.5708L31.8673 51.472L74.2961 26.9757L76.1869 28.0746L33.7582 52.5708Z" fill="#205988"/>
<path d="M76.1869 28.0746L76.3251 76.8088L33.8963 101.305L33.7582 52.5708L76.1869 28.0746Z" fill="#1A212B"/>
<path d="M57.2104 52.5674L59.4338 51.6381L59.4413 54.284L57.2199 55.921C57.0238 57.6983 56.4659 59.5613 55.6128 61.3636L56.9575 62.652L55.3428 65.4641L53.5444 64.9461C52.4093 66.5568 51.0723 67.9913 49.6272 69.0722L49.3265 71.8036L47.0238 73.133L46.7086 70.7572C45.2488 71.3535 43.9214 71.4573 42.7808 71.1605L40.9913 73.7499L39.366 72.8084L40.699 69.9741C39.8652 69.1457 39.2852 67.9551 39.0797 66.4251L36.8429 67.3312L36.8354 64.6853L39.07 63.0099C39.2796 61.2401 39.8509 59.3849 40.6639 57.6058L39.3193 56.3173L40.934 53.5207L42.7322 54.0233C43.8541 52.4203 45.1911 51.0012 46.6228 49.9281L46.9502 47.1658L49.2528 45.8364L49.5949 48.2121C51.028 47.6312 52.3553 47.5275 53.4959 47.8089L55.2854 45.2349L56.9107 46.1609L55.5777 48.9953C56.4114 49.8237 57.0049 51.0219 57.2104 52.5674ZM48.1449 66.5226C51.532 64.5671 54.2675 59.829 54.2564 55.937C54.2454 52.0604 51.4921 50.5067 48.1051 52.4622C44.7179 54.4177 42.0092 59.125 42.0202 63.0016C42.0312 66.8936 44.7578 68.4782 48.1449 66.5226Z" fill="#B28AFD"/>
<path d="M58.61 73.2543L60.2172 72.5729L60.2227 74.4959L58.6169 75.6849C58.4731 76.9698 58.0612 78.317 57.4481 79.6264L58.4296 80.5543L57.2553 82.5883L55.9536 82.215C55.1388 83.3787 54.1629 84.4199 53.1192 85.2073L52.8968 87.1848L51.2368 88.1432L51.0039 86.4286C49.9458 86.8546 48.9805 86.9342 48.1619 86.7135L46.8665 88.5863L45.6845 87.9127L46.6576 85.8563C46.039 85.2581 45.6343 84.3977 45.4836 83.2828L43.863 83.9411L43.8575 82.0182L45.4767 80.8214C45.634 79.5288 46.0325 78.1893 46.6322 76.9031L45.6507 75.9751L46.825 73.9412L48.1267 74.2991C48.9281 73.143 49.904 72.1327 50.9477 71.3298L51.1835 69.3447L52.8435 68.3863L53.0897 70.0931C54.1345 69.6902 55.0998 69.5952 55.9184 69.8005L57.2138 67.9432L58.3957 68.6168L57.4227 70.6732C58.0277 71.2638 58.4594 72.1394 58.61 73.2543ZM52.0546 83.3567C54.4911 81.9499 56.4794 78.5061 56.4714 75.6909C56.4635 72.8912 54.4623 71.7661 52.0257 73.1728C49.5624 74.595 47.6009 78.008 47.6088 80.8078C47.6168 83.6229 49.5912 84.7789 52.0546 83.3567Z" fill="#DBA660"/>
<path d="M48.1255 54.9466C50.2943 53.6944 52.0673 54.7201 52.0743 57.2123C52.0814 59.7044 50.32 62.7552 48.1512 64.0074C45.969 65.2673 44.2095 64.2492 44.2024 61.7571C44.1953 59.265 45.9433 56.2064 48.1255 54.9466Z" fill="#B28AFD"/>
<path d="M65.0559 57.622C66.6223 56.7176 67.9117 57.4524 67.9168 59.2523C67.922 61.0675 66.6409 63.2863 65.0745 64.1907C63.4814 65.1105 62.2054 64.368 62.2003 62.5527C62.1952 60.7528 63.4628 58.5418 65.0559 57.622Z" fill="#F45170"/>
<path d="M71.6351 55.8882L73.2424 55.2222L73.2478 57.1451L71.642 58.3342C71.4982 59.6191 71.0863 60.9664 70.4731 62.2603L71.4548 63.2036L70.2804 65.2376L68.9653 64.872C68.1506 66.0358 67.188 67.0692 66.1443 67.8567L65.9219 69.8187L64.2485 70.7849L64.0157 69.0856C62.9709 69.5039 62.0057 69.5835 61.187 69.3628L59.8917 71.2355L58.7096 70.562L59.6693 68.4979C59.0642 67.9073 58.6595 67.047 58.4955 65.9398L56.8881 66.5904L56.8827 64.6675L58.4884 63.463C58.6457 62.1704 59.0575 60.8386 59.6439 59.5601L58.6758 58.6091L59.8501 56.5905L61.1519 56.9483C61.9531 55.7924 62.9291 54.7666 63.9728 53.9791L64.1952 51.9863L65.8686 51.0201L66.1149 52.7424C67.1597 52.324 68.1115 52.2522 68.9301 52.4576L70.2389 50.5925L71.4209 51.2507L70.4478 53.3225C71.0529 53.9131 71.4844 54.7733 71.6351 55.8882ZM65.0663 65.9983C67.5162 64.5838 69.5045 61.1554 69.4965 58.3402C69.4885 55.5251 67.4873 54.4 65.0374 55.8144C62.5875 57.2289 60.626 60.6419 60.634 63.457C60.6419 66.2722 62.6164 67.4127 65.0663 65.9983Z" fill="#F45170"/>
<path d="M54.0627 79.3785C55.1772 77.4581 55.1788 75.3778 54.0662 74.7321C52.9535 74.0864 51.1481 75.1198 50.0335 77.0402C48.919 78.9607 48.9174 81.041 50.03 81.6867C51.1426 82.3324 52.9481 81.299 54.0627 79.3785Z" fill="#DBA660"/>
<path d="M34.9932 110.8C36.7241 109.801 38.1337 110.6 38.1394 112.593C38.145 114.582 36.7445 117.008 35.0136 118.007C33.2826 119.007 31.8729 118.203 31.8673 116.214C31.8617 114.221 33.2622 111.8 34.9932 110.8Z" fill="#1A212B"/>
<path d="M48.8419 102.544C49.0741 102.41 49.2639 102.518 49.2647 102.785C49.2654 103.052 49.0768 103.378 48.8447 103.512L40.238 108.481C40.0058 108.615 39.8185 108.506 39.8178 108.239C39.817 107.972 40.0031 107.647 40.2352 107.513L48.8419 102.544Z" fill="#1A212B"/>
<path d="M48.8612 109.36C49.0934 109.226 49.2832 109.334 49.284 109.601C49.2847 109.868 49.0962 110.195 48.864 110.329L40.2573 115.298C40.0252 115.432 39.8378 115.322 39.8371 115.055C39.8363 114.789 40.0224 114.463 40.2545 114.329L48.8612 109.36Z" fill="#1A212B"/>
<path d="M53.1285 103.484C53.3606 103.35 53.5505 103.456 53.5512 103.725C53.552 103.992 53.3633 104.316 53.1312 104.45L40.2476 111.888C40.0155 112.022 39.8282 111.915 39.8274 111.649C39.8267 111.379 40.0128 111.057 40.2449 110.923L53.1285 103.484Z" fill="#1A212B"/>
<path d="M57.8521 97.6026C59.583 96.6033 60.9927 97.402 60.9983 99.3956C61.004 101.385 59.6034 103.81 57.8725 104.81C56.1416 105.809 54.7319 105.006 54.7262 103.017C54.7206 101.023 56.1211 98.602 57.8521 97.6026Z" fill="#1A212B"/>
<path d="M71.7009 89.3462C71.933 89.2122 72.1228 89.3204 72.1236 89.5872C72.1243 89.8539 71.9358 90.1806 71.7036 90.3146L63.0969 95.2837C62.8648 95.4177 62.6774 95.3081 62.6767 95.0413C62.6759 94.7746 62.862 94.4493 63.0941 94.3153L71.7009 89.3462Z" fill="#1A212B"/>
<path d="M71.7202 96.1626C71.9524 96.0286 72.1422 96.1368 72.1429 96.4035C72.1437 96.6703 71.9551 96.997 71.7229 97.131L63.1162 102.1C62.8841 102.234 62.6968 102.124 62.696 101.858C62.6953 101.591 62.8814 101.266 63.1135 101.132L71.7202 96.1626Z" fill="#1A212B"/>
<path d="M75.9874 90.2866C76.2195 90.1526 76.4094 90.2578 76.4102 90.5275C76.4109 90.7943 76.2223 91.1181 75.9902 91.2521L63.1065 98.6904C62.8744 98.8244 62.6871 98.7177 62.6864 98.4509C62.6856 98.1813 62.8717 97.8589 63.1038 97.7249L75.9874 90.2866Z" fill="#1A212B"/>
<path d="M122.085 98.082C122.113 100.97 120.05 104.544 117.52 106.002L81.9079 126.544C80.5329 127.342 79.2954 127.369 78.4704 126.737C78.4979 126.765 78.4979 126.765 78.4979 126.792L74.8404 124.674C74.0154 124.18 73.4929 123.162 73.4929 121.732L73.3828 81.9669V79.4094C73.3553 76.4944 75.4178 72.947 77.9479 71.4619L113.56 50.9195C114.825 50.1769 115.98 50.122 116.833 50.617L120.435 52.707L120.573 52.7894C120.6 52.7894 120.6 52.817 120.628 52.817C121.453 53.312 121.948 54.3294 121.975 55.7595V58.317L122.085 98.082Z" fill="#205988"/>
<path d="M78.6316 126.88L74.8268 124.667C74.0173 124.181 73.5046 123.156 73.5046 121.726L73.3696 81.9371L77.1745 84.1497L77.3094 123.939C77.3094 125.369 77.8221 126.394 78.6316 126.88Z" fill="#205988"/>
<path d="M77.1803 84.1588L121.975 58.3164L122.099 98.0769C122.107 100.967 120.046 104.537 117.514 105.999L81.919 126.549C79.3692 128.021 77.3122 126.829 77.304 123.939L77.1803 84.1588Z" fill="#205988"/>
<path d="M120.151 98.0864C120.151 100.294 118.486 103.198 116.55 104.321L80.9627 124.883C80.382 125.193 80.0334 125.232 79.8398 125.232C79.2976 125.232 79.2589 124.341 79.2589 123.915L79.1041 85.2688L120.035 61.647L120.151 98.0864Z" fill="#1A212B"/>
<path d="M121.975 55.7595V58.317L77.1778 84.167L73.3828 81.9669V79.4094C73.3553 76.4944 75.4178 72.947 77.9479 71.4619L113.56 50.9195C114.825 50.1769 115.98 50.122 116.833 50.617L120.435 52.707L120.573 52.7894C120.6 52.7894 120.6 52.817 120.628 52.817C121.453 53.312 121.948 54.3294 121.975 55.7595Z" fill="#DF3260"/>
<path d="M117.353 53.1326C119.885 51.6704 121.96 52.8524 121.968 55.7626L121.975 58.3164L77.1803 84.1786L77.1731 81.6248C77.1648 78.7146 79.2083 75.1553 81.7582 73.6831L117.353 53.1326Z" fill="#F45170"/>
<path d="M116.819 50.6069C115.982 50.1202 114.823 50.1864 113.549 50.9223L77.9545 71.4729C75.4046 72.945 73.3612 76.5043 73.3694 79.4146L73.3766 81.9684L77.1802 84.1789L77.173 81.625C77.1648 78.7147 79.2084 75.1554 81.7581 73.6833L117.353 53.1328C118.627 52.397 119.786 52.3308 120.623 52.8174L116.819 50.6069Z" fill="#DF3260"/>
<path d="M93.666 89.9244V91.4709L86.5017 95.6053V94.0588L93.666 89.9244Z" fill="#4C5C75"/>
<path d="M88.8372 87.873L84.1031 95.2582L83.2195 94.5954L86.7543 89.0723L83.188 87.6207L84.0715 85.9479L88.8372 87.873Z" fill="#4C5C75"/>
<path d="M85.9645 111.627L85.9806 116.851L81.0438 119.479L81.0277 114.255L85.9645 111.627Z" fill="#B28AFD"/>
<path d="M93.2941 107.725L93.2987 109.195L90.0114 110.945L90.0068 109.475L93.2941 107.725Z" fill="#205988"/>
<path d="M117.577 94.7977L117.582 96.2684L103.457 103.788L103.452 102.317L117.577 94.7977Z" fill="#C9CEE2"/>
<path d="M101.838 103.177L101.842 104.647L95.3256 108.116L95.3211 106.646L101.838 103.177Z" fill="#205988"/>
<path d="M93.3055 111.429L93.3101 112.9L90.0227 114.65L90.0182 113.179L93.3055 111.429Z" fill="#205988"/>
<path d="M112.977 100.957L112.982 102.428L95.337 111.821L95.3325 110.35L112.977 100.957Z" fill="#205988"/>
<path d="M85.9645 101.795L85.9806 107.019L81.0438 109.647L81.0277 104.423L85.9645 101.795Z" fill="#F45170"/>
<path d="M93.2941 97.8928L93.2987 99.3635L90.0114 101.114L90.0068 99.6428L93.2941 97.8928Z" fill="#205988"/>
<path d="M117.577 84.9658L117.582 86.4365L103.457 93.9559L103.452 92.4852L117.577 84.9658Z" fill="#FFD06C"/>
<path d="M101.838 93.3447L101.842 94.8154L95.3256 98.2845L95.3211 96.8138L101.838 93.3447Z" fill="#205988"/>
<path d="M93.3055 101.597L93.3101 103.068L90.0227 104.818L90.0182 103.347L93.3055 101.597Z" fill="#205988"/>
<path d="M112.977 91.1252L112.982 92.596L95.337 101.989L95.3325 100.518L112.977 91.1252Z" fill="#205988"/>
<path d="M82.0841 75.7145C83.1073 75.1238 83.9286 75.5918 83.9318 76.7381C83.9351 77.8845 83.1192 79.2977 82.096 79.8884C81.0983 80.4644 80.2771 79.9964 80.2739 78.85C80.2706 77.7037 81.0865 76.2905 82.0841 75.7145Z" fill="#1A212B"/>
<path d="M87.4048 72.6426C88.428 72.0519 89.2236 72.5347 89.2269 73.681C89.2301 74.8273 88.4398 76.2258 87.4166 76.8165C86.419 77.3925 85.5978 76.9245 85.5945 75.7782C85.5913 74.6318 86.4072 73.2186 87.4048 72.6426Z" fill="#1A212B"/>
<path d="M92.7254 69.5708C93.7231 68.9949 94.5443 69.4629 94.5476 70.6092C94.5508 71.7555 93.7349 73.1687 92.7373 73.7447C91.7141 74.3355 90.9184 73.8527 90.9152 72.7063C90.9119 71.56 91.7022 70.1616 92.7254 69.5708Z" fill="#1A212B"/>
<path d="M117.052 55.5258C118.05 54.9498 118.871 55.4178 118.874 56.5642C118.877 57.7105 118.062 59.1237 117.064 59.6997L103.123 67.7486C102.125 68.3246 101.304 67.8566 101.301 66.7102C101.297 65.5639 102.113 64.1507 103.111 63.5747L117.052 55.5258Z" fill="#1A212B"/>
<path d="M117.577 76.0333L117.582 77.504L103.457 85.0234L103.452 83.5527L117.577 76.0333Z" fill="#DBA660"/>
<path d="M101.838 84.4122L101.842 85.8829L95.3256 89.352L95.3211 87.8813L101.838 84.4122Z" fill="#205988"/>
<path d="M112.977 82.1927L112.982 83.6635L95.337 93.0565L95.3325 91.5858L112.977 82.1927Z" fill="#205988"/>
<path d="M117.577 66.2014L117.582 67.6721L103.457 75.1915L103.452 73.7208L117.577 66.2014Z" fill="#78E75A"/>
<path d="M101.838 74.5803L101.842 76.051L95.3256 79.5201L95.3211 78.0494L101.838 74.5803Z" fill="#205988"/>
<path d="M112.977 72.3608L112.982 73.8315L95.337 83.2246L95.3325 81.7539L112.977 72.3608Z" fill="#205988"/>
<path d="M96.3851 30.7388C96.5501 30.6436 96.7144 30.6291 96.8312 30.7224C97.0455 30.8813 97.0254 31.3228 96.7699 31.716L94.5349 35.2297L96.7932 36.137C97.0393 36.2406 97.0725 36.6514 96.8599 37.0689C96.743 37.2961 96.5724 37.4683 96.4017 37.5669C96.2736 37.6408 96.1347 37.6719 96.017 37.6293L93.245 36.4904C93.1165 36.4295 93.0413 36.2887 93.0407 36.0924C93.0401 35.884 93.1143 35.6568 93.2421 35.4602L95.9986 31.1295C96.1098 30.9536 96.2477 30.8181 96.3851 30.7388Z" fill="#1D2943"/>
<path d="M101.215 25.7316C101.299 25.683 101.385 25.6541 101.467 25.6505C101.766 25.6374 101.896 25.9682 101.758 26.3917L97.8156 38.5686C97.7096 38.8878 97.4965 39.1459 97.2724 39.2753L97.0268 39.3557C96.7275 39.381 96.5982 39.0381 96.736 38.6269L100.678 26.4377C100.778 26.13 100.991 25.8608 101.215 25.7316Z" fill="#1D2943"/>
<path d="M102.085 27.4481C102.225 27.3674 102.365 27.3421 102.477 27.3892L105.249 28.5281C105.377 28.5768 105.453 28.7176 105.453 28.9261C105.454 29.1223 105.38 29.3494 105.252 29.5583L102.485 33.8952C102.378 34.0672 102.24 34.1963 102.101 34.2764C101.93 34.375 101.77 34.3938 101.652 34.3022C101.438 34.1312 101.469 33.6835 101.713 33.2964L103.948 29.7949L101.701 28.8692C101.455 28.7656 101.421 28.3549 101.634 27.9495C101.75 27.7218 101.917 27.545 102.085 27.4481Z" fill="#1D2943"/>
</svg>
