<svg width="125" height="121" viewBox="0 0 125 121" fill="none" xmlns="http://www.w3.org/2000/svg">
<path d="M86.4864 65.6964L7.36083 111.351L0.632743 107.45L0.463135 47.5474H0.491432C0.463135 45.9926 1.56568 44.0987 2.92254 43.3353L77.1293 0.479252C77.836 0.0834414 78.4297 0.0551446 78.8821 0.309643L85.5253 4.18251C85.5536 4.18251 85.5536 4.21081 85.5819 4.21081C86.0342 4.46514 86.3168 5.00226 86.3168 5.79388L86.4864 65.6964Z" fill="#1C2841"/>
<path d="M86.4799 65.7007L7.3738 111.351L7.34853 111.376V111.351L0.646928 107.457L0.469086 47.5562H0.494513C0.469086 46.0066 1.56141 44.1014 2.93329 43.3393L77.1364 0.483826C77.8224 0.0774393 78.432 0.0520124 78.8893 0.305983L85.5146 4.17368C85.54 4.17368 85.5654 4.1991 85.5909 4.22453C86.0481 4.45308 86.3275 5.01203 86.3275 5.79953L86.4799 65.7007Z" fill="#212B3B"/>
<path d="M64.5314 100.605V106.321C64.5314 108.302 63.236 110.258 60.6448 111.757L53.354 115.999C48.1463 119.022 39.6615 119.022 34.403 115.999L27.0614 111.757C24.4195 110.233 23.0985 108.251 23.1239 106.244V100.529C23.1239 102.536 24.4449 104.542 27.0868 106.066L64.5314 100.605Z" fill="#1A212B"/>
<path d="M60.5763 95.0794C65.8262 98.1104 65.8539 103.025 60.6381 106.056L53.3558 110.288C48.14 113.319 39.6558 113.319 34.4059 110.288L27.0759 106.056C21.8261 103.025 21.7984 98.111 27.0142 95.0799L34.2965 90.8479C39.5123 87.8168 47.9965 87.8164 53.2463 90.8474L60.5763 95.0794Z" fill="#327AB4"/>
<path d="M50.9422 80.5825L50.8957 102.554C50.8927 103.599 50.2063 104.643 48.8344 105.44C46.0689 107.047 41.5739 107.045 38.7929 105.44C37.3939 104.632 36.6949 103.572 36.6979 102.514L36.7445 80.5419C36.7415 81.6005 37.4404 82.6605 38.8395 83.4683C41.6204 85.0739 46.1155 85.0753 48.8809 83.4682C50.2528 82.671 50.9393 81.6276 50.9422 80.5825Z" fill="#4D5C75"/>
<path d="M48.8456 76.5329C51.6266 78.1385 51.6438 80.7422 48.8809 82.3478C46.1155 83.9549 41.6204 83.9534 38.8395 82.3478C36.0586 80.7423 36.0439 78.14 38.8093 76.533C41.5722 74.9274 46.0647 74.9273 48.8456 76.5329Z" fill="#2D2C2B"/>
<path d="M8.10491 120.69L1.37792 116.772C0.920843 116.518 0.666876 115.984 0.641449 115.197V107.449L7.36812 111.367L7.39355 119.115C7.39355 119.903 7.64752 120.436 8.10491 120.69Z" fill="#205988"/>
<path d="M86.4735 65.6887L86.4955 73.4423C86.4999 74.9986 85.406 76.8932 84.0516 77.6751L9.83772 120.523C8.48335 121.305 7.38583 120.675 7.38142 119.119L7.35944 111.365L86.4735 65.6887Z" fill="#205988"/>
<path d="M83.8612 4.38565C85.2156 3.60369 86.3166 4.2311 86.321 5.78741L86.4735 65.6887L7.35942 111.365L7.20692 51.4639C7.20251 49.9076 8.29288 48.015 9.64725 47.2331L83.8612 4.38565Z" fill="#1C2841"/>
<path d="M84.3825 64.1538L9.61381 107.326L9.47241 51.1804C9.47241 50.408 10.1523 49.2277 10.8268 48.8361L84.2356 6.453L84.3825 64.1538Z" fill="#101123"/>
<path d="M48.8064 92.8084C48.8064 94.6406 47.4975 96.8535 45.9035 97.8053C44.2853 98.7095 43.0006 97.9718 42.9767 96.1396C42.9767 94.3075 44.2853 92.0707 45.8797 91.1427C47.4975 90.2147 48.7826 90.9523 48.8064 92.8084Z" fill="#DBDCE0"/>
<path d="M15.1686 50.3007L15.1727 51.7556L12.0211 53.5752L12.017 52.1202L15.1686 50.3007Z" fill="#57B3FE"/>
<path d="M48.1097 38.6442L48.1139 40.1179L36.7844 46.659L36.7802 45.1852L48.1097 38.6442Z" fill="#57B3FE"/>
<path d="M49.9915 63.3723L49.9956 64.8272L37.6795 71.9379L37.6754 70.4831L49.9915 63.3723Z" fill="#4C5C75"/>
<path d="M40.5919 65.1086L40.5961 66.5824L35.6137 69.459L35.6095 67.9853L40.5919 65.1086Z" fill="#57B3FE"/>
<path d="M45.2679 58.7374L45.272 60.1923L38.6782 63.9992L38.6741 62.5444L45.2679 58.7374Z" fill="#57B3FE"/>
<path d="M38.2958 62.7627L38.3 64.2176L31.5911 68.091L31.5869 66.6361L38.2958 62.7627Z" fill="#57B3FE"/>
<path d="M40.5711 57.7585L40.5752 59.2135L37.155 61.1881L37.1509 59.7332L40.5711 57.7585Z" fill="#57B3FE"/>
<path d="M36.3945 60.1699L36.3986 61.6248L27.7823 66.5995L27.7781 65.1446L36.3945 60.1699Z" fill="#57B3FE"/>
<path d="M45.2366 47.684L45.2407 49.1388L38.6962 52.9173L38.692 51.4624L45.2366 47.684Z" fill="#57B3FE"/>
<path d="M51.7126 47.6355L30.6616 59.7893L30.6658 61.2442L51.7126 49.0928V47.6355Z" fill="#57B3FE"/>
<path d="M40.5398 46.7052L40.5439 48.1601L25.6626 56.7518L25.6584 55.2969L40.5398 46.7052Z" fill="#78E75A"/>
<path d="M40.5189 39.3551L40.5231 40.81L27.5821 48.2815L27.578 46.8266L40.5189 39.3551Z" fill="#FFD06C"/>
<path d="M40.5085 35.6707L40.5126 37.1256L29.808 43.3059L29.8038 41.851L40.5085 35.6707Z" fill="#57B3FE"/>
<path d="M35.7114 45.8024L35.7155 47.2761L23.2843 54.4533L23.2801 52.9795L35.7114 45.8024Z" fill="#57B3FE"/>
<path d="M28.7679 42.4491L28.772 43.904L21.4054 48.1571L21.4012 46.7022L28.7679 42.4491Z" fill="#57B3FE"/>
<path d="M29.708 60.3398L29.7122 61.7947L24.7955 64.6333L24.7914 63.1785L29.708 60.3398Z" fill="#F45170"/>
<path d="M25.0008 55.6766L25.0049 57.1315L17.2107 61.6315L17.2066 60.1766L25.0008 55.6766Z" fill="#57B3FE"/>
<path d="M22.0469 53.6915L22.0511 55.1653L17.2003 57.9659L17.1962 56.4921L22.0469 53.6915Z" fill="#57B3FE"/>
<path d="M26.3775 47.5197L26.3816 48.9745L17.1899 54.2814L17.1858 52.8265L26.3775 47.5197Z" fill="#57B3FE"/>
<path d="M20.5626 47.1864L20.5667 48.6413L17.1794 50.5969L17.1753 49.142L20.5626 47.1864Z" fill="#57B3FE"/>
<path d="M15.179 53.9851L15.1832 55.44L12.0316 57.2596L12.0274 55.8047L15.179 53.9851Z" fill="#F45170"/>
<path d="M15.1894 57.6508L15.1936 59.1245L12.042 60.9441L12.0378 59.4703L15.1894 57.6508Z" fill="#57B3FE"/>
<path d="M15.1999 61.3352L15.204 62.7901L12.0524 64.6097L12.0483 63.1548L15.1999 61.3352Z" fill="#57B3FE"/>
<path d="M15.2103 65.0197L15.2144 66.4745L12.0628 68.2941L12.0587 66.8392L15.2103 65.0197Z" fill="#57B3FE"/>
<path d="M37.2807 70.7109L37.2849 72.1658L30.0169 76.362L30.0128 74.9071L37.2807 70.7109Z" fill="#57B3FE"/>
<path d="M34.8531 68.422L34.8573 69.8958L27.392 74.2059L27.3878 72.7321L34.8531 68.422Z" fill="#57B3FE"/>
<path d="M30.6662 67.1677L30.6703 68.6226L23.7311 72.6289L23.727 71.1741L30.6662 67.1677Z" fill="#DBA660"/>
<path d="M24.2816 63.4728L24.2858 64.9277L17.2316 69.0004L17.2275 67.5455L24.2816 63.4728Z" fill="#57B3FE"/>
<path d="M21.4923 61.3927L21.4964 62.8476L17.2212 65.3159L17.217 63.861L21.4923 61.3927Z" fill="#57B3FE"/>
<path d="M27.3461 58.0131L27.3502 59.4679L22.8119 62.0881L22.8078 60.6332L27.3461 58.0131Z" fill="#57B3FE"/>
<path d="M38.0673 51.8232L38.0714 53.2781L27.8764 59.1642L27.8723 57.7093L38.0673 51.8232Z" fill="#57B3FE"/>
<path d="M15.2208 68.7041L15.2249 70.159L12.0733 71.9786L12.0692 70.5237L15.2208 68.7041Z" fill="#57B3FE"/>
<path d="M15.2312 72.3885L15.2353 73.8435L12.0837 75.663L12.0796 74.2081L15.2312 72.3885Z" fill="#57B3FE"/>
<path d="M29.3386 75.2963L29.3427 76.7511L22.6667 80.6055L22.6626 79.1507L29.3386 75.2963Z" fill="#57B3FE"/>
<path d="M26.6972 73.1307L26.7014 74.6045L20.0254 78.4589L20.0212 76.9851L26.6972 73.1307Z" fill="#57B3FE"/>
<path d="M22.6583 71.7911L22.6624 73.246L17.2525 76.3694L17.2484 74.9145L22.6583 71.7911Z" fill="#57B3FE"/>
<path d="M20.4937 69.3502L20.4978 70.8051L17.2421 72.6848L17.2379 71.2299L20.4937 69.3502Z" fill="#57B3FE"/>
<path d="M27.071 65.5529L27.0751 67.0078L21.3035 70.34L21.2994 68.8851L27.071 65.5529Z" fill="#57B3FE"/>
<path d="M15.2417 76.073L15.2458 77.5279L12.0942 79.3475L12.0901 77.8926L15.2417 76.073Z" fill="#DBA660"/>
<path d="M15.2521 79.7386L15.2562 81.2124L12.1046 83.032L12.1005 81.5582L15.2521 79.7386Z" fill="#57B3FE"/>
<path d="M19.2977 77.4028L19.3019 78.8766L17.263 80.0538L17.2588 78.58L19.2977 77.4028Z" fill="#57B3FE"/>
<path d="M15.2625 83.4231L15.2666 84.878L12.115 86.6976L12.1109 85.2427L15.2625 83.4231Z" fill="#57B3FE"/>
<path d="M21.6924 79.7108L21.6966 81.1657L17.2734 83.7194L17.2692 82.2646L21.6924 79.7108Z" fill="#57B3FE"/>
<path d="M15.2625 86.9368L15.2666 88.3917L12.115 90.2113L12.1109 88.7563L15.2625 86.9368Z" fill="#57B3FE"/>
<path d="M40.6024 72.3068L40.6065 73.7617L29.9018 79.942L29.8977 78.4871L40.6024 72.3068Z" fill="#57B3FE"/>
<path d="M28.8618 79.0852L28.8659 80.5401L21.4993 84.7932L21.4951 83.3383L28.8618 79.0852Z" fill="#57B3FE"/>
<path d="M20.6565 83.8225L20.6606 85.2774L17.2734 87.233L17.2692 85.7781L20.6565 83.8225Z" fill="#57B3FE"/>
<path d="M70.3422 62.8498C71.2415 62.3305 71.9732 62.7614 71.9761 63.7809C71.9776 64.3115 71.7966 64.8777 71.5058 65.3812C71.2151 65.8988 70.8025 66.3468 70.3528 66.6065L23.5128 93.6496L39.5799 84.3732C40.0296 84.1136 40.43 83.6726 40.7329 83.148C41.0236 82.6444 41.2046 82.0783 41.2031 81.5476C41.2002 80.5281 40.4564 80.1043 39.5692 80.6165L70.3422 62.8498Z" fill="#1A212B"/>
<path d="M39.5692 80.6166C40.4564 80.1043 41.2002 80.5282 41.2031 81.5477C41.2046 82.0784 41.0236 82.6445 40.7329 83.148C40.43 83.6726 40.0295 84.1137 39.5799 84.3733L23.5128 93.6496C22.6134 94.1689 21.8818 93.7519 21.8789 92.7045C21.8774 92.2018 22.0584 91.6217 22.337 91.1252C22.6398 90.6006 23.0524 90.1525 23.5021 89.8929L39.5692 80.6166Z" fill="#F45170"/>
<path d="M68.6817 30.8452L70.4805 30.0934L70.4866 32.234L68.6894 33.5584C68.5307 34.9963 68.0794 36.5035 67.3892 37.9616L68.4771 39.0039L67.1708 41.279L65.7159 40.8599C64.7975 42.163 63.7158 43.3235 62.5467 44.198L62.3034 46.4078L60.4405 47.4834L60.1855 45.5612C59.0044 46.0437 57.9306 46.1276 57.0078 45.8875L55.56 47.9824L54.2451 47.2208L55.3235 44.9277C54.649 44.2575 54.1797 43.2943 54.0135 42.0564L52.2038 42.7896L52.1978 40.6489L54.0056 39.2935C54.1752 37.8617 54.6374 36.3608 55.2951 34.9214L54.2073 33.879L55.5136 31.6164L56.9685 32.0231C57.8761 30.7262 58.9577 29.5781 60.116 28.7099L60.3809 26.4751L62.2438 25.3996L62.5206 27.3217C63.68 26.8517 64.7538 26.7678 65.6765 26.9955L67.1244 24.913L68.4392 25.6622L67.3608 27.9553C68.0353 28.6255 68.5154 29.5949 68.6817 30.8452ZM61.3475 42.1354C64.0877 40.5533 66.3008 36.7201 66.2919 33.5713C66.283 30.435 64.0555 29.178 61.3152 30.7601C58.5749 32.3422 56.3835 36.1505 56.3924 39.2868C56.4013 42.4355 58.6072 43.7175 61.3475 42.1354Z" fill="#57B3FE"/>
<path d="M69.8141 47.5815L71.1143 47.0302L71.1187 48.5859L69.8196 49.5479C69.7032 50.5875 69.3701 51.6774 68.874 52.7367L69.6681 53.4874L68.718 55.1329L67.6649 54.8309C67.0058 55.7724 66.2162 56.6148 65.3718 57.2518L65.1919 58.8517L63.8489 59.627L63.6605 58.2398C62.8044 58.5845 62.0235 58.6489 61.3612 58.4704L60.3132 59.9855L59.357 59.4405L60.1442 57.7768C59.6438 57.2928 59.3163 56.5968 59.1944 55.6948L57.8833 56.2274L57.8788 54.6717L59.1888 53.7035C59.316 52.6577 59.6385 51.574 60.1236 50.5335L59.3296 49.7827L60.2796 48.1372L61.3327 48.4267C61.9811 47.4915 62.7707 46.674 63.615 46.0245L63.8058 44.4185L65.1488 43.6431L65.348 45.024C66.1933 44.698 66.9741 44.6212 67.6364 44.7873L68.6845 43.2847L69.6407 43.8296L68.8535 45.4933C69.343 45.9711 69.6922 46.6795 69.8141 47.5815ZM64.5105 55.7546C66.4817 54.6165 68.0903 51.8303 68.0839 49.5528C68.0774 47.2877 66.4584 46.3775 64.4872 47.5156C62.4942 48.6662 60.9073 51.4273 60.9137 53.6924C60.9202 55.97 62.5176 56.9052 64.5105 55.7546Z" fill="#DBA660"/>
<path d="M61.3318 32.77C63.0864 31.757 64.5208 32.5869 64.5265 34.603C64.5322 36.6192 63.1072 39.0875 61.3526 40.1005C59.5871 41.1198 58.1636 40.2962 58.1579 38.28C58.1522 36.2638 59.5664 33.7893 61.3318 32.77Z" fill="#57B3FE"/>
<path d="M75.0289 34.9344C76.2962 34.2027 77.3394 34.7972 77.3435 36.2533C77.3477 37.7219 76.3113 39.517 75.044 40.2487C73.7551 40.9928 72.7228 40.3921 72.7187 38.9235C72.7145 37.4673 73.7401 35.6785 75.0289 34.9344Z" fill="#F45170"/>
<path d="M80.3517 33.5318L81.652 32.993L81.6564 34.5487L80.3573 35.5107C80.2409 36.5502 79.9077 37.6402 79.4116 38.687L80.2058 39.4501L79.2557 41.0957L78.1917 40.8C77.5326 41.7415 76.7539 42.5775 75.9095 43.2146L75.7296 44.8019L74.3757 45.5836L74.1874 44.2089C73.3421 44.5473 72.5612 44.6117 71.8989 44.4331L70.8509 45.9482L69.8946 45.4033L70.671 43.7334C70.1815 43.2556 69.8541 42.5595 69.7214 41.6638L68.421 42.1902L68.4166 40.6345L69.7157 39.6601C69.8429 38.6143 70.1761 37.5368 70.6505 36.5025L69.8672 35.733L70.8173 34.0999L71.8705 34.3895C72.5187 33.4542 73.3083 32.6244 74.1527 31.9873L74.3326 30.375L75.6864 29.5934L75.8857 30.9867C76.7309 30.6483 77.501 30.5901 78.1633 30.7563L79.2221 29.2474L80.1784 29.7799L79.3911 31.4561C79.8807 31.9338 80.2298 32.6298 80.3517 33.5318ZM75.0373 41.7111C77.0194 40.5668 78.628 37.7931 78.6215 35.5156C78.6151 33.238 76.996 32.3278 75.014 33.4721C73.0319 34.6164 71.445 37.3776 71.4515 39.6552C71.4579 41.9327 73.0553 42.8555 75.0373 41.7111Z" fill="#F45170"/>
<path d="M66.1189 52.5212C67.0201 50.9683 67.0217 49.2863 66.1223 48.7644C65.223 48.2424 63.7634 49.0782 62.8622 50.6311C61.961 52.184 61.9594 53.866 62.8588 54.3879C63.7581 54.9098 65.2177 54.074 66.1189 52.5212Z" fill="#DBA660"/>
<path d="M124.537 90.6578C124.537 92.552 123.18 94.9265 121.512 95.8877L79.9845 119.86C79.1082 120.369 78.3167 120.397 77.7796 120.03C77.723 120.001 77.6947 119.973 77.6664 119.945L75.0657 118.475C74.5286 118.136 74.1893 117.457 74.1893 116.524L74.048 72.9331L121.653 45.4553L124.396 47.0667L124.537 90.6578Z" fill="#57B3FE"/>
<path d="M77.834 120.059L75.0666 118.467C74.5277 118.149 74.1848 117.463 74.1848 116.533L74.0378 72.939L76.8053 74.5309L76.9279 118.125C76.9279 119.08 77.2706 119.741 77.834 120.059Z" fill="#57B3FE"/>
<path d="M76.8116 74.5377L74.0499 72.9328L121.648 45.4523L124.409 47.0572L76.8116 74.5377Z" fill="#57B3FE"/>
<path d="M124.409 47.0573L124.533 90.6466C124.538 92.5512 123.182 94.9177 121.509 95.8837L79.9786 119.861C78.3211 120.818 76.9406 120.032 76.9352 118.127L76.8116 74.5378L124.409 47.0573Z" fill="#205988"/>
<path d="M79.0921 75.8489L122.146 50.9927L122.258 90.6528C122.261 91.8453 121.419 93.3087 120.387 93.9049L82.2103 115.944C80.8854 116.709 79.2287 115.757 79.2234 114.227L79.0921 75.8489Z" fill="#101123"/>
<path d="M124.396 42.9112V47.0667L76.8186 74.5445L74.0482 72.9331V68.7775C74.0199 66.8552 75.3768 64.5088 77.0731 63.5477L118.601 39.5755C119.449 39.0948 120.212 39.0383 120.749 39.3493L123.406 40.904C124 41.1867 124.396 41.8934 124.396 42.9112Z" fill="#AA6256"/>
<path d="M120.75 39.3574C120.198 39.0368 119.434 39.0813 118.592 39.5675L77.0775 63.5361C75.3887 64.511 74.0328 66.8597 74.0383 68.7823L74.0499 72.9327L76.8117 74.5377L76.8001 70.3872C76.7945 68.4646 78.1505 66.116 79.8393 65.1411L121.354 41.1724C122.196 40.6863 122.96 40.6418 123.512 40.9624L120.75 39.3574Z" fill="#AA6256"/>
<path d="M121.354 41.1724C123.027 40.2064 124.392 40.9842 124.397 42.9067L124.409 47.0572L76.8116 74.5378L76.7999 70.3872C76.7944 68.4647 78.1503 66.1161 79.8391 65.1411L121.354 41.1724Z" fill="#DBA660"/>
<path d="M98.7926 67.1533L98.7966 68.563L95.7431 70.3259L95.7391 68.9163L98.7926 67.1533Z" fill="#57B3FE"/>
<path d="M119.358 76.7156L119.362 78.1252L111.014 82.9451L111.01 81.5354L119.358 76.7156Z" fill="#57B3FE"/>
<path d="M120.6 65.2712L108.956 71.994L108.96 73.4038L120.6 66.6833V65.2712Z" fill="#78E75A"/>
<path d="M118.696 62.795L118.7 64.223L106.656 71.1768L106.652 69.7489L118.696 62.795Z" fill="#57B3FE"/>
<path d="M111.969 59.5461L111.973 60.9558L104.835 65.0765L104.831 63.6669L111.969 59.5461Z" fill="#57B3FE"/>
<path d="M112.88 76.8802L112.884 78.2899L108.12 81.0401L108.116 79.6305L112.88 76.8802Z" fill="#F45170"/>
<path d="M108.319 72.3621L108.323 73.7717L100.771 78.1316L100.767 76.722L108.319 72.3621Z" fill="#57B3FE"/>
<path d="M105.457 70.4387L105.461 71.8666L100.761 74.5801L100.757 73.1521L105.457 70.4387Z" fill="#57B3FE"/>
<path d="M109.653 64.4589L109.657 65.8685L100.751 71.0102L100.747 69.6006L109.653 64.4589Z" fill="#57B3FE"/>
<path d="M104.019 64.1361L104.023 65.5457L100.741 67.4405L100.737 66.0309L104.019 64.1361Z" fill="#57B3FE"/>
<path d="M98.8028 70.7231L98.8068 72.1328L95.7532 73.8957L95.7492 72.4861L98.8028 70.7231Z" fill="#F45170"/>
<path d="M98.8128 74.2747L98.8169 75.7026L95.7633 77.4655L95.7593 76.0376L98.8128 74.2747Z" fill="#57B3FE"/>
<path d="M98.8229 77.8445L98.8269 79.2541L95.7734 81.0171L95.7694 79.6074L98.8229 77.8445Z" fill="#57B3FE"/>
<path d="M98.8331 81.4143L98.8371 82.8239L95.7835 84.5869L95.7795 83.1773L98.8331 81.4143Z" fill="#57B3FE"/>
<path d="M120.217 86.9285L120.221 88.3381L115.436 91.1003L115.432 89.6907L120.217 86.9285Z" fill="#57B3FE"/>
<path d="M117.865 84.7107L117.869 86.1386L110.636 90.3146L110.632 88.8867L117.865 84.7107Z" fill="#57B3FE"/>
<path d="M113.808 83.4955L113.812 84.9051L107.089 88.7868L107.085 87.3772L113.808 83.4955Z" fill="#DBA660"/>
<path d="M107.622 79.9156L107.626 81.3253L100.791 85.2712L100.787 83.8616L107.622 79.9156Z" fill="#57B3FE"/>
<path d="M104.92 77.9003L104.924 79.3099L100.781 81.7014L100.777 80.2918L104.92 77.9003Z" fill="#57B3FE"/>
<path d="M110.591 74.6257L110.595 76.0353L106.198 78.574L106.194 77.1644L110.591 74.6257Z" fill="#57B3FE"/>
<path d="M98.8432 84.9841L98.8472 86.3937L95.7936 88.1567L95.7896 86.7471L98.8432 84.9841Z" fill="#57B3FE"/>
<path d="M98.8533 88.554L98.8573 89.9636L95.8038 91.7265L95.7998 90.3169L98.8533 88.554Z" fill="#57B3FE"/>
<path d="M114.779 90.0679L114.783 91.4775L106.057 96.5152L106.053 95.1056L114.779 90.0679Z" fill="#57B3FE"/>
<path d="M109.962 89.2731L109.967 90.701L103.498 94.4354L103.494 93.0075L109.962 89.2731Z" fill="#57B3FE"/>
<path d="M106.049 87.975L106.053 89.3846L100.812 92.4108L100.808 91.0012L106.049 87.975Z" fill="#57B3FE"/>
<path d="M103.952 85.6102L103.956 87.0199L100.802 88.8411L100.798 87.4315L103.952 85.6102Z" fill="#57B3FE"/>
<path d="M110.325 81.9309L110.329 83.3406L104.737 86.5691L104.733 85.1595L110.325 81.9309Z" fill="#57B3FE"/>
<path d="M98.8634 92.1238L98.8674 93.5334L95.8139 95.2963L95.8099 93.8867L98.8634 92.1238Z" fill="#DBA660"/>
<path d="M98.8735 95.6753L98.8776 97.1032L95.824 98.8662L95.82 97.4382L98.8735 95.6753Z" fill="#57B3FE"/>
<path d="M102.793 93.4122L102.797 94.8401L100.822 95.9807L100.818 94.5528L102.793 93.4122Z" fill="#57B3FE"/>
<path d="M98.8836 99.2451L98.8876 100.655L95.8341 102.418L95.8301 101.008L98.8836 99.2451Z" fill="#57B3FE"/>
<path d="M105.113 95.6483L105.117 97.0579L100.832 99.5322L100.828 98.1226L105.113 95.6483Z" fill="#57B3FE"/>
<path d="M98.8836 102.649L98.8876 104.059L95.8341 105.822L95.8301 104.412L98.8836 102.649Z" fill="#57B3FE"/>
<path d="M112.06 95.0422L112.064 96.4519L104.926 100.573L104.922 99.163L112.06 95.0422Z" fill="#57B3FE"/>
<path d="M104.11 99.6322L104.114 101.042L100.832 102.937L100.828 101.527L104.11 99.6322Z" fill="#57B3FE"/>
<path d="M84.6551 95.2503C84.7423 95.3058 84.7978 95.401 84.7978 95.5437C84.7978 95.6864 84.7502 95.837 84.6551 95.9956C84.5678 96.1542 84.4569 96.2732 84.33 96.3445L84.1952 96.4238C83.6878 96.7172 83.2834 96.8361 82.99 96.7647C82.7046 96.6933 82.546 96.3524 82.546 95.7419L82.5381 93.0144C82.5381 92.84 82.5223 92.7131 82.4905 92.618C82.4588 92.5308 82.3716 92.4832 82.2368 92.4673C82.0941 92.4436 81.8721 92.4912 81.5629 92.6101C81.4202 92.6656 81.3091 92.6656 81.2378 92.5942C81.1585 92.5308 81.1189 92.4277 81.1189 92.2691C81.1189 92.1106 81.1585 91.952 81.2299 91.8093C81.3012 91.6587 81.4122 91.5238 81.5629 91.4129C81.8642 91.1829 82.0861 90.9689 82.2289 90.7865C82.3637 90.6121 82.4509 90.4614 82.4826 90.3425C82.5143 90.2077 82.5301 90.057 82.5301 89.8905L82.5223 87.1552C82.5223 86.5446 82.6729 86.0293 82.9583 85.6249C83.2437 85.2285 83.6481 84.8717 84.1635 84.5783L84.2983 84.499C84.4251 84.4277 84.5361 84.4198 84.6233 84.4753C84.7185 84.5308 84.766 84.6259 84.766 84.7686C84.766 84.9034 84.7185 85.062 84.6233 85.2206C84.5361 85.3791 84.4251 85.4981 84.3062 85.5694L84.1318 85.6646C83.8067 85.8548 83.6878 85.9896 83.6402 86.0768C83.5767 86.2037 83.5371 86.3306 83.5371 86.4733L83.545 89.3434C83.553 90.0412 83.2517 90.731 82.665 91.3811C83.2517 91.3415 83.553 91.6824 83.553 92.3881L83.5609 95.2583C83.5688 95.393 83.6005 95.4803 83.664 95.5357C83.7116 95.5675 83.8305 95.5675 84.1635 95.3772L84.33 95.2821C84.4489 95.2107 84.5599 95.1948 84.6551 95.2503Z" fill="#4C5C75"/>
<path d="M93.9078 84.8875C93.9078 85.0381 93.8761 85.1888 93.7968 85.3394C93.7255 85.4901 93.6145 85.617 93.4718 85.7359C93.1705 85.9658 92.9405 86.1799 92.7978 86.3623C92.663 86.5367 92.5837 86.6873 92.5441 86.8142C92.5124 86.941 92.4965 87.0917 92.4965 87.2661L92.5044 89.9936C92.5044 90.6041 92.3617 91.1195 92.0684 91.5238C91.7829 91.9282 91.3786 92.277 90.8632 92.5704L90.7284 92.6497C90.6016 92.721 90.4985 92.729 90.4034 92.6735C90.3082 92.6259 90.2685 92.5308 90.2685 92.3801C90.2606 92.2453 90.3082 92.0867 90.4034 91.9361C90.4985 91.7696 90.6016 91.6586 90.7284 91.5872L90.8949 91.4921C91.2279 91.3018 91.3469 91.1591 91.3865 91.0798C91.4578 90.945 91.4896 90.8182 91.4896 90.6834L91.4816 87.8132C91.4737 87.1076 91.7829 86.4257 92.3697 85.7755C91.775 85.8072 91.4737 85.4663 91.4737 84.7686L91.4658 81.8984C91.4578 81.7557 91.4341 81.6684 91.3627 81.6209C91.3231 81.5812 91.1962 81.5812 90.8711 81.7715L90.7046 81.8746C90.5778 81.946 90.4668 81.9539 90.3716 81.9063C90.2765 81.8508 90.2368 81.7478 90.2368 81.6129C90.2368 81.4623 90.2765 81.3196 90.3716 81.1531C90.4668 80.9945 90.5698 80.8835 90.6967 80.8042L90.8315 80.7329C91.3469 80.4316 91.7512 80.3127 92.0367 80.384C92.33 80.4554 92.4807 80.7963 92.4807 81.4068L92.4886 84.1343C92.4886 84.3087 92.5124 84.4435 92.5362 84.5307C92.5758 84.6179 92.663 84.6655 92.7899 84.6893C92.9326 84.7051 93.1625 84.6576 93.4638 84.5386C93.6145 84.4831 93.7176 84.4911 93.7968 84.5545C93.8761 84.6179 93.9078 84.729 93.9078 84.8875Z" fill="#4C5C75"/>
<path d="M89.3806 81.6843C89.4757 81.7478 89.5312 81.8587 89.5312 82.0253C89.5312 82.0887 89.5233 82.168 89.4995 82.2631L86.5421 94.0055C86.5104 94.1403 86.4549 94.2672 86.3677 94.4019C86.2725 94.5368 86.1694 94.6398 86.0426 94.7112C85.884 94.7984 85.7571 94.8142 85.6541 94.7508C85.5589 94.6874 85.5114 94.5764 85.5114 94.4099C85.5114 94.3464 85.5193 94.2672 85.5431 94.1641L88.5005 82.4296C88.5242 82.2949 88.5877 82.16 88.6749 82.0332C88.7621 81.9063 88.8731 81.7953 89 81.724C89.1506 81.6368 89.2775 81.6209 89.3806 81.6843Z" fill="#4C5C75"/>
</svg>
