<svg width="148" height="148" viewBox="0 0 148 148" fill="none" xmlns="http://www.w3.org/2000/svg">
<path d="M139.99 97.0921L101.252 74.5802L35.1649 112.736L35.1789 112.744L35.1614 112.746L35.1379 119.219L73.8748 141.727C75.2154 142.503 77.4027 142.503 78.7667 141.727L139.941 106.401C140.623 106.001 140.976 105.483 140.976 104.966V98.5498C141 98.0231 140.681 97.4938 139.99 97.0921Z" fill="#205988"/>
<path d="M50.6009 103.56C50.6009 103.851 50.498 104.061 50.328 104.159L43.7048 108.008C43.8749 107.909 43.0877 107.863 43.0877 107.568C43.0921 106.968 43.2333 106.62 42.7142 106.32C42.4546 106.168 42.5412 105.614 42.3712 105.712L48.9944 101.864C49.1644 101.765 49.4016 101.778 49.6612 101.931C50.1803 102.23 50.6054 102.96 50.6009 103.56Z" fill="#57B3FE"/>
<path d="M43.0388 105.779C43.5588 106.079 43.9803 106.809 43.9786 107.407C43.9769 108.001 43.5527 108.243 43.0327 107.942C42.5127 107.642 42.094 106.914 42.0957 106.32C42.0974 105.722 42.5188 105.479 43.0388 105.779Z" fill="#1B2B4C"/>
<path d="M93.4189 78.676C93.4189 78.967 93.316 79.1773 93.146 79.2757L86.5228 83.1243C86.6928 83.0258 86.2123 82.8038 86.2123 82.5085C86.2168 81.9087 85.9672 81.7334 85.4481 81.4336C85.1885 81.2814 85.3592 80.7301 85.1892 80.8286L91.8124 76.98C91.9824 76.8815 92.2196 76.8949 92.4792 77.0471C92.9982 77.3469 93.4234 78.0764 93.4189 78.676Z" fill="#57B3FE"/>
<path d="M85.8568 80.8953C86.3768 81.1955 86.7983 81.9256 86.7966 82.5231C86.7949 83.1173 86.3706 83.3591 85.8506 83.0589C85.3306 82.7586 84.912 82.0302 84.9137 81.436C84.9154 80.8385 85.3367 80.595 85.8568 80.8953Z" fill="#1B2B4C"/>
<path d="M100.404 25.7528C99.9628 25.492 100.87 26.6014 100.188 27.0027L35.1606 110.28L30.0329 107.298L29.9024 62.4909C29.9024 60.9358 30.986 59.0496 32.3404 58.267L93.5309 22.9414C94.2131 22.5501 94.8351 22.5099 95.2766 22.7707L100.404 25.7528Z" fill="#1B2B4C"/>
<path d="M101.243 72.1218L35.1566 110.277L35.0292 65.4729C35.0247 63.9199 36.1166 62.0302 37.468 61.2491L98.6621 25.9194C100.013 25.1384 101.113 25.7647 101.116 27.3177L101.243 72.1218Z" fill="#57B3FE"/>
<path d="M140.976 98.5166V104.966C140.976 105.483 140.623 106.001 139.941 106.401L78.7668 141.727C77.4027 142.503 75.2153 142.503 73.8748 141.727L35.1379 119.219L35.1615 112.746C35.1615 112.746 140.976 99.0341 140.976 98.5166Z" fill="#205988"/>
<path d="M35.1649 112.735L73.9027 135.247C75.2455 136.028 77.4291 136.028 78.7807 135.247L139.967 99.9212C141.325 99.1372 141.332 97.8724 139.99 97.092L101.252 74.5801L35.1649 112.735Z" fill="#1A212B"/>
<path d="M85.4852 116.174L94.1628 121.185C94.8976 121.609 95.8029 121.608 96.5364 121.181L115.326 110.278C115.6 110.119 115.777 109.876 115.859 109.609C115.776 109.342 115.599 109.099 115.323 108.94L106.646 103.929C105.911 103.505 105.004 103.506 104.271 103.933L85.4826 114.836C85.2083 114.995 85.0321 115.237 84.9492 115.504C85.0324 115.772 85.2095 116.015 85.4852 116.174Z" fill="#205988"/>
<path d="M86.2663 102.413C86.1112 102.503 86.1104 102.647 86.2645 102.737L89.2582 104.477C89.4119 104.566 89.6615 104.566 89.8166 104.476L92.8299 102.737C92.9846 102.647 92.9854 102.503 92.8317 102.413L89.8381 100.674C89.6839 100.584 89.4343 100.584 89.2796 100.673L86.2663 102.413Z" fill="#57B3FE"/>
<path d="M66.5421 119.372C66.3874 119.461 66.3865 119.606 66.5402 119.695L69.5339 121.435C69.6876 121.524 69.9377 121.524 70.0924 121.435L73.1056 119.695C73.2603 119.606 73.2611 119.461 73.1074 119.372L70.1138 117.632C69.9601 117.542 69.71 117.543 69.5553 117.632L66.5421 119.372Z" fill="#57B3FE"/>
<path d="M71.4485 116.539C71.2938 116.628 71.293 116.773 71.4467 116.862L74.4404 118.602C74.594 118.691 74.8441 118.692 74.9988 118.602L78.012 116.863C78.1672 116.773 78.1676 116.628 78.0139 116.539L75.0202 114.799C74.8665 114.71 74.6169 114.71 74.4618 114.799L71.4485 116.539Z" fill="#57B3FE"/>
<path d="M76.3554 113.706C76.2007 113.795 76.1998 113.94 76.3535 114.029L79.3472 115.769C79.5009 115.858 79.751 115.859 79.9057 115.769L107.452 99.8654C107.607 99.7761 107.607 99.631 107.454 99.5417L104.46 97.802C104.306 97.7127 104.056 97.7129 103.902 97.8022L76.3554 113.706Z" fill="#57B3FE"/>
<path d="M81.3599 105.246C81.2048 105.335 81.204 105.48 81.3581 105.57L84.3518 107.309C84.5055 107.399 84.7551 107.399 84.9102 107.309L87.9235 105.569C88.0782 105.48 88.079 105.335 87.9253 105.246L84.9316 103.506C84.7775 103.417 84.5279 103.417 84.3732 103.506L81.3599 105.246Z" fill="#57B3FE"/>
<path d="M76.4535 108.079C76.2984 108.168 76.2975 108.313 76.4517 108.402L79.4453 110.142C79.599 110.231 79.8487 110.231 80.0038 110.142L83.017 108.402C83.1717 108.313 83.1726 108.168 83.0189 108.079L80.0252 106.339C79.8711 106.25 79.6215 106.25 79.4667 106.339L76.4535 108.079Z" fill="#57B3FE"/>
<path d="M71.6452 105.285C71.4905 105.374 71.4897 105.519 71.6434 105.608L74.637 107.348C74.7907 107.437 75.0408 107.437 75.1955 107.348L78.2092 105.608C78.3639 105.519 78.3643 105.374 78.2106 105.285L75.2169 103.545C75.0632 103.456 74.8136 103.456 74.6589 103.545L71.6452 105.285Z" fill="#57B3FE"/>
<path d="M66.7388 108.117C66.5841 108.207 66.5832 108.351 66.7369 108.441L69.7306 110.18C69.8843 110.27 70.1343 110.27 70.289 110.181L73.3027 108.441C73.4574 108.351 73.4578 108.207 73.3041 108.117L70.3105 106.378C70.1568 106.288 69.9071 106.288 69.7524 106.378L66.7388 108.117Z" fill="#57B3FE"/>
<path d="M52.1167 110.989C51.962 111.078 51.9612 111.223 52.1153 111.312L55.109 113.052C55.2627 113.141 55.5123 113.141 55.667 113.052L58.6803 111.312C58.835 111.223 58.8362 111.078 58.6825 110.989L55.6888 109.249C55.5347 109.159 55.2847 109.16 55.13 109.249L52.1167 110.989Z" fill="#57B3FE"/>
<path d="M56.9255 113.783C56.7708 113.873 56.7699 114.017 56.9236 114.106L59.9173 115.846C60.071 115.935 60.3211 115.936 60.4757 115.846L68.3954 111.274C68.5506 111.184 68.551 111.04 68.3973 110.95L65.4036 109.211C65.2499 109.121 65.0003 109.121 64.8451 109.211L56.9255 113.783Z" fill="#57B3FE"/>
<path d="M61.7333 116.577C61.5786 116.667 61.5778 116.811 61.7319 116.901L64.7256 118.64C64.8793 118.73 65.1289 118.73 65.2836 118.64L78.1106 111.235C78.2653 111.145 78.2661 111.001 78.1124 110.912L75.1187 109.172C74.9646 109.082 74.715 109.082 74.5603 109.172L61.7333 116.577Z" fill="#57B3FE"/>
<path d="M57.0231 108.156C56.8685 108.245 56.8676 108.39 57.0218 108.479L60.0154 110.219C60.1691 110.309 60.4188 110.309 60.5734 110.219L63.5867 108.479C63.7418 108.39 63.7427 108.245 63.589 108.156L60.5953 106.416C60.4412 106.327 60.1915 106.327 60.0364 106.416L57.0231 108.156Z" fill="#57B3FE"/>
<path d="M61.93 105.323C61.7753 105.412 61.7745 105.557 61.9286 105.646L64.9223 107.386C65.076 107.476 65.3256 107.476 65.4803 107.386L68.494 105.646C68.6487 105.557 68.6495 105.412 68.4958 105.323L65.5021 103.583C65.348 103.494 65.0984 103.494 64.9437 103.583L61.93 105.323Z" fill="#57B3FE"/>
<path d="M66.8364 102.49C66.6818 102.58 66.6809 102.724 66.835 102.814L69.8287 104.553C69.9824 104.643 70.232 104.643 70.3867 104.553L73.4004 102.814C73.5551 102.724 73.5559 102.58 73.4022 102.49L70.4086 100.751C70.2545 100.661 70.0048 100.661 69.8501 100.75L66.8364 102.49Z" fill="#57B3FE"/>
<path d="M76.552 102.452C76.3969 102.541 76.3961 102.686 76.5498 102.775L79.5435 104.515C79.6971 104.604 79.9472 104.605 80.1023 104.515L83.1156 102.775C83.2703 102.686 83.2707 102.541 83.117 102.452L80.1233 100.712C79.9696 100.623 79.72 100.623 79.5653 100.712L76.552 102.452Z" fill="#57B3FE"/>
<path d="M71.7433 99.6572C71.5882 99.7468 71.5873 99.8914 71.7415 99.981L74.7351 101.721C74.8888 101.81 75.1385 101.81 75.2936 101.72L78.3068 99.9808C78.4615 99.8914 78.4624 99.7468 78.3087 99.6575L75.315 97.9178C75.1609 97.8282 74.9112 97.8282 74.7565 97.9175L71.7433 99.6572Z" fill="#57B3FE"/>
<path d="M96.0796 96.7475C95.9249 96.8368 95.9241 96.9814 96.0782 97.0709L99.0719 98.8107C99.2256 98.9 99.4752 98.9 99.6299 98.8107L102.643 97.071C102.798 96.9816 102.799 96.8368 102.645 96.7475L99.6518 95.0078C99.4976 94.9182 99.2476 94.9184 99.0929 95.0078L96.0796 96.7475Z" fill="#57B3FE"/>
<path d="M91.1732 99.5802C91.0185 99.6695 91.0173 99.8144 91.1714 99.9039L94.1651 101.644C94.3188 101.733 94.5688 101.733 94.7235 101.643L97.7368 99.9037C97.8915 99.8144 97.8927 99.6696 97.739 99.5803L94.7453 97.8405C94.5912 97.751 94.3412 97.7512 94.1865 97.8405L91.1732 99.5802Z" fill="#57B3FE"/>
<path d="M86.463 91.1588C86.3083 91.2481 86.3075 91.3927 86.4616 91.4823L89.4553 93.222C89.609 93.3114 89.8586 93.3114 90.0133 93.222L93.0266 91.4823C93.1813 91.393 93.1825 91.2482 93.0288 91.1589L90.0351 89.4191C89.881 89.3296 89.631 89.3298 89.4763 89.4191L86.463 91.1588Z" fill="#57B3FE"/>
<path d="M91.2717 93.9534C91.117 94.0427 91.1162 94.1873 91.2699 94.2766L94.2636 96.0164C94.4173 96.1057 94.6673 96.1059 94.822 96.0166L97.8353 94.2769C97.99 94.1876 97.9908 94.0425 97.8371 93.9532L94.8434 92.2135C94.6897 92.1242 94.4397 92.1244 94.285 92.2137L91.2717 93.9534Z" fill="#57B3FE"/>
<path d="M81.5566 93.9916C81.4019 94.0809 81.4006 94.2258 81.5547 94.3153L84.5484 96.0551C84.7021 96.1444 84.9522 96.1441 85.1069 96.0548L88.1201 94.3151C88.2748 94.2258 88.2761 94.081 88.1224 93.9916L85.1287 92.2519C84.9746 92.1623 84.7245 92.1626 84.5698 92.2519L81.5566 93.9916Z" fill="#57B3FE"/>
<path d="M86.3653 96.7861C86.2106 96.8754 86.2094 97.0202 86.3631 97.1095L89.3567 98.8493C89.5104 98.9386 89.7609 98.9386 89.9156 98.8493L92.9289 97.1096C93.0836 97.0203 93.0844 96.8752 92.9307 96.7859L89.937 95.0461C89.7833 94.9568 89.5333 94.957 89.3786 95.0464L86.3653 96.7861Z" fill="#57B3FE"/>
<path d="M76.6497 96.8245C76.4946 96.914 76.4938 97.0586 76.6479 97.1482L79.6416 98.8879C79.7953 98.9772 80.0449 98.9773 80.2 98.8877L83.2133 97.148C83.368 97.0587 83.3688 96.9141 83.2151 96.8248L80.2214 95.085C80.0673 94.9955 79.8177 94.9955 79.663 95.0848L76.6497 96.8245Z" fill="#57B3FE"/>
<path d="M81.4585 99.6191C81.3033 99.7086 81.3025 99.8532 81.4562 99.9425L84.4499 101.682C84.6036 101.772 84.8536 101.772 85.0087 101.682L88.022 99.9426C88.1767 99.8533 88.1771 99.7084 88.0234 99.6191L85.0297 97.8794C84.876 97.7901 84.6264 97.79 84.4717 97.8794L81.4585 99.6191Z" fill="#57B3FE"/>
<path d="M105.795 96.7093C105.64 96.7986 105.639 96.9432 105.793 97.0325L108.787 98.7722C108.94 98.8615 109.19 98.8618 109.345 98.7725L112.358 97.0328C112.513 96.9432 112.514 96.7984 112.36 96.709L109.366 94.9693C109.213 94.88 108.963 94.88 108.808 94.9696L105.795 96.7093Z" fill="#57B3FE"/>
<path d="M96.2763 85.4932C96.1216 85.5825 96.1208 85.7271 96.2749 85.8166L99.2686 87.5564C99.4223 87.6457 99.6719 87.6457 99.8266 87.5564L102.84 85.8167C102.995 85.7271 102.996 85.5825 102.842 85.4932L99.8484 83.7535C99.6943 83.6639 99.4447 83.6639 99.2895 83.7535L96.2763 85.4932Z" fill="#57B3FE"/>
<path d="M91.3694 88.3262C91.2147 88.4155 91.2139 88.5601 91.368 88.6496L94.3617 90.3894C94.5154 90.4787 94.765 90.4787 94.9197 90.3894L97.933 88.6497C98.0881 88.5601 98.0889 88.4155 97.9352 88.3262L94.9416 86.5865C94.7874 86.4969 94.5378 86.4969 94.3827 86.5865L91.3694 88.3262Z" fill="#57B3FE"/>
<path d="M96.1782 91.1207C96.0235 91.21 96.0227 91.3546 96.1764 91.4439L99.17 93.1837C99.3237 93.273 99.5738 93.2732 99.7285 93.1839L104.355 90.5126L108.885 93.145C109.039 93.2343 109.289 93.2343 109.443 93.145L112.457 91.405C112.612 91.3157 112.612 91.1711 112.459 91.0818L104.657 86.5478C104.503 86.4585 104.253 86.4585 104.098 86.548L96.1782 91.1207Z" fill="#57B3FE"/>
<path d="M100.986 93.9147C100.831 94.004 100.831 94.1486 100.985 94.2381L103.978 95.9779C104.132 96.0672 104.382 96.0672 104.536 95.9779L107.55 94.2382C107.705 94.1486 107.706 94.004 107.552 93.9147L104.558 92.175C104.404 92.0854 104.154 92.0854 103.999 92.175L100.986 93.9147Z" fill="#57B3FE"/>
<path d="M110.702 93.8763C110.547 93.9656 110.546 94.1102 110.7 94.1995L113.693 95.9392C113.847 96.0286 114.097 96.0288 114.252 95.9395L117.266 94.1995C117.42 94.1102 117.421 93.9654 117.267 93.8761L114.273 92.1363C114.12 92.047 113.87 92.047 113.715 92.1363L110.702 93.8763Z" fill="#57B3FE"/>
<path d="M124.343 90.1613L120.363 92.4586L102.511 82.0844L106.491 79.7865L124.343 90.1613Z" fill="#205988"/>
<path d="M66.6567 123.485L62.6626 125.76L44.7993 115.386L48.7937 113.111L66.6567 123.485Z" fill="#205988"/>
<path d="M99.0453 70.8519L37.3535 106.44L37.234 65.4719C37.234 64.7147 37.9115 63.5588 38.5492 63.2003L98.8857 28.3293L99.0453 70.8519Z" fill="#1A212B"/>
<path d="M97.124 65.4486C97.124 66.8717 96.1564 68.5509 94.9326 69.2624L46.1495 97.4394C45.5517 97.7809 44.9825 97.8094 44.5841 97.5817L40.9125 95.4471C40.514 95.2193 40.2579 94.7355 40.2579 94.024L40.0872 41.7116L93.3103 11.0017L96.9533 13.1363L97.124 65.4486Z" fill="#205988"/>
<path d="M43.9351 96.1627L43.7673 43.8565L40.1001 41.7253L40.268 94.0318C40.2701 94.7364 40.5157 95.2258 40.9106 95.4555L44.5779 97.5865C44.1828 97.357 43.9373 96.8675 43.9351 96.1627Z" fill="#205988"/>
<path d="M43.7672 43.8566L40.1001 41.7255L93.2966 11.0125L96.9637 13.1436L43.7672 43.8566Z" fill="#1A212B"/>
<path d="M96.9637 13.1436L97.1317 65.4498C97.1357 66.8748 96.1644 68.5573 94.9464 69.2606L46.157 97.4291C44.939 98.1323 43.9392 97.5878 43.9352 96.1628L43.7672 43.8566L96.9637 13.1436Z" fill="#1A212B"/>
<path d="M45.7625 45.0039L94.9823 16.5868L95.1393 65.4564C95.1421 66.1568 94.5529 67.1866 93.9511 67.5341L45.932 95.259L45.7625 45.0039Z" fill="#1A212B"/>
<path d="M96.9533 9.40784V13.1363L43.7586 43.8462L40.0872 41.7116V37.9832C40.0872 36.5601 41.0832 34.8525 42.3071 34.1409L91.0617 5.99242C91.6879 5.6509 92.2572 5.59392 92.6555 5.85015L96.2132 7.92779C96.2417 7.92779 96.2702 7.92779 96.2702 7.95628C96.6972 8.15553 96.9533 8.66781 96.9533 9.40784Z" fill="#DF3260"/>
<path d="M92.6458 5.83964C92.2453 5.60675 91.6878 5.64486 91.0637 6.00499L42.3188 34.1479C41.0785 34.8641 40.0852 36.5591 40.0892 37.9842L40.0998 41.725L43.7669 43.8561L43.7563 40.1153C43.7523 38.6903 44.7456 36.995 45.9859 36.279L94.7308 8.13612C95.355 7.77578 95.9124 7.73788 96.313 7.97077L92.6458 5.83964Z" fill="#DF3260"/>
<path d="M94.7312 8.13654C95.9714 7.4205 96.9491 7.97762 96.9531 9.40263L96.9637 13.1435L43.7672 43.8565L43.7566 40.1156C43.7526 38.6906 44.746 36.9955 45.9862 36.2795L94.7312 8.13654Z" fill="#F45170"/>
<path d="M47.5563 37.6411C48.1986 37.2703 48.7317 37.5487 48.7338 38.2866C48.7359 39.0248 48.2061 39.9169 47.5638 40.2877C46.9437 40.6457 46.4105 40.3673 46.4084 39.6292C46.4063 38.8912 46.9362 37.9991 47.5563 37.6411Z" fill="#1A212B"/>
<path d="M51.6313 35.2884C52.2514 34.9304 52.8067 35.196 52.8088 35.9339C52.8109 36.6721 52.2589 37.577 51.6388 37.935C51.0187 38.293 50.4634 38.0274 50.4613 37.2893C50.4592 36.5513 51.0112 35.6465 51.6313 35.2884Z" fill="#1A212B"/>
<path d="M55.7063 32.9358C56.3264 32.5777 56.8596 32.8561 56.8617 33.5941C56.8638 34.3322 56.3339 35.2243 55.7138 35.5823C55.0715 35.9531 54.5384 35.6748 54.5363 34.9366C54.5342 34.1987 55.064 33.3066 55.7063 32.9358Z" fill="#1A212B"/>
<path d="M93.2454 11.3899C93.8434 11.0447 94.31 11.3107 94.3118 11.9722C94.3138 12.6594 93.8502 13.4622 93.2523 13.8074L73.2759 25.3408C72.6779 25.6861 72.2113 25.4203 72.2094 24.733C72.2075 24.0715 72.6711 23.2685 73.269 22.9233L93.2454 11.3899Z" fill="#1A212B"/>
<path d="M52.3833 54.2146L52.3872 55.5911L47.6972 58.2989L47.6933 56.9224L52.3833 54.2146Z" fill="#205988"/>
<path d="M52.3734 50.7443L52.3774 52.1207L47.6873 54.8285L47.6834 53.452L52.3734 50.7443Z" fill="#205988"/>
<path d="M52.3636 47.2822L52.3675 48.6504L47.6775 51.3582L47.6736 49.99L52.3636 47.2822Z" fill="#205988"/>
<path d="M52.3538 43.8118L52.3577 45.1882L47.6677 47.896L47.6638 46.5195L52.3538 43.8118Z" fill="#205988"/>
<path d="M93.2351 48.0011L82.9973 53.9119L83.0011 55.28L93.2351 49.3713V48.0011Z" fill="#205988"/>
<path d="M88.3141 54.3098L88.318 55.6863L70.0954 66.2072L70.0915 64.8307L88.3141 54.3098Z" fill="#205988"/>
<path d="M91.9898 45.2438L91.9937 46.6202L73.016 57.5771L73.0121 56.2006L91.9898 45.2438Z" fill="#205988"/>
<path d="M89.4292 39.7783L89.4331 41.1465L75.9948 48.9051L75.9909 47.5369L89.4292 39.7783Z" fill="#205988"/>
<path d="M93.2351 30.6288L78.3959 39.1962L78.3999 40.5727L93.2351 32.0076V30.6288Z" fill="#205988"/>
<path d="M81.1532 54.9764L81.1571 56.3446L62.8763 66.899L62.8724 65.5309L81.1532 54.9764Z" fill="#DBA660"/>
<path d="M93.2351 23.6851L83.6833 29.1997L83.6872 30.5678L93.2351 25.0552V23.6851Z" fill="#8FABFE"/>
<path d="M82.1717 47.4363L82.1756 48.8128L66.4286 57.9043L66.4247 56.5278L82.1717 47.4363Z" fill="#205988"/>
<path d="M82.9579 40.0385L82.9618 41.4066L70.5616 48.5658L70.5578 47.1977L82.9579 40.0385Z" fill="#205988"/>
<path d="M67.4343 66.3649L67.4382 67.7413L55.3284 74.7329L55.3245 73.3564L67.4343 66.3649Z" fill="#205988"/>
<path d="M70.1299 57.8646L70.1338 59.2411L55.3088 67.8003L55.3049 66.4238L70.1299 57.8646Z" fill="#205988"/>
<path d="M93.2351 27.1528L67.8302 41.8203L67.834 43.1968L93.2351 28.5314V27.1528Z" fill="#205988"/>
<path d="M64.2321 57.7937L64.236 59.1702L55.2989 64.33L55.295 62.9535L64.2321 57.7937Z" fill="#205988"/>
<path d="M74.6042 48.3376L74.608 49.7058L55.2891 60.8596L55.2852 59.4914L74.6042 48.3376Z" fill="#78E75A"/>
<path d="M86.9552 23.8346L86.9591 25.2111L66.8342 36.8301L66.8303 35.4537L86.9552 23.8346Z" fill="#205988"/>
<path d="M76.6028 40.2316L76.6067 41.608L55.2694 53.9271L55.2655 52.5506L76.6028 40.2316Z" fill="#205988"/>
<path d="M80.3947 31.0984L80.3986 32.4665L55.2498 46.9862L55.2459 45.6181L80.3947 31.0984Z" fill="#205988"/>
<path d="M66.9858 49.26L66.9897 50.6281L55.2792 57.3891L55.2754 56.0211L66.9858 49.26Z" fill="#205988"/>
<path d="M65.289 43.2874L65.2929 44.6638L55.2596 50.4566L55.2557 49.0801L65.289 43.2874Z" fill="#F45170"/>
<path d="M64.5216 36.7866L64.5255 38.1631L55.2399 43.5241L55.236 42.1477L64.5216 36.7866Z" fill="#205988"/>
<path d="M52.3931 57.6851L52.397 59.0532L47.707 61.7609L47.7031 60.3928L52.3931 57.6851Z" fill="#205988"/>
<path d="M52.403 61.1555L52.4068 62.5237L47.7168 65.2315L47.713 63.8633L52.403 61.1555Z" fill="#205988"/>
<path d="M52.4128 64.6176L52.4167 65.994L47.7267 68.7018L47.7228 67.3253L52.4128 64.6176Z" fill="#205988"/>
<path d="M52.4226 68.088L52.4265 69.4645L47.7365 72.1723L47.7326 70.7958L52.4226 68.088Z" fill="#205988"/>
<path d="M52.4423 75.0205L52.4462 76.397L47.7562 79.1048L47.7523 77.7283L52.4423 75.0205Z" fill="#205988"/>
<path d="M52.4325 71.5583L52.4363 72.9265L47.7463 75.6343L47.7425 74.2661L52.4325 71.5583Z" fill="#205988"/>
<path d="M60.9049 66.6669L60.9088 68.035L55.3186 71.2625L55.3147 69.8944L60.9049 66.6669Z" fill="#205988"/>
<path d="M52.373 86.5968L47.6769 89.329V84.4907L52.3447 81.7583L52.373 86.5968Z" fill="#B28AFD"/>
<path d="M93.235 61.6422L83.6833 67.1568L83.6871 68.5249L93.235 63.0124V61.6422Z" fill="#8FABFE"/>
<path d="M86.9551 61.7917L86.959 63.1682L66.8342 74.7873L66.8303 73.4108L86.9551 61.7917Z" fill="#205988"/>
<path d="M80.3947 69.0555L80.3985 70.4237L55.2497 84.9434L55.2458 83.5752L80.3947 69.0555Z" fill="#205988"/>
<path d="M64.5216 74.7438L64.5255 76.1202L55.2399 81.4813L55.236 80.1048L64.5216 74.7438Z" fill="#205988"/>
<path d="M123.935 46.0379C123.935 47.717 122.768 49.7663 121.288 50.5916L109.419 57.4793C108.679 57.9063 108.025 57.9348 107.541 57.6502C107.484 57.6217 107.427 57.5932 107.399 57.5648L105.264 56.3409C104.809 56.0562 104.524 55.4871 104.496 54.6331L104.467 41.0001C104.467 39.321 105.634 37.2717 107.086 36.4463L118.982 29.587C119.722 29.1602 120.377 29.1317 120.861 29.3878L122.967 30.6118C123.024 30.6686 123.081 30.6971 123.138 30.7255C123.622 30.9816 123.906 31.5794 123.906 32.4047L123.935 46.0379Z" fill="#BF7D5A"/>
<path d="M107.537 57.6526C107.065 57.378 106.773 56.7925 106.77 55.9584L106.732 42.3214C106.727 40.6422 107.898 38.5989 109.359 37.7552L121.24 30.8954C121.976 30.4709 122.643 30.432 123.125 30.7121L120.863 29.398C120.381 29.1178 119.714 29.1567 118.979 29.5813L107.098 36.441C105.636 37.2848 104.466 39.3281 104.47 41.0073L104.509 54.6442C104.511 55.4785 104.803 56.0639 105.276 56.3384L107.537 57.6526Z" fill="#BF7D5A"/>
<path d="M121.24 30.8955C122.702 30.0518 123.894 30.7311 123.898 32.4103L123.937 46.0472C123.942 47.7264 122.757 49.7619 121.296 50.6056L109.415 57.4653C107.953 58.309 106.775 57.6375 106.77 55.9584L106.732 42.3214C106.727 40.6423 107.898 38.5989 109.359 37.7552L121.24 30.8955Z" fill="#DBA660"/>
<path d="M112.703 42.5588C112.855 42.4713 113.006 42.458 113.114 42.5437C113.311 42.6898 113.292 43.0957 113.057 43.4571L111.003 46.6874L113.079 47.5215C113.305 47.6167 113.335 47.9944 113.14 48.3782C113.032 48.587 112.876 48.7453 112.719 48.836C112.601 48.9039 112.473 48.9325 112.365 48.8933L109.817 47.8464C109.699 47.7903 109.629 47.6609 109.629 47.4804C109.628 47.2888 109.697 47.08 109.814 46.8993L112.348 42.918C112.45 42.7562 112.577 42.6317 112.703 42.5588Z" fill="#1A212B"/>
<path d="M117.144 37.9556C117.221 37.9109 117.3 37.8844 117.375 37.8811C117.651 37.8691 117.769 38.1731 117.643 38.5625L114.018 49.7569C113.921 50.0503 113.725 50.2876 113.519 50.4065L113.293 50.4805C113.018 50.5037 112.899 50.1884 113.026 49.8104L116.65 38.6047C116.742 38.3219 116.938 38.0744 117.144 37.9556Z" fill="#1A212B"/>
<path d="M117.943 39.5336C118.072 39.4594 118.201 39.4362 118.304 39.4795L120.852 40.5264C120.97 40.5712 121.039 40.7007 121.04 40.8923C121.04 41.0728 120.972 41.2815 120.855 41.4735L118.311 45.4605C118.213 45.6186 118.086 45.7373 117.958 45.811C117.801 45.9016 117.654 45.9189 117.545 45.8347C117.348 45.6775 117.377 45.2659 117.602 44.91L119.656 41.691L117.59 40.84C117.364 40.7448 117.333 40.3672 117.529 39.9946C117.635 39.7852 117.789 39.6227 117.943 39.5336Z" fill="#1A212B"/>
<path d="M10.0887 125.929C10.0317 125.901 9.97476 125.872 9.94627 125.844C9.88947 125.815 9.83249 125.759 9.77551 125.673C9.86098 125.787 9.97476 125.872 10.0887 125.929Z" fill="#678AEE"/>
<path d="M26.4824 114.317C26.4824 115.996 25.2871 118.045 23.8355 118.899L11.9671 125.759C11.2271 126.185 10.5725 126.214 10.0887 125.929C9.97477 125.872 9.86099 125.787 9.77552 125.673C9.8325 125.759 9.88947 125.815 9.94628 125.844L7.81166 124.62C7.32787 124.336 7.04332 123.766 7.04332 122.941L7.01483 109.279C7.01483 107.6 8.18168 105.579 9.63324 104.726L21.5301 97.8662C22.2417 97.4394 22.9247 97.4109 23.4087 97.6954L25.4579 98.8909L25.6571 99.0047C26.1409 99.261 26.4256 99.83 26.4256 100.684L26.4824 114.317Z" fill="#678AEE"/>
<path d="M10.0887 125.929C10.0317 125.901 9.97476 125.872 9.94627 125.844C9.88947 125.815 9.83249 125.759 9.77551 125.673C9.86098 125.787 9.97476 125.872 10.0887 125.929Z" fill="#678AEE"/>
<path d="M10.0755 125.936C9.60306 125.661 9.31101 125.076 9.30866 124.242L9.27002 110.605C9.26519 108.926 10.4359 106.882 11.8972 106.039L23.7785 99.1789C24.5138 98.7543 25.181 98.7154 25.663 98.9956L23.4016 97.6814C22.9196 97.4013 22.2525 97.4402 21.5172 97.8647L9.63583 104.724C8.17453 105.568 7.00385 107.612 7.00868 109.291L7.04733 122.928C7.04968 123.762 7.34173 124.347 7.81407 124.622L10.0755 125.936Z" fill="#678AEE"/>
<path d="M23.7785 99.1789C25.2398 98.3352 26.4318 99.0146 26.4365 100.694L26.4752 114.331C26.48 116.01 25.2957 118.045 23.8344 118.889L11.953 125.749C10.4917 126.592 9.31336 125.921 9.3086 124.242L9.26994 110.605C9.26518 108.926 10.4358 106.882 11.8971 106.039L23.7785 99.1789Z" fill="#8FABFE"/>
<path d="M23.0801 109.622C23.0801 109.764 23.0516 109.907 22.9662 110.049C22.9094 110.22 22.7954 110.334 22.6531 110.419C22.4254 110.618 22.2831 110.761 22.2261 110.846C22.1124 110.988 22.0839 111.045 22.0839 111.074C22.0554 111.159 22.0554 111.244 22.0554 111.358V113.322C22.0554 113.806 21.9416 114.233 21.7139 114.574C21.4863 114.888 21.1448 115.172 20.7463 115.4L20.6608 115.457C20.547 115.514 20.4615 115.542 20.3763 115.542C20.2908 115.542 20.2055 115.485 20.1485 115.485C20.0632 115.428 19.9208 115.286 19.9208 115.03C19.9208 114.888 19.9493 114.745 20.0632 114.574C20.1485 114.432 20.234 114.318 20.3763 114.233L20.49 114.176C20.6893 114.062 20.7463 113.977 20.7463 113.977C20.7748 113.92 20.8031 113.863 20.8031 113.806V111.728C20.8031 111.273 20.9455 110.846 21.2301 110.419C21.1731 110.391 21.1163 110.362 21.0878 110.305C20.8885 110.134 20.8031 109.878 20.7748 109.508V107.573C20.7748 107.573 20.7748 107.573 20.7463 107.573L20.6323 107.658C20.4047 107.772 20.2055 107.715 20.12 107.658C20.0632 107.63 19.8925 107.488 19.8925 107.231C19.8925 107.061 19.9493 106.918 20.0347 106.776C20.12 106.634 20.234 106.52 20.3478 106.434L20.4332 106.377C20.8885 106.121 21.2301 106.036 21.5146 106.093C21.8563 106.178 22.0271 106.52 22.0554 107.117V109.224C22.1124 109.224 22.1978 109.195 22.3969 109.138C22.6531 109.025 22.8239 109.11 22.8809 109.167C23.0232 109.281 23.0801 109.423 23.0801 109.622Z" fill="#1A212B"/>
<path d="M15.8508 117.705C15.8508 117.848 15.794 118.018 15.7085 118.161C15.6232 118.303 15.5093 118.417 15.3955 118.502L15.31 118.559C14.94 118.758 14.6555 118.844 14.4277 118.844C14.3424 118.844 14.2854 118.844 14.2285 118.815C13.8869 118.73 13.7162 118.388 13.7162 117.819L13.6877 115.855V115.713C13.6309 115.713 13.5454 115.741 13.3462 115.798C13.1186 115.912 12.9478 115.827 12.8624 115.77C12.7486 115.656 12.6631 115.542 12.6631 115.314C12.6631 115.172 12.6916 115.001 12.7771 114.859C12.8339 114.745 12.9478 114.603 13.0616 114.518C13.3179 114.318 13.4601 114.176 13.5169 114.091C13.6309 113.948 13.6594 113.863 13.6594 113.863C13.6877 113.778 13.6877 113.692 13.6877 113.578V111.615C13.6877 111.131 13.8016 110.704 14.0294 110.362C14.2854 110.021 14.5985 109.764 14.997 109.537L15.0825 109.48C15.31 109.338 15.5093 109.395 15.5947 109.451C15.68 109.508 15.8223 109.651 15.8223 109.907C15.8223 110.049 15.794 110.191 15.68 110.334C15.5947 110.504 15.5093 110.618 15.367 110.675L15.2532 110.761C15.0255 110.874 14.997 110.96 14.997 110.96C14.94 111.017 14.94 111.074 14.94 111.131V113.208C14.94 113.664 14.7977 114.091 14.5132 114.518C14.57 114.546 14.627 114.574 14.6555 114.631C14.8547 114.802 14.94 115.058 14.94 115.428L14.9685 117.364H14.997L15.1108 117.278C15.3385 117.136 15.5093 117.222 15.5947 117.25C15.7085 117.307 15.8508 117.421 15.8508 117.705Z" fill="#1A212B"/>
</svg>
