<svg width="86" height="154" viewBox="0 0 86 154" fill="none" xmlns="http://www.w3.org/2000/svg">
<path d="M83.3022 78.8488C81.9453 80.3995 80.7823 82.3704 79.8131 84.3088C81.59 85.5042 82.4623 86.9904 82.4623 88.5088L82.3977 103.629C82.3977 105.276 81.3314 106.892 79.1669 108.152C74.8699 110.64 67.8269 110.64 63.4975 108.152C61.3006 106.86 60.2023 105.212 60.2023 103.564L60.2991 88.4119C60.2991 86.7966 61.3653 85.1488 63.4975 83.9211C63.8207 83.7273 64.1761 83.5658 64.5314 83.4364C63.8207 81.3365 62.7222 79.4626 60.8806 78.2349C60.5253 78.0411 60.1699 77.8149 59.7823 77.6534C59.7823 77.6534 64.3052 77.5564 67.9239 79.9795C68.0207 80.0442 68.1498 80.1088 68.2469 80.238C67.8268 78.8488 66.1791 73.2596 67.5039 69.4473C67.5683 69.2535 67.633 69.0595 67.73 68.8656C67.9883 68.2518 68.376 67.7026 68.8607 67.2502C68.8607 67.2502 70.7346 73.3888 72.1238 76.1349C72.4145 76.7487 72.8022 77.3949 73.2222 78.0734C73.7069 76.6519 74.0946 74.5518 73.2545 72.5811C73.6745 73.0658 77.0345 77.1364 76.97 81.4657C80.5884 78.2673 84.5622 77.3304 85.0792 77.2334C84.4654 77.6858 83.8515 78.2349 83.3022 78.8488Z" fill="#57B3FE"/>
<path d="M82.4667 88.4933L82.3956 103.629C82.3909 105.261 81.3195 106.891 79.1741 108.138C74.8588 110.645 67.8298 110.641 63.4934 108.138C61.3059 106.875 60.2125 105.215 60.2172 103.559L60.2883 88.423C60.2836 90.0797 61.377 91.7392 63.5645 93.0021C67.9009 95.5058 74.93 95.5098 79.2452 93.0021C81.3906 91.7553 82.462 90.1252 82.4667 88.4933Z" fill="#57B3FE"/>
<path d="M79.1941 83.9192C83.5305 86.4228 83.5674 90.4903 79.2452 93.0021C74.93 95.5098 67.9009 95.5058 63.5645 93.0021C59.221 90.4944 59.1911 86.423 63.5063 83.9152C67.8285 81.4035 74.8506 81.4115 79.1941 83.9192Z" fill="#205988"/>
<path d="M64.7561 88.3855C66.5722 87.3299 68.9571 86.8037 71.3453 86.8037C73.5187 86.8037 75.6938 87.2397 77.4443 88.1134C77.5263 88.1544 77.6082 88.1953 77.6885 88.238C77.7787 88.2855 77.8672 88.3347 77.9541 88.3855C78.9487 88.9598 79.6734 89.6337 80.1299 90.3513C80.4244 89.8913 80.6083 89.4131 80.6766 88.9298C80.8995 87.3989 79.9866 85.8106 77.9541 84.637C77.8672 84.5862 77.7787 84.537 77.6885 84.4895C77.6082 84.4469 77.5263 84.4059 77.4443 84.3649C75.6938 83.4913 73.5187 83.0553 71.3453 83.0553C68.9571 83.0553 66.5722 83.5815 64.7561 84.637C62.7482 85.8041 61.8582 87.3661 62.0811 88.8987C62.1518 89.3787 62.3347 89.8546 62.6259 90.3133C63.0744 89.6102 63.7827 88.9512 64.7561 88.3855Z" fill="#57B3FE"/>
<path d="M80.1292 90.351C80.0423 90.487 79.9472 90.6214 79.8407 90.7542C79.3948 91.3082 78.7802 91.8262 77.9934 92.2802C77.7918 92.3982 77.5836 92.508 77.3673 92.6129C77.0919 92.7473 76.8051 92.8703 76.5084 92.9834C75.4004 93.4046 74.1678 93.6751 72.9007 93.7947C72.7008 93.8127 72.4975 93.8275 72.2959 93.839C72.2779 93.8406 72.2615 93.8406 72.2435 93.8406C71.855 93.8619 71.4632 93.8685 71.0731 93.8603C70.9912 93.8586 70.9092 93.8554 70.8273 93.8521C70.3765 93.8373 69.9307 93.8013 69.4865 93.7488C68.5653 93.6374 67.6671 93.4439 66.8263 93.1686C66.423 93.0374 66.0329 92.8866 65.6592 92.7178C65.3625 92.5851 65.0757 92.4392 64.8036 92.2802C63.9955 91.813 63.3661 91.2836 62.9137 90.7181C62.8072 90.5854 62.7121 90.4493 62.6252 90.3133C63.0744 89.6101 63.7824 88.9512 64.7561 88.3857C64.8954 88.3037 65.0396 88.2267 65.1855 88.1513C66.0952 87.6858 67.1246 87.3399 68.2113 87.1154C69.2226 86.9072 70.2831 86.804 71.3452 86.804C71.6895 86.804 72.0337 86.8154 72.3762 86.8384C72.4877 86.8433 72.5991 86.8515 72.709 86.863C73.9432 86.9662 75.1463 87.2137 76.2429 87.6055C76.6608 87.753 77.0624 87.9235 77.4443 88.1136C77.5263 88.1546 77.6082 88.1955 77.6885 88.2382C77.7787 88.2857 77.8672 88.3349 77.9541 88.3857C78.1426 88.4955 78.3229 88.607 78.4917 88.7233C79.2145 89.2167 79.7604 89.7691 80.1292 90.351Z" fill="#FEBC1F"/>
<path d="M72.4981 79.7616C72.4981 79.7616 74.6994 75.8699 73.2284 72.5133C73.2284 72.5133 79.4225 79.5742 75.8436 85.2836C72.2647 90.9929 72.4981 79.7616 72.4981 79.7616Z" fill="#5EC363"/>
<path d="M76.2532 85.2046C76.0102 87.8426 73.7375 91.3802 73.7375 91.3802C73.7375 91.3802 73.6977 91.3774 73.6266 91.3717C72.9941 91.3205 69.8431 91.0249 69.1651 90.1124C69.0031 89.8935 68.8723 89.3278 68.77 88.5717C68.3947 85.8158 68.3692 80.5484 68.3692 80.5484C68.3692 80.5484 65.9856 73.7957 67.4922 69.4479C67.5576 69.2517 67.6343 69.0613 67.7182 68.8751C67.9996 68.2554 68.3763 67.6996 68.8695 67.2391C68.8695 67.2391 70.73 73.3849 72.1186 76.1494C73.5072 78.9138 76.4963 82.5666 76.2532 85.2046Z" fill="#72D561"/>
<path d="M73.0808 88.016C72.8691 88.2903 72.6189 88.5476 72.3005 88.6854C72.0333 88.8005 71.7363 88.8233 71.4449 88.8403C70.5424 88.8929 69.6057 88.9043 68.77 88.5717C68.3947 85.8158 68.3692 80.5484 68.3692 80.5484C68.3692 80.5484 65.9856 73.7957 67.4922 69.4479C67.7552 69.7663 67.9513 70.1131 68.0295 70.3945C68.1858 70.9616 68.0323 71.5827 68.2057 72.1455C68.4743 73.0154 69.4579 73.5427 69.6498 74.4339C69.7237 74.7807 69.6654 75.1445 69.7166 75.4956C69.8132 76.1522 70.2737 76.6852 70.6603 77.2253C71.2431 78.0369 71.6908 78.9338 72.1371 79.8263C72.4796 80.5128 72.8222 81.1993 73.1647 81.8858C73.4689 82.497 73.7759 83.1124 73.9478 83.7719C74.3245 85.2188 73.9947 86.832 73.0808 88.016Z" fill="#78E75A"/>
<path d="M85.1562 77.1884C84.4996 77.646 83.879 78.2158 83.2987 78.8634C80.7399 81.7138 78.9213 86.0763 77.8864 89.0674C77.861 89.1422 77.8355 89.2155 77.8116 89.2887C77.191 91.1103 76.8754 92.371 76.8754 92.371C76.8754 92.371 76.8515 92.5475 76.7857 92.8376C76.5344 92.9603 76.2727 93.0724 76.002 93.1756C75.0837 93.5241 74.0728 93.7604 73.0289 93.8815C72.9227 93.895 72.8165 93.9055 72.7103 93.9159C72.5279 93.9324 72.3424 93.9458 72.1585 93.9563C72.142 93.9578 72.1271 93.9578 72.1106 93.9578C71.7562 93.9772 71.3988 93.9832 71.0428 93.9757C70.968 93.9743 70.8933 93.9713 70.8185 93.9683C70.9112 93.2474 71.0548 92.4922 71.2253 91.7623C71.5498 90.3655 71.9626 89.0539 72.2721 88.2374C72.3065 88.1476 72.3379 88.0639 72.3693 87.9861C72.4232 87.8545 72.4755 87.7274 72.5309 87.6003L72.5354 87.5913C73.3983 85.5798 74.5394 83.9422 75.7807 82.6142C79.9084 78.1949 85.1562 77.1884 85.1562 77.1884Z" fill="#72D561"/>
<path d="M72.2721 88.2374L72.1659 91.9328L72.1106 93.9578C71.7562 93.9772 71.3987 93.9832 71.0428 93.9757C70.968 93.9743 70.8932 93.9713 70.8185 93.9683C70.7841 93.9668 70.7512 93.9653 70.7168 93.9638C70.3399 93.9488 69.9675 93.9174 69.5951 93.8741C68.7546 93.7724 67.9351 93.5959 67.1679 93.3446C66.8 93.225 66.444 93.0874 66.1031 92.9334C65.9625 91.7668 65.8593 90.3162 65.6708 88.7668C65.6589 88.6651 65.6469 88.5634 65.6335 88.4602C65.1579 84.693 64.1439 80.4172 60.8717 78.2502C60.5352 78.0274 60.1748 77.8255 59.7874 77.6505C59.7874 77.6505 64.3084 77.5682 67.9112 79.9671C70.0842 81.4118 71.9222 83.7612 72.2318 87.5689C72.2333 87.5719 72.2333 87.5734 72.2333 87.5764C72.2527 87.7932 72.2647 88.0131 72.2721 88.2374Z" fill="#78E75A"/>
<path d="M72.2721 88.2374L72.1659 91.9328L72.1106 93.9578C71.7562 93.9772 71.3987 93.9832 71.0428 93.9757C70.968 93.9743 70.8932 93.9713 70.8185 93.9683C70.7841 93.9668 70.7512 93.9653 70.7168 93.9638C69.3917 91.7205 69.5533 88.8206 68.5617 86.3739C68.0772 85.1745 67.3189 84.0992 66.8448 82.8938C66.5278 82.0892 66.3349 81.2218 65.8488 80.5055C65.282 79.6725 64.3817 79.1385 63.5098 78.6316C63.284 78.4985 63.0537 78.3654 62.8009 78.2966C62.5317 78.2233 62.2491 78.2248 61.9709 78.2263C61.6075 78.2293 61.2396 78.2472 60.8717 78.2502C60.5352 78.0274 60.1748 77.8255 59.7874 77.6505C59.7874 77.6505 64.3084 77.5682 67.9112 79.9671C70.0842 81.4118 71.9222 83.7612 72.2318 87.5689C72.2333 87.5719 72.2333 87.5734 72.2333 87.5764C72.2527 87.7932 72.2647 88.0131 72.2721 88.2374Z" fill="#72D561"/>
<path d="M83.2987 78.8634C80.7399 81.7139 78.9213 86.0764 77.8864 89.0675C77.861 89.1422 77.8355 89.2155 77.8116 89.2888C77.191 91.1103 76.8754 92.3711 76.8754 92.3711C76.8754 92.3711 76.8515 92.5476 76.7857 92.8377C76.5344 92.9603 76.2727 93.0725 76.002 93.1757C75.0837 93.5241 74.0728 93.7604 73.0289 93.8816C72.833 93.2774 72.5907 92.6926 72.7298 91.9942C72.8973 91.1582 73.4401 90.4553 73.9756 89.7928C75.1376 88.3526 76.3445 86.9318 77.2717 85.3286C78.3724 83.4233 79.1666 81.1665 81.0375 80.009C81.7553 79.5648 82.5943 79.3136 83.2987 78.8634Z" fill="#78E75A"/>
<path d="M63.7239 112.481C63.7239 115.841 61.3655 119.944 58.4255 121.657L13.0654 147.858C11.5147 148.763 10.0932 148.827 9.09164 148.181L2.72692 144.498C1.75773 143.917 1.14387 142.721 1.14387 141.009L0.853214 36.5259C0.820875 33.1658 3.21161 29.0628 6.15153 27.3504L51.6732 1.08425C53.1594 0.21188 54.4839 0.147398 55.4531 0.696574L61.6885 4.31502C62.7547 4.83205 63.4332 6.05956 63.4332 7.83664L63.7239 112.481Z" fill="#4C5C75"/>
<path d="M61.8792 4.42603C60.9132 3.86524 59.5764 3.94354 58.0995 4.79598L12.5665 31.0848C9.63236 32.7789 7.26195 36.8846 7.27172 40.2562L7.56827 144.719C7.57317 146.443 8.18192 147.658 9.16454 148.228L2.73667 144.504C1.75405 143.933 1.1453 142.719 1.1404 140.993L0.843856 36.5311C0.834083 33.1595 3.20449 29.0538 6.13863 27.3597L51.6716 1.07185C53.1485 0.219379 54.4854 0.140122 55.4513 0.700915L61.8792 4.42603Z" fill="#205988"/>
<path d="M58.0998 4.7964C61.0335 3.10261 63.4195 4.4623 63.429 7.83341L63.7257 112.48C63.7353 115.852 61.3648 119.958 58.431 121.652L13.0583 147.848C10.0358 149.593 7.57772 148.191 7.56788 144.718L7.27173 40.2558C7.26217 36.8847 9.63205 32.7792 12.5664 31.0851L58.0998 4.7964Z" fill="#4C5C75"/>
<path d="M10.6034 147.326C9.01866 147.326 8.84237 145.5 8.84017 144.715L8.54403 40.2522C8.53581 37.343 10.6691 33.6496 13.2026 32.187L58.7359 5.89823C59.3684 5.53303 59.9726 5.33997 60.4832 5.33997C61.9873 5.33997 62.1546 7.08624 62.1567 7.83699L62.4534 112.484C62.4616 115.393 60.3283 119.087 57.7949 120.55L12.4221 146.746C11.7649 147.125 11.1361 147.326 10.6034 147.326Z" fill="#4C5C75"/>
<path d="M61.5795 112.49C61.5795 115.085 59.6029 118.482 57.3481 119.779L11.9758 145.971C11.4508 146.28 10.9876 146.434 10.6168 146.434C10.3389 146.434 10.1227 146.373 9.93736 145.971C9.75205 145.539 9.72113 144.983 9.72113 144.705L9.41234 40.2466C9.41234 37.6522 11.3889 34.2546 13.6438 32.9574L59.1705 6.67297C59.6646 6.36418 60.1279 6.20959 60.4676 6.20959C60.7457 6.20959 60.931 6.30235 61.0854 6.64205C61.2398 7.04359 61.2707 7.56861 61.2707 7.84667L61.5795 112.49Z" fill="#1A212B"/>
<path d="M61.2752 15.0976L9.42375 46.4375L9.42377 40.2521C9.41722 37.6628 11.3919 34.2496 13.6412 32.9485L59.1762 6.66297C59.6666 6.37531 60.1309 6.21838 60.484 6.21838C60.7325 6.21838 60.9156 6.29692 61.0725 6.65658C61.2491 7.05535 61.2752 7.57193 61.2752 7.84012L61.2752 15.0976Z" fill="#327AB4"/>
<path d="M51.6167 4.91792C50.5014 4.28485 48.6625 4.28485 47.5472 4.91792C46.5527 5.49064 46.432 6.36473 47.1855 6.9978C47.2761 6.90728 47.3966 6.81695 47.5472 6.72643C48.6625 6.09354 50.5014 6.09354 51.6167 6.72643C51.7372 6.81694 51.8577 6.90728 51.9784 6.9978C52.7018 6.36473 52.5813 5.49064 51.6167 4.91792Z" fill="#1A212B"/>
<path d="M47.5472 6.72637C47.3966 6.81689 47.276 6.90722 47.1855 6.99774C47.276 7.08808 47.3966 7.17859 47.5472 7.26893C48.6927 7.93217 50.5014 7.93217 51.6167 7.26893C51.7372 7.20877 51.8577 7.11825 51.9784 7.02792V6.99774C51.8577 6.90722 51.7372 6.81689 51.6167 6.72637C50.5014 6.09349 48.6625 6.09349 47.5472 6.72637Z" fill="#111D33"/>
<path d="M40.8555 21.1204C41.4898 20.7542 42.0021 21.046 42.0042 21.775C42.0063 22.5039 41.4973 23.3853 40.863 23.7516L30.1561 29.9332C29.5218 30.2994 29.0095 30.0076 29.0075 29.2787C29.0054 28.5496 29.5143 27.6682 30.1486 27.302L40.8555 21.1204Z" fill="#1A212B"/>
<path d="M57.822 12.6417C57.822 13.369 57.3172 14.2524 56.6801 14.6191L45.9758 20.8036C45.3388 21.1642 44.8279 20.8758 44.8279 20.1485C44.8218 19.4153 45.3327 18.5378 45.9638 18.1711L56.6741 11.9866C57.3051 11.62 57.822 11.9145 57.822 12.6417Z" fill="#1A212B"/>
<path d="M25.0343 31.2427C25.0394 32.4225 24.212 33.8475 23.1906 34.44C22.1691 35.0273 21.3366 34.5575 21.3366 33.3777C21.3315 32.2029 22.1589 30.778 23.1752 30.1856C24.2018 29.5983 25.0292 30.0681 25.0343 31.2427Z" fill="#1A212B"/>
<path d="M18.3726 35.0915C18.378 36.2991 17.5299 37.7591 16.4833 38.3656C15.4367 38.9667 14.5833 38.4837 14.5833 37.276C14.5779 36.0737 15.4259 34.6138 16.4672 34.0073C17.5192 33.4061 18.3673 33.8892 18.3726 35.0915Z" fill="#1A212B"/>
<path d="M6.31309 51.9688L6.28075 60.401C6.28075 60.9504 6.08691 61.3057 5.79605 61.4996L5.05304 61.8873C5.05304 61.8873 5.0207 61.9196 4.98836 61.9519C4.95602 61.9843 4.92388 62.0164 4.8592 62.0488C4.53601 62.2103 4.11619 62.1781 3.66383 61.9196C2.72678 61.3704 1.98377 60.078 2.01611 59.0118V50.6119C2.01611 50.0627 2.20995 49.7072 2.5008 49.5134L3.43765 48.9642C3.76065 48.8027 4.18067 48.835 4.63302 49.0933C5.56988 49.6427 6.31309 50.9349 6.31309 51.9688Z" fill="#57B3FE"/>
<path d="M6.24841 67.3796V75.8118C6.21607 76.361 6.05457 76.7165 5.73157 76.878L4.79452 77.4272C4.50387 77.621 4.08385 77.5887 3.63149 77.298C2.69464 76.781 1.95143 75.4888 1.95143 74.4226L1.98377 65.9904C1.98377 65.4733 2.17761 65.0856 2.46846 64.9241L3.40532 64.375C3.69617 64.2133 4.11619 64.2456 4.60069 64.5041C5.5054 65.021 6.24841 66.3134 6.24841 67.3796Z" fill="#57B3FE"/>
<path d="M6.3014 51.9837L6.27932 60.4099C6.27489 60.9446 6.08932 61.3158 5.78444 61.4925L4.85212 62.0316C5.15258 61.8593 5.34258 61.4881 5.34258 60.9535L5.36909 52.5272C5.36909 51.4667 4.62677 50.1765 3.69887 49.6418C3.2349 49.3767 2.81955 49.3546 2.51466 49.5225L3.45143 48.979C3.75631 48.8111 4.17164 48.8332 4.63561 49.0983C5.55908 49.633 6.30583 50.9276 6.3014 51.9837Z" fill="#57B3FE"/>
<path d="M3.6997 49.6434C3.23703 49.3763 2.82171 49.3541 2.51606 49.5218C2.21321 49.6976 2.02565 50.0699 2.02416 50.5983L2.00027 59.0234C1.99726 60.0867 2.74242 61.3774 3.66493 61.91C4.12758 62.1771 4.54572 62.2042 4.85138 62.0332C5.15423 61.8607 5.34178 61.4884 5.34329 60.9535L5.36718 52.5284C5.37018 51.4683 4.62502 50.1777 3.6997 49.6434Z" fill="#1A212B"/>
<path d="M6.25723 67.3869L6.23514 75.8132C6.23072 76.3478 6.04515 76.7146 5.74026 76.8913L4.80792 77.4348C5.10841 77.2581 5.2984 76.8913 5.2984 76.3567L5.32491 67.9304C5.32491 66.8699 4.58259 65.5797 3.65467 65.0451C3.19515 64.7755 2.7798 64.7534 2.47049 64.9213L3.40723 64.3823C3.71211 64.21 4.12746 64.2365 4.59141 64.5016C5.51491 65.0362 6.26165 66.3265 6.25723 67.3869Z" fill="#57B3FE"/>
<path d="M3.65603 65.0447C3.19336 64.7776 2.77805 64.7521 2.47239 64.9231C2.16953 65.0989 1.98198 65.4711 1.98048 65.9995L1.9566 74.4247C1.95358 75.488 2.69875 76.7786 3.62126 77.3112C4.0839 77.5784 4.50205 77.6055 4.8077 77.4345C5.11056 77.2587 5.29811 76.8897 5.29962 76.3548L5.32351 67.9296C5.32651 66.8696 4.58135 65.5789 3.65603 65.0447Z" fill="#1A212B"/>
<path d="M58.8617 45.868C58.8924 47.2579 57.8733 48.9875 56.6687 49.667L14.385 74.0983C13.1804 74.8086 12.192 74.2218 12.192 72.8318L12.1304 51.335C12.0995 49.945 13.0878 48.2154 14.3232 47.5049L56.6068 23.1046C57.8114 22.3943 58.7998 22.9812 58.7998 24.3709L58.8617 45.868Z" fill="#205988"/>
<path d="M35.915 43.5085L33.197 49.4078L31.591 49.2224H31.5601L30.1702 49.0371L30.2011 60.9284V62.6889L19.8233 68.6809V66.9204L19.7614 55.06L17.6612 57.7472L16.7037 58.9518L13.9548 56.2028L14.9122 54.9982L21.3985 46.7516C21.4292 46.8751 22.047 48.9753 24.9194 47.6781C27.8537 45.6088 28.4096 42.8289 28.4405 42.7054L34.3091 43.3232L35.915 43.5085Z" fill="#F45170"/>
<path d="M30.2011 60.9283V62.6889L19.8233 68.6809V66.9203L30.2011 60.9283Z" fill="#FEBC1F"/>
<path d="M35.915 43.5086L33.197 49.4078L31.591 49.2225L34.309 43.3232L35.915 43.5086Z" fill="#FEBC1F"/>
<path d="M17.6612 57.7471L16.7037 58.9517L13.9548 56.2028L14.9122 54.9982L17.6612 57.7471Z" fill="#FEBC1F"/>
<path d="M56.6901 29.0426L38.4734 39.56L38.4803 42.6458L56.6901 32.1324V29.0426Z" fill="#57B3FE"/>
<path d="M56.6901 35.9038L38.4734 46.4212L38.4803 49.507L56.6901 38.9936V35.9038Z" fill="#57B3FE"/>
<path d="M51.8988 45.5312L38.4734 53.2824L38.4803 56.3682L51.8988 48.621V45.5312Z" fill="#57B3FE"/>
<path d="M15.2743 78.9759C16.9905 77.9851 18.3934 78.7846 18.399 80.742C18.4046 82.7286 17.0107 85.1281 15.2946 86.119C13.5784 87.1098 12.1883 86.3176 12.1826 84.331C12.1771 82.3736 13.5582 79.9668 15.2743 78.9759Z" fill="#DBA660"/>
<path d="M58.4721 55.1625L21.5052 76.5055L21.5106 78.4483L58.4721 57.1086V55.1625Z" fill="#327AB4"/>
<path d="M54.6465 62.193L54.652 64.1358L21.5218 83.2635L21.5163 81.3207L54.6465 62.193Z" fill="#327AB4"/>
<path d="M15.2743 91.1656C16.9905 90.1748 18.3934 90.9743 18.399 92.9317C18.4046 94.9183 17.0107 97.3178 15.2946 98.3087C13.5784 99.2995 12.1883 98.5073 12.1826 96.5207C12.1771 94.5633 13.5582 92.1565 15.2743 91.1656Z" fill="#B28AFD"/>
<path d="M58.4721 67.3522L21.5052 88.6952L21.5106 90.6379L58.4721 69.2984V67.3522Z" fill="#327AB4"/>
<path d="M54.6465 74.3827L54.652 76.3255L21.5218 95.4532L21.5163 93.5104L54.6465 74.3827Z" fill="#327AB4"/>
<path d="M15.2743 103.355C16.9905 102.364 18.3934 103.164 18.399 105.121C18.4046 107.108 17.0107 109.507 15.2946 110.498C13.5784 111.489 12.1883 110.697 12.1826 108.71C12.1771 106.753 13.5582 104.346 15.2743 103.355Z" fill="#FFD06C"/>
<path d="M58.4721 79.5417L21.5052 100.885L21.5106 102.828L58.4721 81.4879V79.5417Z" fill="#327AB4"/>
<path d="M54.6465 86.5723L54.652 88.515L21.5218 107.643L21.5163 105.7L54.6465 86.5723Z" fill="#327AB4"/>
<path d="M15.2743 115.545C16.9905 114.554 18.3934 115.353 18.399 117.311C18.4046 119.297 17.0107 121.697 15.2946 122.688C13.5784 123.679 12.1883 122.886 12.1826 120.9C12.1771 118.942 13.5582 116.536 15.2743 115.545Z" fill="#57B3FE"/>
<path d="M58.4721 91.7313L21.5052 113.074L21.5106 115.017L58.4721 93.6775V91.7313Z" fill="#327AB4"/>
<path d="M54.6465 98.7618L54.652 100.705L21.5218 119.832L21.5163 117.89L54.6465 98.7618Z" fill="#327AB4"/>
<path d="M15.2743 127.734C16.9905 126.744 18.3934 127.543 18.399 129.5C18.4046 131.487 17.0107 133.887 15.2946 134.877C13.5784 135.868 12.1883 135.076 12.1826 133.089C12.1771 131.132 13.5582 128.725 15.2743 127.734Z" fill="#72D561"/>
<path d="M58.4721 103.921L21.5052 125.264L21.5106 127.207L58.4721 105.867V103.921Z" fill="#327AB4"/>
<path d="M54.6465 110.951L54.652 112.894L21.5218 132.022L21.5163 130.079L54.6465 110.951Z" fill="#327AB4"/>
<path d="M61.5592 138.78V142.527C61.5592 143.141 61.43 143.755 61.1715 144.369V147.987C61.1715 149.538 59.2331 150.927 57.9084 151.703C57.1977 152.09 56.6807 152.317 56.6483 152.349V149.441C56.6162 149.409 56.6162 149.409 56.5838 149.377C56.2283 149.635 55.8085 149.861 55.3885 150.12C48.9914 153.803 40.3006 154.772 35.9715 152.252C34.3561 151.315 33.5808 150.023 33.5808 148.601V144.853C33.5808 142.43 35.7453 139.587 39.7515 137.294C46.1483 133.578 54.8391 132.609 59.1684 135.129C60.7838 136.066 61.5592 137.358 61.5592 138.78Z" fill="#678AEE"/>
<path d="M61.5599 142.541L61.5526 138.796C61.5559 139.939 61.0732 141.177 60.1378 142.409L60.145 146.154C61.0805 144.922 61.5631 143.684 61.5599 142.541Z" fill="#678AEE"/>
<path d="M57.3743 150.799L57.3671 147.054C57.3655 146.487 57.0443 146.01 56.592 145.622L56.5992 149.367C57.0515 149.755 57.3727 150.232 57.3743 150.799Z" fill="#566DF9"/>
<path d="M61.1655 148.001L61.1582 144.256C61.1626 145.802 59.2381 147.181 57.9039 147.951C57.1965 148.36 56.6823 148.585 56.6552 148.597L56.6625 152.342C56.6895 152.33 57.2038 152.105 57.9112 151.696C59.2454 150.926 61.1699 149.547 61.1655 148.001Z" fill="#748BFD"/>
<path d="M33.5791 144.842L33.5864 148.587C33.5905 150.029 34.366 151.319 35.9813 152.258C40.3043 154.77 48.9991 153.806 55.3958 150.113C55.8219 149.867 56.218 149.621 56.5992 149.367L56.592 145.622C56.2108 145.876 55.8147 146.122 55.3885 146.368C48.9919 150.061 40.2971 151.025 35.974 148.513C34.3587 147.574 33.5832 146.284 33.5791 144.842Z" fill="#678AEE"/>
<path d="M60.1357 142.416C62.7502 144.65 59.7553 146.884 57.9014 147.954C57.1884 148.358 56.6892 148.596 56.6654 148.596C57.8064 147.312 57.4022 146.314 56.5942 145.624C56.2138 145.886 55.8098 146.124 55.3819 146.361C48.9881 150.069 40.2888 151.02 35.9628 148.524C31.6606 146.005 33.3481 140.966 39.742 137.282C46.1358 133.574 54.8353 132.623 59.1611 135.119C62.061 136.806 62.2512 139.635 60.1357 142.416Z" fill="#8FABFE"/>
<path d="M43.3796 146.169C42.2881 146.812 40.5124 146.812 39.429 146.169C38.3293 145.541 38.3375 144.515 39.4453 143.88C40.5368 143.244 42.3044 143.236 43.3959 143.88C44.4955 144.507 44.4874 145.541 43.3796 146.169Z" fill="#1A212B"/>
<path d="M55.6957 139.057C54.6041 139.693 52.8284 139.693 51.7369 139.057C50.6454 138.43 50.6617 137.404 51.7532 136.768C52.8529 136.133 54.6286 136.125 55.7119 136.768C56.7953 137.396 56.7953 138.43 55.6957 139.057Z" fill="#1A212B"/>
<path d="M49.5458 142.609C48.4461 143.244 46.6622 143.252 45.5789 142.617C44.4955 141.982 44.5037 140.955 45.5952 140.328C46.6867 139.685 48.4624 139.685 49.5539 140.328C50.6454 140.955 50.6454 141.982 49.5458 142.609Z" fill="#1A212B"/>
</svg>
