<svg width="355" height="355" viewBox="0 0 355 355" fill="none" xmlns="http://www.w3.org/2000/svg">
<path d="M277.137 79.7119C277.137 83.8083 274.269 88.7918 270.651 90.9081L222.18 118.83C220.268 119.991 218.562 119.991 217.401 119.172C217.333 119.172 217.265 119.103 217.265 119.103L212.076 116.1C210.916 115.417 210.165 113.983 210.165 111.935L210.096 78.4831C210.096 74.3871 212.964 69.3352 216.514 67.2872L264.985 39.2966C266.76 38.2728 268.398 38.1362 269.627 38.8187L274.884 41.9592C276.249 42.5734 277.069 44.0755 277.069 46.2602L277.137 79.7119Z" fill="#F9A83D"/>
<path d="M217.6 119.315C216.44 118.641 215.724 117.205 215.718 115.158L215.623 81.7015C215.611 77.5818 218.484 72.5688 222.069 70.4987L270.526 42.522C272.33 41.4804 273.966 41.3849 275.149 42.0723L269.601 38.8482C268.418 38.1608 266.782 38.2562 264.978 39.2979L216.521 67.2745C212.936 69.3446 210.063 74.3576 210.075 78.4773L210.17 111.934C210.176 113.981 210.892 115.417 212.051 116.091L217.6 119.315Z" fill="#F9A83D"/>
<path d="M270.525 42.5221C274.111 40.4522 277.035 42.1189 277.047 46.2385L277.142 79.6952C277.153 83.8148 274.248 88.8087 270.663 90.8785L222.206 118.855C218.62 120.925 215.73 119.278 215.718 115.158L215.623 81.7014C215.611 77.5818 218.483 72.5686 222.068 70.4988L270.525 42.5221Z" fill="#FFD06C"/>
<path d="M195.623 249.361L195.692 263.903C195.692 268.749 192.278 274.689 188.046 277.147L78.8148 340.227C76.4251 341.593 74.3771 341.593 72.9433 340.432C73.08 340.569 73.2166 340.705 73.3529 340.774L54.7838 330.124C53.4184 329.304 52.5308 327.597 52.5308 325.208V310.598H52.4625L51.9167 105.654V91.0448C51.8483 86.1975 55.2618 80.2581 59.5628 77.8005L168.725 14.7882C170.91 13.5589 172.821 13.4227 174.187 14.2419L192.346 24.6189C192.483 24.6869 192.688 24.8235 192.824 24.8919C194.19 25.6427 195.009 27.3495 195.077 29.8071V44.4168L195.145 68.1064L195.418 168.667L195.692 249.293H195.623V249.361Z" fill="#1D2943"/>
<path d="M195.656 249.298L71.1001 321.21L70.5372 116.322L195.089 44.4064L195.656 249.298Z" fill="#638DFF"/>
<path d="M73.3791 340.748L54.7713 330.112C53.3964 329.313 52.5429 327.611 52.5383 325.194L52.4968 310.578L71.1 321.21L71.1415 335.83C71.1507 338.247 71.9996 339.945 73.3791 340.748Z" fill="#1D2943"/>
<path d="M195.655 249.297L195.696 263.916C195.71 268.782 192.29 274.708 188.054 277.153L78.834 340.211C74.5982 342.657 71.1557 340.694 71.1419 335.828L71.1005 321.209L195.655 249.297Z" fill="#4C5C75"/>
<path d="M71.1004 321.209L52.4946 310.576L51.9294 105.687L70.5352 116.32L71.1004 321.209Z" fill="#1D2943"/>
<path d="M65.7296 318.088L71.1005 321.209L70.5353 116.32L65.7296 113.527V318.088Z" fill="#497BFE"/>
<path d="M195.659 249.287L71.0974 321.212L70.5439 116.327L195.091 44.4015L195.161 68.1044L195.437 168.645L195.659 249.287Z" fill="#57B3FE"/>
<path d="M192.81 24.8726C191.416 24.0606 189.488 24.176 187.357 25.4078L78.1357 88.4657C73.9005 90.9108 70.4818 96.8346 70.4957 101.702L70.5372 116.322L51.9294 105.686L51.8879 91.0702C51.874 86.2029 55.2926 80.2792 59.5325 77.8294L168.749 14.7715C170.88 13.5443 172.813 13.4289 174.207 14.2363L192.81 24.8726Z" fill="#1D2943"/>
<path d="M187.356 25.4061C191.592 22.9605 195.034 24.9239 195.048 29.7896L195.09 44.4087L70.5353 116.32L70.4938 101.701C70.48 96.8353 73.9001 90.9098 78.136 88.4643L187.356 25.4061Z" fill="#4C5C75"/>
<path d="M141.912 287.316C144.727 285.691 147.016 286.993 147.025 290.227C147.034 293.462 144.76 297.399 141.945 299.023L124.882 308.875C122.069 310.499 119.781 309.197 119.772 305.963C119.762 302.728 122.036 298.792 124.849 297.168L141.912 287.316Z" fill="#9EA9C9"/>
<path d="M154.917 53.13C156.76 52.0659 158.259 52.9188 158.265 55.0384C158.271 57.1597 156.781 59.7405 154.938 60.8046C153.094 61.8696 151.592 61.0158 151.586 58.8945C151.58 56.7749 153.072 54.195 154.917 53.13Z" fill="#9EA9C9"/>
<path d="M145.939 59.7158C147.11 59.0396 148.063 59.5826 148.067 60.9284C148.071 62.2742 147.124 63.9139 145.953 64.5901L109.446 85.6674C108.275 86.3436 107.322 85.8006 107.318 84.4548C107.314 83.109 108.261 81.4693 109.432 80.7931L145.939 59.7158Z" fill="#9EA9C9"/>
<path d="M87.2324 73.0708C84.0283 71.252 78.7453 71.252 75.5411 73.0708C72.6837 74.7162 72.337 77.2274 74.502 79.0462C74.762 78.7861 75.1082 78.5266 75.5411 78.2665C78.7453 76.4483 84.0283 76.4483 87.2324 78.2665C87.5787 78.5266 87.9249 78.7861 88.2716 79.0462C90.3499 77.2274 90.0037 74.7162 87.2324 73.0708Z" fill="#1A212B"/>
<path d="M75.5411 78.2665C75.1082 78.5266 74.762 78.7861 74.502 79.0462C74.762 79.3057 75.1082 79.5657 75.5411 79.8253C78.8319 81.7307 84.0283 81.7307 87.2324 79.8253C87.5786 79.6524 87.9248 79.3924 88.2716 79.1328V79.0462C87.9248 78.7861 87.5786 78.5266 87.2324 78.2665C84.0283 76.4483 78.7453 76.4483 75.5411 78.2665Z" fill="#4C5C75"/>
<path d="M189.479 190.649L84.1395 251.478L79.4289 248.747L79.0876 127.774L184.427 66.9456L189.138 69.6765L189.479 190.649Z" fill="#205988"/>
<path d="M84.1482 251.491L79.4541 248.764L79.1111 127.78L83.8052 130.508L84.1482 251.491Z" fill="#205988"/>
<path d="M83.8052 130.508L79.1111 127.78L184.441 66.9677L189.135 69.6956L83.8052 130.508Z" fill="#205988"/>
<path d="M189.135 69.6956L189.478 190.679L84.1482 251.491L83.8052 130.508L189.135 69.6956Z" fill="#1A212B"/>
<path d="M142.026 130.5L147.545 128.193L147.564 134.761L142.049 138.825C141.563 143.237 140.177 147.862 138.06 152.336L141.398 155.535L137.389 162.516L132.925 161.23C130.107 165.229 126.788 168.79 123.2 171.473L122.454 178.254L116.737 181.554L115.955 175.656C112.331 177.136 109.036 177.394 106.204 176.657L101.762 183.086L97.7268 180.748L101.036 173.712C98.9661 171.656 97.5262 168.7 97.016 164.902L91.4631 167.151L91.4445 160.583L96.992 156.423C97.5124 152.03 98.9306 147.424 100.949 143.008L97.6107 139.809L101.619 132.866L106.083 134.114C108.868 130.134 112.188 126.611 115.742 123.948L116.555 117.09L122.271 113.79L123.12 119.688C126.678 118.246 129.973 117.988 132.804 118.687L137.247 112.297L141.282 114.595L137.973 121.632C140.042 123.688 141.516 126.663 142.026 130.5ZM119.521 165.144C127.929 160.289 134.72 148.527 134.692 138.865C134.665 129.241 127.83 125.384 119.422 130.238C111.013 135.093 104.289 146.779 104.316 156.403C104.343 166.065 111.112 169.998 119.521 165.144Z" fill="#B28AFD"/>
<path d="M145.5 181.855L149.49 180.164L149.504 184.937L145.517 187.889C145.16 191.079 144.138 194.424 142.616 197.674L145.052 199.978L142.137 205.027L138.906 204.1C136.883 206.989 134.46 209.574 131.869 211.529L131.317 216.438L127.196 218.817L126.618 214.561C123.991 215.618 121.595 215.816 119.563 215.268L116.347 219.917L113.413 218.245L115.828 213.14C114.293 211.655 113.288 209.519 112.914 206.751L108.89 208.385L108.877 203.612L112.897 200.641C113.287 197.432 114.276 194.106 115.765 190.913L113.329 188.61L116.244 183.561L119.475 184.449C121.465 181.579 123.888 179.071 126.478 177.078L127.064 172.149L131.185 169.77L131.796 174.008C134.39 173.007 136.786 172.771 138.818 173.281L142.034 168.67L144.968 170.343L142.553 175.448C144.055 176.914 145.126 179.087 145.5 181.855ZM129.226 206.934C135.275 203.442 140.211 194.893 140.191 187.904C140.171 180.954 135.203 178.161 129.155 181.653C123.039 185.184 118.17 193.656 118.19 200.607C118.209 207.596 123.111 210.465 129.226 206.934Z" fill="#DBA660"/>
<path d="M119.472 136.406C124.856 133.297 129.258 135.844 129.275 142.031C129.293 148.217 124.92 155.791 119.536 158.9C114.119 162.027 109.751 159.5 109.733 153.313C109.716 147.126 114.055 139.534 119.472 136.406Z" fill="#B28AFD"/>
<path d="M161.502 143.048C165.391 140.802 168.592 142.627 168.605 147.095C168.617 151.601 165.437 157.109 161.549 159.355C157.594 161.638 154.426 159.795 154.413 155.288C154.401 150.82 157.547 145.331 161.502 143.048Z" fill="#F45170"/>
<path d="M177.835 138.744L181.825 137.09L181.839 141.864L177.852 144.816C177.495 148.006 176.473 151.35 174.951 154.562L177.388 156.904L174.472 161.953L171.207 161.046C169.185 163.935 166.795 166.5 164.204 168.455L163.652 173.326L159.498 175.725L158.92 171.506C156.326 172.545 153.93 172.742 151.898 172.194L148.682 176.843L145.748 175.171L148.13 170.047C146.628 168.581 145.623 166.445 145.216 163.697L141.226 165.312L141.212 160.538L145.199 157.548C145.589 154.339 146.611 151.033 148.067 147.859L145.664 145.498L148.579 140.487L151.81 141.375C153.8 138.506 156.223 135.959 158.814 134.004L159.366 129.057L163.52 126.658L164.131 130.934C166.725 129.895 169.088 129.717 171.12 130.227L174.369 125.597L177.303 127.231L174.888 132.374C176.39 133.84 177.461 135.976 177.835 138.744ZM161.528 163.842C167.61 160.331 172.546 151.819 172.526 144.831C172.506 137.842 167.538 135.049 161.456 138.56C155.374 142.072 150.505 150.545 150.525 157.533C150.545 164.522 155.446 167.353 161.528 163.842Z" fill="#F45170"/>
<path d="M134.211 197.059C136.978 192.291 136.982 187.127 134.22 185.524C131.458 183.921 126.976 186.486 124.209 191.254C121.442 196.021 121.438 201.186 124.2 202.789C126.963 204.392 131.445 201.826 134.211 197.059Z" fill="#DBA660"/>
<path d="M86.8711 275.064C91.1681 272.583 94.6676 274.565 94.6817 279.515C94.6957 284.452 91.2189 290.474 86.9218 292.955C82.6247 295.436 79.1251 293.442 79.1111 288.504C79.0971 283.555 82.574 277.545 86.8711 275.064Z" fill="#1A212B"/>
<path d="M121.251 254.567C121.827 254.234 122.298 254.503 122.3 255.165C122.302 255.827 121.834 256.638 121.258 256.971L99.8914 269.307C99.3152 269.639 98.8501 269.367 98.8483 268.705C98.8464 268.043 99.3084 267.235 99.8846 266.903L121.251 254.567Z" fill="#1A212B"/>
<path d="M121.299 271.489C121.875 271.156 122.346 271.425 122.348 272.087C122.35 272.749 121.882 273.56 121.306 273.893L99.9394 286.229C99.3632 286.561 98.8981 286.289 98.8962 285.627C98.8944 284.965 99.3564 284.157 99.9326 283.825L121.299 271.489Z" fill="#1A212B"/>
<path d="M131.892 256.901C132.469 256.569 132.94 256.83 132.942 257.499C132.944 258.162 132.475 258.966 131.899 259.298L99.9153 277.764C99.3391 278.097 98.8741 277.832 98.8722 277.17C98.8703 276.5 99.3323 275.7 99.9085 275.367L131.892 256.901Z" fill="#1A212B"/>
<path d="M143.619 242.3C147.916 239.819 151.415 241.802 151.429 246.751C151.443 251.689 147.967 257.711 143.67 260.192C139.372 262.673 135.873 260.679 135.859 255.741C135.845 250.792 139.322 244.781 143.619 242.3Z" fill="#1A212B"/>
<path d="M177.999 221.803C178.575 221.471 179.046 221.739 179.048 222.402C179.05 223.064 178.582 223.875 178.005 224.207L156.639 236.543C156.063 236.876 155.598 236.604 155.596 235.942C155.594 235.279 156.056 234.472 156.632 234.139L177.999 221.803Z" fill="#1A212B"/>
<path d="M178.047 238.725C178.623 238.393 179.094 238.661 179.096 239.323C179.098 239.986 178.63 240.797 178.053 241.129L156.687 253.465C156.111 253.798 155.646 253.526 155.644 252.864C155.642 252.201 156.104 251.394 156.68 251.061L178.047 238.725Z" fill="#1A212B"/>
<path d="M188.64 224.138C189.216 223.805 189.688 224.067 189.689 224.736C189.691 225.398 189.223 226.202 188.647 226.535L156.663 245.001C156.087 245.333 155.622 245.068 155.62 244.406C155.618 243.737 156.08 242.936 156.656 242.604L188.64 224.138Z" fill="#1A212B"/>
<path d="M303.079 243.49C303.147 250.658 298.027 259.533 291.746 263.151L203.338 314.149C199.924 316.128 196.852 316.197 194.804 314.627C194.872 314.695 194.872 314.695 194.872 314.763L185.792 309.506C183.744 308.278 182.447 305.752 182.447 302.201L182.174 203.484V197.135C182.106 189.899 187.226 181.092 193.507 177.405L281.916 126.408C285.056 124.565 287.923 124.429 290.039 125.657L298.983 130.846L299.324 131.05C299.393 131.05 299.393 131.119 299.461 131.119C301.509 132.348 302.738 134.874 302.806 138.424V144.773L303.079 243.49Z" fill="#205988"/>
<path d="M195.204 314.981L185.759 309.488C183.749 308.282 182.477 305.736 182.477 302.186L182.141 203.41L191.587 208.903L191.922 307.679C191.922 311.229 193.195 313.775 195.204 314.981Z" fill="#205988"/>
<path d="M191.601 208.926L302.805 144.771L303.112 243.477C303.132 250.653 298.017 259.514 291.729 263.144L203.365 314.161C197.035 317.815 191.929 314.856 191.909 307.681L191.601 208.926Z" fill="#205988"/>
<path d="M298.278 243.501C298.278 248.981 294.144 256.191 289.338 258.978L200.991 310.025C199.55 310.794 198.684 310.89 198.204 310.89C196.858 310.89 196.762 308.679 196.762 307.622L196.377 211.681L297.99 153.039L298.278 243.501Z" fill="#1A212B"/>
<path d="M302.806 138.424V144.773L191.595 208.946L182.174 203.484V197.135C182.106 189.899 187.226 181.092 193.507 177.405L281.916 126.408C285.056 124.565 287.923 124.429 290.039 125.657L298.983 130.846L299.324 131.05C299.393 131.05 299.393 131.119 299.461 131.119C301.509 132.348 302.738 134.874 302.806 138.424Z" fill="#DF3260"/>
<path d="M291.33 131.902C297.617 128.272 302.767 131.207 302.787 138.431L302.805 144.771L191.601 208.975L191.583 202.635C191.563 195.41 196.636 186.574 202.966 182.919L291.33 131.902Z" fill="#F45170"/>
<path d="M290.006 125.632C287.927 124.424 285.051 124.588 281.887 126.415L193.523 177.432C187.193 181.087 182.12 189.923 182.141 197.148L182.159 203.488L191.601 208.975L191.583 202.635C191.563 195.41 196.636 186.574 202.966 182.92L291.33 131.903C294.494 130.076 297.37 129.912 299.449 131.12L290.006 125.632Z" fill="#DF3260"/>
<path d="M232.527 223.239V227.078L214.742 237.342V233.503L232.527 223.239Z" fill="#4C5C75"/>
<path d="M220.54 218.146L208.787 236.48L206.594 234.834L215.369 221.123L206.516 217.52L208.709 213.367L220.54 218.146Z" fill="#4C5C75"/>
<path d="M213.408 277.115L213.448 290.085L201.193 296.609L201.153 283.639L213.408 277.115Z" fill="#B28AFD"/>
<path d="M231.604 267.428L231.616 271.079L223.455 275.424L223.444 271.773L231.604 267.428Z" fill="#205988"/>
<path d="M291.888 235.337L291.899 238.988L256.833 257.655L256.822 254.004L291.888 235.337Z" fill="#C9CEE2"/>
<path d="M252.814 256.138L252.825 259.789L236.648 268.401L236.636 264.75L252.814 256.138Z" fill="#205988"/>
<path d="M231.633 276.625L231.644 280.276L223.483 284.62L223.472 280.969L231.633 276.625Z" fill="#205988"/>
<path d="M280.468 250.628L280.479 254.279L236.676 277.597L236.665 273.946L280.468 250.628Z" fill="#205988"/>
<path d="M213.408 252.707L213.448 265.677L201.193 272.201L201.153 259.231L213.408 252.707Z" fill="#F45170"/>
<path d="M231.604 243.021L231.616 246.672L223.455 251.016L223.444 247.365L231.604 243.021Z" fill="#205988"/>
<path d="M291.888 210.929L291.899 214.58L256.833 233.247L256.822 229.596L291.888 210.929Z" fill="#FFD06C"/>
<path d="M252.814 231.73L252.825 235.381L236.648 243.993L236.636 240.342L252.814 231.73Z" fill="#205988"/>
<path d="M231.633 252.217L231.644 255.868L223.483 260.212L223.472 256.561L231.633 252.217Z" fill="#205988"/>
<path d="M280.468 226.22L280.479 229.871L236.676 253.189L236.665 249.538L280.468 226.22Z" fill="#205988"/>
<path d="M203.775 187.963C206.315 186.496 208.354 187.658 208.362 190.504C208.37 193.349 206.345 196.858 203.805 198.324C201.328 199.754 199.289 198.592 199.281 195.747C199.273 192.901 201.299 189.392 203.775 187.963Z" fill="#1A212B"/>
<path d="M216.984 180.336C219.524 178.87 221.499 180.068 221.507 182.914C221.515 185.76 219.553 189.232 217.013 190.698C214.537 192.128 212.498 190.966 212.49 188.12C212.482 185.275 214.507 181.766 216.984 180.336Z" fill="#1A212B"/>
<path d="M230.192 172.711C232.669 171.281 234.708 172.442 234.716 175.288C234.724 178.134 232.698 181.642 230.222 183.072C227.682 184.539 225.707 183.34 225.699 180.494C225.69 177.649 227.652 174.177 230.192 172.711Z" fill="#1A212B"/>
<path d="M290.584 137.844C293.06 136.414 295.099 137.576 295.107 140.421C295.115 143.267 293.09 146.775 290.613 148.205L256.004 168.187C253.527 169.617 251.489 168.455 251.481 165.609C251.473 162.763 253.498 159.255 255.975 157.825L290.584 137.844Z" fill="#1A212B"/>
<path d="M291.888 188.754L291.899 192.405L256.833 211.072L256.822 207.421L291.888 188.754Z" fill="#DBA660"/>
<path d="M252.814 209.555L252.825 213.206L236.648 221.818L236.636 218.167L252.814 209.555Z" fill="#205988"/>
<path d="M280.468 204.045L280.479 207.696L236.676 231.014L236.665 227.363L280.468 204.045Z" fill="#205988"/>
<path d="M291.888 164.346L291.899 167.997L256.833 186.664L256.822 183.013L291.888 164.346Z" fill="#78E75A"/>
<path d="M252.814 185.147L252.825 188.798L236.648 197.41L236.636 193.759L252.814 185.147Z" fill="#205988"/>
<path d="M280.468 179.637L280.479 183.288L236.676 206.606L236.665 202.955L280.468 179.637Z" fill="#205988"/>
<path d="M239.278 76.3096C239.687 76.0732 240.095 76.0373 240.385 76.2689C240.917 76.6633 240.867 77.7595 240.233 78.7355L234.685 87.4584L240.291 89.7108C240.902 89.968 240.984 90.9877 240.456 92.0242C240.166 92.5882 239.743 93.0157 239.319 93.2605C239.001 93.444 238.656 93.5211 238.364 93.4154L231.482 90.5882C231.163 90.4368 230.977 90.0872 230.975 89.6C230.974 89.0826 231.158 88.5187 231.475 88.0306L238.318 77.2795C238.594 76.8428 238.937 76.5065 239.278 76.3096Z" fill="#1D2943"/>
<path d="M251.269 63.8792C251.478 63.7584 251.691 63.6868 251.894 63.6778C252.637 63.6453 252.958 64.4664 252.616 65.5178L242.829 95.7473C242.566 96.5395 242.037 97.1803 241.48 97.5015L240.871 97.7012C240.128 97.7641 239.807 96.9126 240.149 95.8918L249.936 65.632C250.184 64.8681 250.713 64.1999 251.269 63.8792Z" fill="#1D2943"/>
<path d="M253.427 68.1404C253.774 67.9399 254.123 67.8773 254.401 67.9942L261.282 70.8214C261.601 70.9423 261.788 71.292 261.789 71.8094C261.791 72.2967 261.607 72.8604 261.29 73.3789L254.42 84.1453C254.156 84.5723 253.812 84.8929 253.467 85.0918C253.043 85.3366 252.645 85.3833 252.353 85.1558C251.821 84.7312 251.897 83.6197 252.505 82.6588L258.053 73.9663L252.474 71.6682C251.863 71.4112 251.78 70.3915 252.308 69.3852C252.596 68.8198 253.011 68.3809 253.427 68.1404Z" fill="#1D2943"/>
</svg>
