<svg width="260" height="321" viewBox="0 0 260 321" fill="none" xmlns="http://www.w3.org/2000/svg">
<path d="M230.975 190.948C230.975 197.032 226.829 204.388 221.48 207.463L27.1036 319.73C24.4957 321.268 22.0887 321.335 20.3501 320.331C20.2832 320.264 20.2167 320.198 20.2167 320.198C20.0828 320.131 19.949 320.131 19.8155 319.997L3.29964 310.435C1.56108 309.366 0.491419 307.226 0.491419 304.217L0.0233154 141.467L213.456 18.2353L230.574 28.1981L230.975 190.948Z" fill="#DEDFFB"/>
<path d="M20.3836 320.341L3.31003 310.447C1.56396 309.379 0.497008 307.245 0.497008 304.238L0.012085 141.5L17.085 151.395L17.5705 314.133C17.5705 317.237 18.6375 319.371 20.3836 320.341Z" fill="#205988"/>
<path d="M17.1247 151.391L0.0319824 141.458L213.465 18.2321L230.558 28.1653L17.1247 151.391Z" fill="#1D2943"/>
<path d="M230.558 28.1653L230.986 190.954C231.004 197.004 226.806 204.417 221.479 207.493L27.1232 319.704C21.8585 322.744 17.5707 320.229 17.5536 314.18L17.1252 151.391L230.558 28.1653Z" fill="#1D2943"/>
<path d="M230.641 28.0646L17.141 151.297L0.0236017 141.4V130.234C-0.0433289 124.15 4.23613 116.727 9.58525 113.652L203.895 1.45208C206.57 -0.0856841 208.977 -0.219544 210.715 0.783594L227.03 10.3452C227.164 10.4122 227.298 10.4791 227.432 10.546C227.565 10.6126 227.699 10.6795 227.766 10.7464C229.504 11.7496 230.574 13.8893 230.574 16.8979L230.641 28.0646Z" fill="#7E5AF2"/>
<path d="M210.688 0.796381C208.947 -0.215502 206.536 -0.0799138 203.863 1.46367L9.56942 113.639C4.24297 116.715 -0.0165316 124.164 4.82377e-05 130.213L0.0320212 141.387L17.1245 151.321L17.0931 140.147C17.0759 134.097 21.3354 126.648 26.6619 123.572L220.956 11.3966C223.629 9.85359 226.04 9.71801 227.781 10.7299L210.688 0.796381Z" fill="#7E5AF2"/>
<path d="M220.956 11.3961C226.283 8.32075 230.571 10.8353 230.588 16.8848L230.62 28.0587L17.1247 151.32L17.0931 140.146C17.0759 134.097 21.3354 126.647 26.6621 123.572L220.956 11.3961Z" fill="#B28AFD"/>
<path d="M32.6074 127.17C35.3945 125.561 37.6315 126.836 37.6406 130.038C37.6499 133.312 35.4274 137.162 32.6403 138.771C29.8532 140.38 27.6164 139.105 27.6071 135.831C27.598 132.628 29.8203 128.779 32.6074 127.17Z" fill="#1A212B"/>
<path d="M51.3743 116.335C54.1615 114.726 56.4602 115.965 56.4693 119.167C56.4786 122.441 54.1944 126.326 51.4072 127.936C48.6201 129.545 46.3831 128.27 46.3738 124.996C46.3647 121.793 48.5872 117.944 51.3743 116.335Z" fill="#1A212B"/>
<path d="M70.203 105.464C72.9282 103.891 75.2272 105.13 75.2362 108.332C75.2455 111.606 72.9611 115.491 70.2359 117.065C67.3868 118.71 65.1498 117.435 65.1405 114.161C65.1315 110.959 67.3539 107.109 70.203 105.464Z" fill="#1A212B"/>
<path d="M216.19 22.4613C218.296 21.2455 220.098 22.2012 220.105 24.6921C220.112 27.1831 218.322 30.2838 216.216 31.4996L126.408 83.3503C124.178 84.6376 122.438 83.575 122.431 81.084C122.424 78.5931 124.153 75.5992 126.383 74.3119L216.19 22.4613Z" fill="#1A212B"/>
<path d="M220.698 46.038L221.056 191.323L27.412 303.124L27.0543 157.838L220.698 46.038Z" fill="#1A212B"/>
<path d="M212.921 88.8447C212.921 89.6471 212.453 90.5163 211.717 90.9175L203.092 95.9324C202.758 96.1332 202.424 96.1332 202.223 95.9993L198.01 93.1911L194.065 111.044C193.932 111.712 193.463 112.381 192.928 112.716C192.26 113.05 191.792 112.849 191.725 112.247L186.911 85.0334L182.297 106.631C182.163 107.3 181.695 107.968 181.16 108.236L161.101 119.803C160.633 120.071 160.232 120.071 160.031 119.736L157.356 115.725L151.339 135.517C151.138 136.118 150.737 136.653 150.269 136.921C149.533 137.255 149.132 137.055 149.065 136.519L144.318 108.503L137.899 132.775C137.698 133.377 137.23 133.979 136.762 134.313L116.703 145.881C116.301 146.081 115.9 146.081 115.699 145.814L112.623 141.869L107.007 163.332C106.806 163.934 106.339 164.603 105.87 164.87C105.202 165.204 104.8 165.004 104.667 164.469L99.5851 135.049L94.3695 157.649C94.1691 158.251 93.7679 158.92 93.2329 159.254L71.836 171.624C71.3679 171.824 70.9667 171.824 70.7663 171.49L68.6266 168.013L63.2775 187.471C63.0767 188.073 62.6086 188.741 62.1405 189.009C61.472 189.276 61.0039 189.075 60.937 188.474L56.2563 158.251L50.1049 182.991C49.971 183.659 49.5033 184.261 48.9683 184.595L36.3976 191.817C35.7287 192.218 35.1941 191.95 35.1941 191.215C35.1941 190.413 35.7287 189.476 36.3976 189.075L48.1659 182.322L55.5209 152.5C55.6548 151.831 56.1898 151.163 56.6575 150.829C57.3264 150.561 57.7276 150.762 57.8614 151.364L62.6086 181.988L67.3561 164.803C67.4896 164.269 67.9577 163.667 68.4258 163.332C68.8939 163.065 69.362 163.132 69.5628 163.399L72.5714 168.414L92.2967 156.98L98.7159 129.298C98.8493 128.629 99.3174 127.961 99.8524 127.693C100.454 127.359 100.922 127.56 101.056 128.161L106.205 157.983L111.22 139.06C111.353 138.458 111.755 137.857 112.222 137.59C112.757 137.255 113.159 137.255 113.359 137.523L117.371 142.738L135.893 132.04L143.649 103.154C143.783 102.485 144.184 101.883 144.719 101.616C145.388 101.282 145.856 101.415 145.923 102.017L150.737 130.435L156.086 112.649C156.287 112.114 156.688 111.512 157.156 111.245C157.624 110.977 158.025 110.977 158.225 111.311L161.836 116.661L180.224 106.029L186.042 79.0827C186.175 78.4138 186.643 77.7453 187.178 77.4111C187.78 77.0764 188.248 77.2772 188.382 77.8788L193.196 105.16L196.272 91.0514C196.406 90.5163 196.74 89.9813 197.141 89.5801C197.743 89.2459 198.077 89.179 198.344 89.3797L203.627 92.8569L211.717 88.1762C212.386 87.7751 212.921 88.1093 212.921 88.8447Z" fill="#4C5C75"/>
<path d="M49.6966 263.089L49.7438 279.733L35.2416 288.106L35.1945 271.461L49.6966 263.089Z" fill="#BF7D5A"/>
<path d="M71.2276 250.657L71.2409 255.343L61.5842 260.918L61.5709 256.233L71.2276 250.657Z" fill="#DEDFFB"/>
<path d="M142.561 209.473L142.574 214.159L101.081 238.115L101.068 233.429L142.561 209.473Z" fill="#57B3FE"/>
<path d="M208.741 183.085L208.754 187.771L135.834 229.871L135.821 225.186L208.741 183.085Z" fill="#DEDFFB"/>
<path d="M183.269 185.97L183.282 190.656L148.409 210.79L148.396 206.104L183.269 185.97Z" fill="#DEDFFB"/>
<path d="M96.325 236.168L96.3382 240.853L77.1954 251.905L77.1821 247.22L96.325 236.168Z" fill="#DEDFFB"/>
<path d="M71.2611 262.459L71.2743 267.145L61.6177 272.72L61.6044 268.035L71.2611 262.459Z" fill="#DEDFFB"/>
<path d="M129.048 229.096L129.061 233.782L77.2289 263.707L77.2156 259.022L129.048 229.096Z" fill="#DEDFFB"/>
<path d="M49.6966 236.49L49.7438 253.135L35.2416 261.508L35.1945 244.863L49.6966 236.49Z" fill="#F45170"/>
<path d="M71.2276 224.059L71.2409 228.745L61.5842 234.32L61.5709 229.635L71.2276 224.059Z" fill="#DEDFFB"/>
<path d="M142.561 182.875L142.574 187.561L101.081 211.517L101.068 206.831L142.561 182.875Z" fill="#DEDFFB"/>
<path d="M208.741 156.487L208.754 161.173L135.834 203.273L135.821 198.588L208.741 156.487Z" fill="#DEDFFB"/>
<path d="M183.269 159.372L183.282 164.058L148.409 184.192L148.396 179.506L183.269 159.372Z" fill="#F45170"/>
<path d="M96.325 209.57L96.3382 214.255L77.1954 225.307L77.1821 220.622L96.325 209.57Z" fill="#DEDFFB"/>
<path d="M71.2611 235.862L71.2743 240.547L61.6177 246.122L61.6044 241.437L71.2611 235.862Z" fill="#DEDFFB"/>
<path d="M129.048 202.498L129.061 207.184L77.2289 237.109L77.2156 232.424L129.048 202.498Z" fill="#DEDFFB"/>
<path d="M49.6964 209.892L49.7436 226.537L35.2414 234.91L35.1942 218.265L49.6964 209.892Z" fill="#8FABFE"/>
<path d="M71.2275 197.461L71.2408 202.147L61.5841 207.722L61.5708 203.037L71.2275 197.461Z" fill="#DBA660"/>
<path d="M142.561 156.277L142.575 160.962L101.081 184.918L101.068 180.233L142.561 156.277Z" fill="#DEDFFB"/>
<path d="M208.741 129.889L208.754 134.575L135.834 176.675L135.821 171.99L208.741 129.889Z" fill="#DEDFFB"/>
<path d="M183.27 132.774L183.283 137.46L148.41 157.594L148.396 152.908L183.27 132.774Z" fill="#DEDFFB"/>
<path d="M96.3248 182.971L96.3381 187.657L77.1953 198.709L77.182 194.024L96.3248 182.971Z" fill="#DEDFFB"/>
<path d="M71.2608 209.263L71.2741 213.949L61.6174 219.524L61.6041 214.839L71.2608 209.263Z" fill="#DEDFFB"/>
<path d="M129.048 175.9L129.061 180.586L77.2287 210.511L77.2155 205.826L129.048 175.9Z" fill="#DEDFFB"/>
<path d="M212.946 121.531L208.697 120.85L204.146 123.477L209.952 145.107L186.789 158.481L181.711 139.564L177.463 138.883L172.911 141.511L219.966 316.802L224.214 317.483L228.766 314.855L222.959 293.225L246.123 279.852L251.2 298.768L255.449 299.449L260 296.822L212.946 121.531ZM212.241 153.634L218.43 176.688L195.267 190.061L189.078 167.007L212.241 153.634ZM229.182 216.743L235.37 239.797L212.207 253.17L206.019 230.116L229.182 216.743ZM203.73 221.589L197.555 198.588L220.719 185.214L226.893 208.216L203.73 221.589ZM214.496 261.697L237.659 248.324L243.833 271.325L220.67 284.698L214.496 261.697Z" fill="#BF7D5A"/>
<path d="M255.449 299.449L251.2 298.768L245.394 277.138L249.642 277.82L255.449 299.449Z" fill="#AA6256"/>
<path d="M248.081 272.006L243.833 271.325L236.93 245.61L241.179 246.291L248.081 272.006Z" fill="#AA6256"/>
<path d="M239.618 240.478L235.37 239.797L228.453 214.029L232.701 214.711L239.618 240.478Z" fill="#AA6256"/>
<path d="M217.452 289.691L213.203 289.009L243.834 271.325L248.082 272.006L217.452 289.691Z" fill="#BF7D5A"/>
<path d="M231.141 208.898L226.893 208.216L219.99 182.501L224.239 183.183L231.141 208.898Z" fill="#AA6256"/>
<path d="M208.988 258.163L204.74 257.481L235.37 239.797L239.619 240.478L208.988 258.163Z" fill="#BF7D5A"/>
<path d="M222.678 177.369L218.429 176.688L211.513 150.921L215.761 151.602L222.678 177.369Z" fill="#AA6256"/>
<path d="M200.511 226.582L196.263 225.901L226.893 208.216L231.141 208.898L200.511 226.582Z" fill="#BF7D5A"/>
<path d="M208.394 124.159L204.146 123.477L208.697 120.85L212.946 121.531L208.394 124.159Z" fill="#BF7D5A"/>
<path d="M214.2 145.788L209.952 145.107L204.146 123.477L208.394 124.159L214.2 145.788Z" fill="#AA6256"/>
<path d="M195.994 192.775L191.746 192.093L218.429 176.688L222.678 177.369L195.994 192.775Z" fill="#BF7D5A"/>
<path d="M187.517 161.194L183.269 160.513L209.952 145.107L214.2 145.789L187.517 161.194Z" fill="#BF7D5A"/>
<path d="M224.214 317.483L219.966 316.801L172.911 141.511L177.16 142.192L224.214 317.483Z" fill="#AA6256"/>
<path d="M208.394 124.159L212.946 121.531L260 296.822L255.449 299.449L249.642 277.82L222.959 293.225L228.765 314.855L224.214 317.483L177.16 142.192L181.711 139.564L187.517 161.194L214.2 145.788L208.394 124.159ZM239.619 240.478L232.702 214.711L206.018 230.116L212.935 255.884L239.619 240.478ZM222.678 177.369L215.761 151.602L189.078 167.007L195.995 192.775L222.678 177.369ZM248.082 272.006L241.179 246.291L214.496 261.697L221.399 287.412L248.082 272.006ZM231.141 208.898L224.238 183.183L197.555 198.588L204.458 224.303L231.141 208.898Z" fill="#DBA660"/>
<path d="M177.16 142.192L172.911 141.511L177.463 138.883L181.711 139.564L177.16 142.192Z" fill="#BF7D5A"/>
<path d="M183.835 281.082L152.944 263.296C150.336 261.758 146.19 261.758 143.649 263.296L112.959 281.082C111.306 282.084 110.742 283.423 111.265 284.678C111.128 284.373 111.019 284.066 111.019 283.756V294.254C111.019 295.19 111.688 296.193 112.959 296.929L143.85 314.782C146.458 316.253 150.604 316.253 153.145 314.782L183.835 296.929C185.106 296.193 185.774 295.257 185.774 294.254V283.823C185.774 282.82 185.173 281.884 183.835 281.082ZM111.265 284.678C111.441 285.096 111.739 285.512 112.156 285.896C111.732 285.51 111.454 285.095 111.265 284.678Z" fill="#5EC363"/>
<path d="M183.852 286.499L153.186 304.32C150.609 305.818 146.472 305.818 143.878 304.32L112.992 286.488C111.687 285.734 111.035 284.753 111.037 283.773L111.016 294.224C111.013 295.204 111.665 296.185 112.97 296.939L143.857 314.771C146.451 316.269 150.587 316.269 153.164 314.771L183.831 296.95C185.111 296.206 185.752 295.24 185.755 294.273L185.776 283.822C185.773 284.789 185.133 285.755 183.852 286.499Z" fill="#5EC363"/>
<path d="M183.822 281.107C186.416 282.605 186.43 285.001 183.853 286.499L153.186 304.32C150.61 305.817 146.473 305.818 143.879 304.32L112.992 286.487C110.398 284.99 110.385 282.594 112.962 281.096L143.628 263.275C146.205 261.777 150.342 261.777 152.936 263.275L183.822 281.107Z" fill="#78E75A"/>
<path d="M161.584 293.674L158.384 291.826C156.22 292.73 153.768 293.301 151.24 293.542L151.254 296.155L145.698 296.156L145.684 293.542C143.15 293.302 140.694 292.73 138.52 291.826L135.341 293.673L131.4 291.398L134.578 289.551C133.011 288.294 132.016 286.873 131.595 285.407H127.08L127.063 282.189L131.574 282.188C131.981 280.723 132.959 279.3 134.512 278.044L131.313 276.197L135.229 273.921L138.428 275.768C140.596 274.865 143.045 274.293 145.573 274.053L145.56 271.44L151.116 271.439L151.131 274.054C153.663 274.293 156.12 274.865 158.295 275.768L161.473 273.921L165.415 276.197L162.237 278.044C163.803 279.301 164.797 280.722 165.22 282.189L169.733 282.188L169.75 285.406L165.239 285.407C164.832 286.872 163.852 288.292 162.3 289.55L165.501 291.398L161.584 293.674ZM139.54 288.951C144.468 291.796 152.435 291.797 157.332 288.951C162.231 286.105 162.202 281.49 157.274 278.645C152.345 275.799 144.378 275.798 139.48 278.644C134.583 281.49 134.611 286.105 139.54 288.951Z" fill="#1A212B"/>
<path d="M153.728 280.706C156.686 282.413 156.703 285.182 153.764 286.89C150.826 288.598 146.044 288.598 143.087 286.89C140.128 285.182 140.114 282.413 143.053 280.706C145.991 278.998 150.769 278.997 153.728 280.706Z" fill="#1A212B"/>
</svg>
