<svg width="200" height="364" viewBox="0 0 200 364" fill="none" xmlns="http://www.w3.org/2000/svg">
<path d="M195.602 186.226C192.384 189.905 189.625 194.58 187.326 199.178C191.541 202.014 193.61 205.539 193.61 209.141L193.457 245.008C193.457 248.916 190.927 252.748 185.793 255.737C175.6 261.639 158.893 261.639 148.623 255.737C143.412 252.672 140.806 248.763 140.806 244.855L141.036 208.911C141.036 205.08 143.565 201.171 148.623 198.259C149.39 197.799 150.233 197.416 151.075 197.109C149.39 192.128 146.784 187.683 142.415 184.77C141.572 184.31 140.73 183.774 139.81 183.391C139.81 183.391 150.539 183.161 159.123 188.909C159.353 189.062 159.659 189.215 159.889 189.522C158.893 186.226 154.984 172.968 158.127 163.925C158.279 163.465 158.433 163.005 158.663 162.545C159.276 161.089 160.195 159.786 161.345 158.713C161.345 158.713 165.79 173.275 169.086 179.789C169.775 181.245 170.695 182.778 171.691 184.387C172.841 181.015 173.761 176.033 171.768 171.359C172.764 172.508 180.734 182.164 180.581 192.434C189.165 184.847 198.591 182.625 199.818 182.395C198.362 183.468 196.905 184.77 195.602 186.226Z" fill="#57B3FE"/>
<path d="M193.62 209.104L193.451 245.008C193.44 248.879 190.899 252.746 185.809 255.703C175.573 261.652 158.899 261.643 148.613 255.704C143.424 252.708 140.83 248.771 140.841 244.841L141.01 208.938C140.999 212.867 143.592 216.804 148.781 219.8C159.068 225.739 175.742 225.749 185.978 219.8C191.067 216.842 193.609 212.975 193.62 209.104Z" fill="#57B3FE"/>
<path d="M185.857 198.254C196.143 204.193 196.231 213.842 185.978 219.8C175.742 225.749 159.068 225.739 148.781 219.8C138.478 213.851 138.407 204.193 148.643 198.245C158.896 192.286 175.553 192.305 185.857 198.254Z" fill="#205988"/>
<path d="M151.608 208.849C155.916 206.345 161.573 205.097 167.238 205.097C172.394 205.097 177.553 206.131 181.706 208.203C181.9 208.3 182.095 208.398 182.285 208.499C182.499 208.611 182.709 208.728 182.915 208.849C185.275 210.211 186.993 211.81 188.076 213.512C188.775 212.421 189.211 211.286 189.373 210.14C189.902 206.508 187.736 202.741 182.915 199.957C182.709 199.836 182.499 199.72 182.285 199.607C182.095 199.506 181.9 199.409 181.706 199.311C177.553 197.239 172.394 196.205 167.238 196.205C161.573 196.205 155.916 197.453 151.608 199.957C146.845 202.725 144.734 206.431 145.262 210.066C145.43 211.205 145.864 212.334 146.555 213.422C147.619 211.754 149.299 210.191 151.608 208.849Z" fill="#57B3FE"/>
<path d="M188.075 213.511C187.869 213.834 187.643 214.152 187.39 214.467C186.333 215.782 184.875 217.01 183.009 218.087C182.53 218.367 182.036 218.628 181.523 218.877C180.87 219.195 180.19 219.487 179.486 219.755C176.857 220.755 173.934 221.396 170.928 221.68C170.454 221.723 169.972 221.758 169.493 221.785C169.451 221.789 169.412 221.789 169.369 221.789C168.447 221.839 167.518 221.855 166.593 221.835C166.398 221.832 166.204 221.824 166.01 221.816C164.94 221.781 163.883 221.695 162.829 221.571C160.644 221.307 158.513 220.848 156.519 220.195C155.562 219.884 154.637 219.526 153.75 219.125C153.046 218.81 152.366 218.464 151.721 218.087C149.804 216.979 148.311 215.723 147.238 214.382C146.985 214.067 146.759 213.744 146.553 213.422C147.619 211.753 149.298 210.19 151.608 208.849C151.938 208.655 152.28 208.472 152.627 208.293C154.784 207.189 157.226 206.368 159.804 205.836C162.203 205.342 164.719 205.097 167.238 205.097C168.055 205.097 168.871 205.124 169.684 205.179C169.948 205.19 170.213 205.21 170.473 205.237C173.401 205.482 176.255 206.069 178.856 206.998C179.847 207.348 180.8 207.753 181.706 208.204C181.9 208.301 182.095 208.398 182.285 208.499C182.499 208.612 182.709 208.728 182.915 208.849C183.362 209.11 183.79 209.374 184.191 209.65C185.905 210.82 187.2 212.131 188.075 213.511Z" fill="#FEBC1F"/>
<path d="M169.973 188.392C169.973 188.392 175.195 179.16 171.706 171.198C171.706 171.198 186.399 187.947 177.909 201.491C169.419 215.034 169.973 188.392 169.973 188.392Z" fill="#5EC363"/>
<path d="M178.881 201.303C178.305 207.561 172.913 215.953 172.913 215.953C172.913 215.953 172.819 215.946 172.65 215.932C171.15 215.811 163.675 215.11 162.067 212.945C161.683 212.426 161.373 211.084 161.13 209.29C160.24 202.753 160.179 190.258 160.179 190.258C160.179 190.258 154.525 174.24 158.099 163.926C158.254 163.461 158.436 163.009 158.635 162.567C159.303 161.097 160.196 159.779 161.366 158.687C161.366 158.687 165.779 173.265 169.073 179.823C172.367 186.381 179.458 195.046 178.881 201.303Z" fill="#72D561"/>
<path d="M171.356 207.972C170.853 208.623 170.26 209.233 169.505 209.56C168.871 209.833 168.166 209.887 167.475 209.928C165.334 210.052 163.112 210.079 161.13 209.29C160.24 202.753 160.179 190.258 160.179 190.258C160.179 190.258 154.525 174.24 158.099 163.926C158.723 164.681 159.188 165.504 159.373 166.172C159.744 167.517 159.38 168.99 159.791 170.325C160.429 172.389 162.762 173.64 163.217 175.753C163.392 176.576 163.254 177.439 163.375 178.272C163.605 179.83 164.697 181.094 165.614 182.375C166.996 184.3 168.058 186.428 169.117 188.545C169.93 190.174 170.742 191.802 171.555 193.431C172.276 194.88 173.005 196.34 173.412 197.905C174.306 201.337 173.524 205.164 171.356 207.972Z" fill="#78E75A"/>
<path d="M200 182.288C198.443 183.373 196.97 184.725 195.594 186.261C189.524 193.023 185.21 203.371 182.755 210.466C182.695 210.644 182.634 210.817 182.578 210.991C181.105 215.312 180.357 218.303 180.357 218.303C180.357 218.303 180.3 218.722 180.144 219.41C179.548 219.701 178.927 219.967 178.285 220.212C176.107 221.038 173.709 221.599 171.232 221.886C170.981 221.918 170.729 221.943 170.477 221.968C170.044 222.007 169.604 222.039 169.168 222.063C169.129 222.067 169.093 222.067 169.054 222.067C168.213 222.113 167.365 222.127 166.521 222.109C166.344 222.106 166.166 222.099 165.989 222.092C166.209 220.382 166.55 218.59 166.954 216.859C167.724 213.546 168.703 210.434 169.437 208.497C169.519 208.284 169.593 208.086 169.668 207.901C169.796 207.589 169.92 207.288 170.051 206.986L170.062 206.965C172.109 202.193 174.815 198.309 177.76 195.158C187.551 184.675 200 182.288 200 182.288Z" fill="#72D561"/>
<path d="M169.437 208.497L169.185 217.263L169.054 222.067C168.213 222.113 167.366 222.127 166.521 222.109C166.344 222.106 166.166 222.099 165.989 222.092C165.907 222.088 165.829 222.085 165.748 222.081C164.854 222.046 163.97 221.971 163.087 221.868C161.093 221.627 159.149 221.208 157.329 220.612C156.457 220.329 155.612 220.002 154.803 219.637C154.47 216.87 154.225 213.428 153.778 209.753C153.75 209.512 153.721 209.271 153.689 209.026C152.561 200.089 150.156 189.947 142.394 184.806C141.596 184.278 140.741 183.799 139.822 183.384C139.822 183.384 150.546 183.189 159.092 188.879C164.247 192.306 168.607 197.879 169.342 206.912C169.345 206.919 169.345 206.922 169.345 206.929C169.391 207.444 169.42 207.965 169.437 208.497Z" fill="#78E75A"/>
<path d="M169.437 208.497L169.185 217.263L169.054 222.067C168.213 222.113 167.366 222.127 166.521 222.109C166.344 222.106 166.166 222.099 165.989 222.092C165.907 222.088 165.829 222.085 165.748 222.081C162.605 216.76 162.988 209.881 160.636 204.077C159.486 201.232 157.688 198.681 156.563 195.822C155.811 193.913 155.353 191.855 154.2 190.156C152.856 188.18 150.72 186.914 148.652 185.711C148.116 185.395 147.57 185.08 146.97 184.916C146.332 184.743 145.661 184.746 145.001 184.75C144.139 184.757 143.267 184.799 142.394 184.806C141.596 184.278 140.741 183.799 139.822 183.384C139.822 183.384 150.546 183.189 159.092 188.879C164.247 192.306 168.607 197.879 169.342 206.912C169.345 206.919 169.345 206.922 169.345 206.929C169.391 207.444 169.42 207.965 169.437 208.497Z" fill="#72D561"/>
<path d="M195.594 186.261C189.524 193.023 185.21 203.371 182.755 210.466C182.695 210.644 182.634 210.817 182.578 210.991C181.105 215.312 180.357 218.303 180.357 218.303C180.357 218.303 180.3 218.722 180.144 219.41C179.548 219.701 178.927 219.967 178.285 220.212C176.107 221.038 173.709 221.599 171.232 221.886C170.768 220.453 170.193 219.066 170.523 217.409C170.92 215.426 172.208 213.758 173.478 212.187C176.234 208.77 179.097 205.4 181.297 201.597C183.908 197.078 185.792 191.724 190.23 188.978C191.933 187.925 193.923 187.329 195.594 186.261Z" fill="#78E75A"/>
<path d="M149.16 266.007C149.16 273.977 143.565 283.71 136.591 287.772L28.9912 349.925C25.3127 352.071 21.9406 352.224 19.5649 350.692L4.46693 341.955C2.16788 340.576 0.711734 337.74 0.711734 333.678L0.0222536 85.8307C-0.0544596 77.8601 5.61669 68.1273 12.5905 64.0653L120.574 1.75849C124.099 -0.310891 127.241 -0.463849 129.54 0.838868L144.331 9.4223C146.861 10.6488 148.47 13.5606 148.47 17.7761L149.16 266.007Z" fill="#4C5C75"/>
<path d="M144.784 9.68573C142.493 8.35546 139.321 8.54119 135.818 10.5633L27.8077 72.9238C20.8476 76.9425 15.2246 86.6817 15.2478 94.6796L15.9513 342.478C15.9629 346.569 17.4069 349.45 19.7378 350.803L4.49007 341.969C2.15917 340.613 0.715141 337.735 0.70352 333.642L7.14346e-05 85.8431C-0.0231124 77.8452 5.5998 68.1061 12.56 64.0874L120.57 1.72917C124.074 -0.292998 127.245 -0.481005 129.536 0.849269L144.784 9.68573Z" fill="#205988"/>
<path d="M135.819 10.5641C142.778 6.54625 148.438 9.77162 148.461 17.7683L149.164 266.005C149.187 274.003 143.564 283.743 136.605 287.76L28.9745 349.901C21.8048 354.04 15.9738 350.714 15.9505 342.477L15.248 94.6786C15.2253 86.6819 20.847 76.9431 27.8077 72.9244L135.819 10.5641Z" fill="#4C5C75"/>
<path d="M23.1509 348.663C19.3918 348.663 18.9736 344.331 18.9684 342.468L18.2659 94.67C18.2464 87.7692 23.3069 79.0078 29.3166 75.5384L137.328 13.1779C138.828 12.3116 140.261 11.8537 141.473 11.8537C145.04 11.8537 145.437 15.9961 145.442 17.7769L146.146 266.013C146.166 272.915 141.105 281.677 135.095 285.147L27.4653 347.287C25.9063 348.187 24.4145 348.663 23.1509 348.663Z" fill="#4C5C75"/>
<path d="M144.073 266.028C144.073 272.182 139.384 280.242 134.036 283.319L26.4066 345.449C25.1612 346.182 24.0625 346.548 23.1829 346.548C22.5237 346.548 22.0108 346.402 21.5712 345.449C21.1316 344.424 21.0583 343.105 21.0583 342.445L20.3258 94.6568C20.3258 88.5026 25.0145 80.443 30.3633 77.3659L138.359 15.0157C139.531 14.2832 140.63 13.9165 141.436 13.9165C142.095 13.9165 142.535 14.1366 142.901 14.9424C143.267 15.8949 143.341 17.1403 143.341 17.7999L144.073 266.028Z" fill="#1A212B"/>
<path d="M143.351 35.0001L20.3525 109.342L20.3526 94.6698C20.3371 88.5277 25.0213 80.4313 30.3568 77.3447L138.372 14.992C139.535 14.3097 140.637 13.9374 141.474 13.9374C142.064 13.9374 142.498 14.1237 142.87 14.9769C143.289 15.9228 143.351 17.1482 143.351 17.7844L143.351 35.0001Z" fill="#327AB4"/>
<path d="M120.44 10.8525C117.794 9.3508 113.432 9.3508 110.787 10.8525C108.427 12.2111 108.141 14.2845 109.929 15.7863C110.143 15.5715 110.429 15.3573 110.787 15.1425C113.432 13.6413 117.794 13.6413 120.44 15.1425C120.726 15.3573 121.011 15.5715 121.298 15.7863C123.014 14.2845 122.728 12.2111 120.44 10.8525Z" fill="#1A212B"/>
<path d="M110.787 15.1426C110.43 15.3573 110.144 15.5716 109.929 15.7863C110.144 16.0006 110.43 16.2153 110.787 16.4296C113.504 18.0029 117.795 18.0029 120.44 16.4296C120.726 16.2869 121.012 16.0721 121.298 15.8579V15.7863C121.012 15.5716 120.726 15.3573 120.44 15.1426C117.795 13.6413 113.433 13.6413 110.787 15.1426Z" fill="#111D33"/>
<path d="M94.9132 49.2869C96.4179 48.4182 97.6332 49.1104 97.6381 50.8398C97.643 52.5688 96.4356 54.6597 94.9309 55.5284L69.5328 70.192C68.0281 71.0607 66.813 70.3685 66.8081 68.6394C66.8032 66.91 68.0104 64.8193 69.5151 63.9505L94.9132 49.2869Z" fill="#1A212B"/>
<path d="M135.16 29.1743C135.16 30.8994 133.962 32.9952 132.451 33.8649L107.059 48.5354C105.548 49.3908 104.336 48.7065 104.336 46.9814C104.322 45.2421 105.534 43.1605 107.031 42.2908L132.437 27.6203C133.934 26.7505 135.16 27.4492 135.16 29.1743Z" fill="#1A212B"/>
<path d="M57.3832 73.2983C57.3953 76.097 55.4326 79.4772 53.0096 80.8827C50.5865 82.2759 48.6118 81.1613 48.6118 78.3627C48.5996 75.5761 50.5623 72.1959 52.9732 70.7906C55.4084 69.3975 57.371 70.512 57.3832 73.2983Z" fill="#1A212B"/>
<path d="M41.5806 82.428C41.5934 85.2928 39.5817 88.7559 37.0989 90.1946C34.6161 91.6207 32.5917 90.4748 32.5917 87.61C32.579 84.758 34.5907 81.2949 37.0607 79.8561C39.5562 78.4301 41.5679 79.5761 41.5806 82.428Z" fill="#1A212B"/>
<path d="M12.9741 122.463L12.8974 142.466C12.8974 143.769 12.4376 144.612 11.7476 145.072L9.9851 145.991C9.9851 145.991 9.90839 146.068 9.83167 146.145C9.75496 146.222 9.67871 146.298 9.52529 146.375C8.75863 146.758 7.76276 146.681 6.68972 146.068C4.46691 144.765 2.70439 141.7 2.7811 139.171V119.245C2.7811 117.942 3.24091 117.099 3.93086 116.639L6.15319 115.336C6.91939 114.953 7.91572 115.03 8.98877 115.643C11.2111 116.946 12.9741 120.011 12.9741 122.463Z" fill="#57B3FE"/>
<path d="M12.8204 159.02V179.022C12.7437 180.325 12.3606 181.169 11.5944 181.552L9.37163 182.854C8.68215 183.314 7.68582 183.237 6.61277 182.548C4.39044 181.321 2.62744 178.256 2.62744 175.727L2.70415 155.725C2.70415 154.498 3.16396 153.579 3.85391 153.195L6.07625 151.893C6.7662 151.509 7.76253 151.586 8.91182 152.199C11.0579 153.425 12.8204 156.491 12.8204 159.02Z" fill="#57B3FE"/>
<path d="M12.9461 122.499L12.8938 142.487C12.8833 143.755 12.4431 144.636 11.7198 145.055L9.50825 146.334C10.221 145.925 10.6717 145.044 10.6717 143.776L10.7346 123.788C10.7346 121.272 8.97368 118.212 6.77259 116.944C5.67199 116.315 4.68673 116.262 3.9635 116.661L6.18563 115.371C6.90886 114.973 7.89406 115.025 8.99467 115.654C11.1853 116.923 12.9566 119.994 12.9461 122.499Z" fill="#57B3FE"/>
<path d="M6.77459 116.947C5.67707 116.314 4.69188 116.261 3.96684 116.659C3.24842 117.076 2.80352 117.959 2.79997 119.212L2.74331 139.198C2.73616 141.72 4.50379 144.782 6.6921 146.045C7.78956 146.679 8.78145 146.743 9.50652 146.338C10.2249 145.928 10.6698 145.045 10.6734 143.776L10.7301 123.791C10.7372 121.276 8.96956 118.215 6.77459 116.947Z" fill="#1A212B"/>
<path d="M12.8413 159.037L12.7889 179.025C12.7784 180.294 12.3382 181.164 11.615 181.583L9.40333 182.872C10.1161 182.453 10.5668 181.583 10.5668 180.315L10.6297 160.326C10.6297 157.811 8.86883 154.75 6.66768 153.482C5.57762 152.843 4.59236 152.79 3.85864 153.189L6.08072 151.91C6.80394 151.501 7.7892 151.564 8.88975 152.193C11.0804 153.461 12.8518 156.522 12.8413 159.037Z" fill="#57B3FE"/>
<path d="M6.67082 153.481C5.57331 152.848 4.58814 152.787 3.86307 153.193C3.14466 153.61 2.69977 154.493 2.69621 155.746L2.63955 175.732C2.6324 178.254 4.40003 181.316 6.58834 182.579C7.6858 183.213 8.67769 183.277 9.40275 182.871C10.1212 182.454 10.566 181.579 10.5696 180.31L10.6263 160.325C10.6334 157.81 8.8658 154.749 6.67082 153.481Z" fill="#1A212B"/>
<path d="M137.626 107.991C137.699 111.288 135.281 115.391 132.424 117.003L32.1216 174.957C29.2641 176.642 26.9195 175.25 26.9195 171.953L26.7733 120.96C26.6999 117.663 29.0445 113.56 31.9749 111.874L132.277 53.9938C135.135 52.3088 137.479 53.7008 137.479 56.9975L137.626 107.991Z" fill="#205988"/>
<path d="M83.1931 102.395L76.7456 116.388L72.936 115.949H72.8627L69.5656 115.509L69.6389 143.717V147.893L45.0213 162.107V157.931L44.8747 129.796L39.8926 136.17L37.6213 139.028L31.1005 132.507L33.3717 129.65L48.758 110.087C48.8309 110.38 50.2963 115.362 57.1101 112.285C64.0706 107.377 65.3893 100.782 65.4626 100.49L79.3835 101.955L83.1931 102.395Z" fill="#F45170"/>
<path d="M69.6386 143.717V147.893L45.021 162.107V157.931L69.6386 143.717Z" fill="#FEBC1F"/>
<path d="M83.1929 102.395L76.7454 116.388L72.9358 115.949L79.3833 101.955L83.1929 102.395Z" fill="#FEBC1F"/>
<path d="M39.8925 136.17L37.6212 139.028L31.1003 132.507L33.3716 129.65L39.8925 136.17Z" fill="#FEBC1F"/>
<path d="M132.474 68.0796L89.2617 93.0282L89.2781 100.348L132.474 75.4089V68.0796Z" fill="#57B3FE"/>
<path d="M132.474 84.3553L89.2617 109.304L89.2781 116.624L132.474 91.6847V84.3553Z" fill="#57B3FE"/>
<path d="M121.109 107.193L89.2617 125.58L89.2781 132.9L121.109 114.522V107.193Z" fill="#57B3FE"/>
<path d="M34.2314 186.528C38.3023 184.178 41.6303 186.074 41.6434 190.717C41.6568 195.43 38.3503 201.122 34.2794 203.472C30.2085 205.823 26.9109 203.943 26.8975 199.231C26.8843 194.588 30.1604 188.879 34.2314 186.528Z" fill="#DBA660"/>
<path d="M136.702 130.039L49.0117 180.668L49.0247 185.276L136.702 134.656V130.039Z" fill="#327AB4"/>
<path d="M127.628 146.717L127.641 151.325L49.0514 196.699L49.0383 192.09L127.628 146.717Z" fill="#327AB4"/>
<path d="M34.2314 215.443C38.3023 213.093 41.6303 214.99 41.6434 219.633C41.6568 224.345 38.3503 230.037 34.2794 232.388C30.2085 234.738 26.9109 232.859 26.8975 228.146C26.8843 223.503 30.1604 217.794 34.2314 215.443Z" fill="#B28AFD"/>
<path d="M136.702 158.955L49.0117 209.583L49.0247 214.192L136.702 163.571V158.955Z" fill="#327AB4"/>
<path d="M127.628 175.632L127.641 180.24L49.0514 225.614L49.0383 221.005L127.628 175.632Z" fill="#327AB4"/>
<path d="M34.2314 244.359C38.3023 242.008 41.6303 243.905 41.6434 248.548C41.6568 253.261 38.3503 258.953 34.2794 261.303C30.2085 263.653 26.9109 261.774 26.8975 257.062C26.8843 252.418 30.1604 246.709 34.2314 244.359Z" fill="#FFD06C"/>
<path d="M136.702 187.87L49.0117 238.499L49.0247 243.107L136.702 192.487V187.87Z" fill="#327AB4"/>
<path d="M127.628 204.547L127.641 209.156L49.0514 254.529L49.0383 249.921L127.628 204.547Z" fill="#327AB4"/>
<path d="M34.2314 273.274C38.3023 270.924 41.6303 272.82 41.6434 277.463C41.6568 282.176 38.3503 287.868 34.2794 290.218C30.2085 292.569 26.9109 290.689 26.8975 285.977C26.8843 281.334 30.1604 275.625 34.2314 273.274Z" fill="#57B3FE"/>
<path d="M136.702 216.785L49.0117 267.414L49.0247 272.022L136.702 221.402V216.785Z" fill="#327AB4"/>
<path d="M127.628 233.463L127.641 238.071L49.0514 283.445L49.0383 278.836L127.628 233.463Z" fill="#327AB4"/>
<path d="M34.2314 302.189C38.3023 299.839 41.6303 301.735 41.6434 306.379C41.6568 311.091 38.3503 316.783 34.2794 319.134C30.2085 321.484 26.9109 319.605 26.8975 314.892C26.8843 310.249 30.1604 304.54 34.2314 302.189Z" fill="#72D561"/>
<path d="M136.702 245.701L49.0117 296.329L49.0247 300.938L136.702 250.317V245.701Z" fill="#327AB4"/>
<path d="M127.628 262.378L127.641 266.986L49.0514 312.36L49.0383 307.751L127.628 262.378Z" fill="#327AB4"/>
<path d="M144.025 328.39V337.28C144.025 338.736 143.719 340.193 143.105 341.649V350.232C143.105 353.911 138.507 357.206 135.365 359.045C133.679 359.965 132.453 360.501 132.376 360.578V353.68C132.3 353.604 132.3 353.604 132.223 353.528C131.38 354.14 130.384 354.677 129.387 355.29C114.213 364.027 93.597 366.326 83.3278 360.348C79.4959 358.126 77.6566 355.06 77.6566 351.688V342.798C77.6566 337.05 82.7912 330.306 92.2943 324.865C107.468 316.051 128.084 313.752 138.354 319.73C142.186 321.953 144.025 325.018 144.025 328.39Z" fill="#678AEE"/>
<path d="M144.027 337.312L144.009 328.428C144.017 331.14 142.872 334.077 140.653 336.999L140.67 345.883C142.889 342.961 144.034 340.024 144.027 337.312Z" fill="#678AEE"/>
<path d="M134.098 356.901L134.08 348.018C134.077 346.672 133.315 345.542 132.242 344.62L132.259 353.504C133.332 354.425 134.094 355.556 134.098 356.901Z" fill="#566DF9"/>
<path d="M143.091 350.263L143.074 341.38C143.084 345.047 138.519 348.32 135.354 350.147C133.676 351.116 132.456 351.65 132.392 351.678L132.409 360.562C132.473 360.534 133.693 359.999 135.371 359.03C138.536 357.203 143.101 353.931 143.091 350.263Z" fill="#748BFD"/>
<path d="M77.6526 342.772L77.6698 351.655C77.6795 355.074 79.5191 358.136 83.3507 360.362C93.6056 366.322 114.231 364.036 129.405 355.275C130.415 354.692 131.355 354.108 132.259 353.504L132.242 344.62C131.338 345.224 130.398 345.808 129.387 346.391C114.214 355.152 93.5884 357.438 83.3335 351.479C79.5018 349.252 77.6623 346.19 77.6526 342.772Z" fill="#678AEE"/>
<path d="M140.648 337.015C146.85 342.315 139.746 347.615 135.348 350.152C133.657 351.111 132.473 351.675 132.416 351.675C135.123 348.63 134.164 346.262 132.247 344.627C131.345 345.247 130.387 345.811 129.372 346.375C114.205 355.17 93.5687 357.426 83.307 351.505C73.1017 345.529 77.1046 333.576 92.2716 324.836C107.439 316.041 128.075 313.785 138.336 319.706C145.215 323.709 145.666 330.418 140.648 337.015Z" fill="#8FABFE"/>
<path d="M100.901 345.917C98.3113 347.444 94.0991 347.444 91.5292 345.917C88.9207 344.43 88.94 341.995 91.5678 340.488C94.157 338.981 98.35 338.961 100.939 340.488C103.548 341.976 103.528 344.43 100.901 345.917Z" fill="#1A212B"/>
<path d="M130.116 329.049C127.527 330.556 123.315 330.556 120.725 329.049C118.136 327.561 118.175 325.127 120.764 323.619C123.373 322.112 127.585 322.093 130.155 323.619C132.725 325.107 132.725 327.561 130.116 329.049Z" fill="#1A212B"/>
<path d="M115.528 337.474C112.919 338.981 108.687 339 106.118 337.493C103.548 335.986 103.567 333.551 106.156 332.063C108.745 330.537 112.958 330.537 115.547 332.063C118.136 333.551 118.136 335.986 115.528 337.474Z" fill="#1A212B"/>
</svg>
