<svg width="315" height="321" viewBox="0 0 315 321" fill="none" xmlns="http://www.w3.org/2000/svg">
<path d="M312.652 214.825L221.862 162.063L66.973 251.489L67.0057 251.508L66.9647 251.513L66.9097 266.684L157.698 319.437C160.84 321.256 165.966 321.256 169.163 319.437L312.539 236.642C314.137 235.705 314.964 234.492 314.964 233.279V218.241C315.021 217.007 314.272 215.766 312.652 214.825Z" fill="#205988"/>
<path d="M103.151 229.983C103.151 230.665 102.909 231.158 102.511 231.389L86.988 240.409C87.3865 240.178 85.5415 240.07 85.5415 239.378C85.552 237.972 85.8828 237.156 84.6663 236.453C84.0579 236.097 84.2609 234.797 83.8624 235.028L99.3853 226.008C99.7838 225.777 100.34 225.809 100.948 226.165C102.165 226.868 103.161 228.578 103.151 229.983Z" fill="#57B3FE"/>
<path d="M85.4271 235.184C86.6458 235.888 87.6337 237.599 87.6297 238.999C87.6257 240.392 86.6314 240.959 85.4127 240.255C84.1939 239.551 83.2127 237.844 83.2167 236.452C83.2207 235.051 84.2083 234.481 85.4271 235.184Z" fill="#1B2B4C"/>
<path d="M203.503 171.663C203.503 172.345 203.262 172.838 202.864 173.068L187.341 182.088C187.739 181.858 186.613 181.337 186.613 180.645C186.624 179.239 186.039 178.829 184.822 178.126C184.214 177.769 184.614 176.477 184.215 176.708L199.738 167.688C200.137 167.457 200.693 167.489 201.301 167.845C202.518 168.548 203.514 170.258 203.503 171.663Z" fill="#57B3FE"/>
<path d="M185.78 176.864C186.999 177.568 187.987 179.279 187.983 180.679C187.979 182.072 186.985 182.639 185.766 181.935C184.547 181.231 183.566 179.524 183.57 178.132C183.574 176.731 184.562 176.161 185.78 176.864Z" fill="#1B2B4C"/>
<path d="M219.875 47.626C218.841 47.0147 220.967 49.6149 219.368 50.5554L66.9627 245.733L54.9449 238.744L54.6392 133.73C54.6392 130.085 57.1787 125.664 60.3531 123.83L203.766 41.0367C205.365 40.1196 206.823 40.0256 207.858 40.6369L219.875 47.626Z" fill="#1B2B4C"/>
<path d="M221.842 156.302L66.9537 245.727L66.6551 140.719C66.6444 137.079 69.2036 132.65 72.3708 130.819L215.793 48.0165C218.96 46.186 221.537 47.6539 221.544 51.2938L221.842 156.302Z" fill="#57B3FE"/>
<path d="M314.964 218.164V233.279C314.964 234.492 314.137 235.705 312.539 236.642L169.163 319.437C165.966 321.256 160.84 321.256 157.698 319.437L66.9097 266.684L66.9648 251.513C66.9648 251.513 314.964 219.377 314.964 218.164Z" fill="#205988"/>
<path d="M66.9729 251.489L157.763 304.25C160.91 306.079 166.028 306.079 169.196 304.25L312.6 221.456C315.783 219.618 315.799 216.654 312.652 214.825L221.862 162.063L66.9729 251.489Z" fill="#1A212B"/>
<path d="M184.909 259.547L205.247 271.292C206.969 272.285 209.091 272.282 210.81 271.282L254.848 245.729C255.491 245.356 255.904 244.787 256.098 244.162C255.903 243.535 255.488 242.965 254.842 242.593L234.504 230.848C232.782 229.854 230.657 229.857 228.938 230.857L184.903 256.411C184.26 256.784 183.847 257.352 183.653 257.978C183.848 258.605 184.263 259.175 184.909 259.547Z" fill="#205988"/>
<path d="M186.74 227.296C186.377 227.506 186.375 227.845 186.736 228.055L193.752 232.132C194.113 232.341 194.698 232.341 195.061 232.131L202.123 228.054C202.486 227.845 202.488 227.506 202.128 227.296L195.111 223.219C194.75 223.009 194.165 223.009 193.802 223.218L186.74 227.296Z" fill="#57B3FE"/>
<path d="M140.512 267.042C140.15 267.251 140.148 267.59 140.508 267.8L147.525 271.877C147.885 272.086 148.471 272.087 148.833 271.878L155.896 267.8C156.258 267.591 156.26 267.251 155.9 267.042L148.883 262.964C148.523 262.755 147.937 262.755 147.575 262.965L140.512 267.042Z" fill="#57B3FE"/>
<path d="M152.011 260.403C151.649 260.613 151.647 260.951 152.007 261.161L159.024 265.238C159.384 265.448 159.97 265.448 160.332 265.239L167.395 261.161C167.758 260.951 167.759 260.612 167.399 260.403L160.383 256.325C160.022 256.116 159.437 256.116 159.074 256.326L152.011 260.403Z" fill="#57B3FE"/>
<path d="M163.512 253.763C163.149 253.973 163.147 254.312 163.508 254.521L170.524 258.598C170.884 258.808 171.47 258.808 171.833 258.599L236.393 221.325C236.756 221.116 236.758 220.776 236.398 220.566L229.381 216.489C229.021 216.279 228.435 216.28 228.073 216.489L163.512 253.763Z" fill="#57B3FE"/>
<path d="M175.241 233.935C174.877 234.145 174.875 234.484 175.236 234.694L182.253 238.771C182.613 238.981 183.198 238.981 183.562 238.771L190.624 234.693C190.986 234.484 190.988 234.145 190.628 233.936L183.612 229.858C183.251 229.648 182.666 229.648 182.303 229.858L175.241 233.935Z" fill="#57B3FE"/>
<path d="M163.741 240.574C163.378 240.784 163.376 241.123 163.737 241.333L170.753 245.41C171.113 245.62 171.699 245.62 172.062 245.41L179.124 241.332C179.487 241.123 179.489 240.784 179.129 240.575L172.112 236.497C171.751 236.288 171.166 236.288 170.803 236.497L163.741 240.574Z" fill="#57B3FE"/>
<path d="M152.472 234.026C152.11 234.236 152.108 234.575 152.468 234.784L159.484 238.861C159.845 239.071 160.431 239.071 160.793 238.862L167.857 234.784C168.219 234.575 168.22 234.235 167.86 234.026L160.843 229.948C160.483 229.739 159.898 229.739 159.536 229.948L152.472 234.026Z" fill="#57B3FE"/>
<path d="M140.973 240.665C140.61 240.875 140.608 241.213 140.969 241.423L147.985 245.5C148.345 245.71 148.931 245.71 149.294 245.501L156.357 241.423C156.72 241.214 156.72 240.874 156.36 240.665L149.344 236.587C148.984 236.378 148.399 236.378 148.036 236.587L140.973 240.665Z" fill="#57B3FE"/>
<path d="M106.703 247.395C106.341 247.604 106.339 247.943 106.7 248.153L113.716 252.23C114.076 252.44 114.661 252.44 115.024 252.23L122.086 248.153C122.449 247.943 122.452 247.604 122.091 247.395L115.075 243.317C114.714 243.107 114.128 243.108 113.765 243.317L106.703 247.395Z" fill="#57B3FE"/>
<path d="M117.974 253.944C117.611 254.154 117.609 254.492 117.969 254.702L124.986 258.779C125.346 258.988 125.932 258.989 126.294 258.78L144.856 248.063C145.22 247.853 145.22 247.514 144.86 247.305L137.844 243.227C137.484 243.018 136.899 243.018 136.535 243.228L117.974 253.944Z" fill="#57B3FE"/>
<path d="M129.242 260.493C128.879 260.702 128.877 261.041 129.238 261.251L136.255 265.328C136.615 265.537 137.2 265.537 137.563 265.328L167.625 247.971C167.988 247.762 167.99 247.423 167.63 247.214L160.613 243.136C160.252 242.926 159.667 242.926 159.304 243.136L129.242 260.493Z" fill="#57B3FE"/>
<path d="M118.202 240.756C117.84 240.965 117.838 241.304 118.199 241.514L125.215 245.591C125.576 245.801 126.161 245.801 126.523 245.591L133.585 241.514C133.949 241.304 133.951 240.965 133.591 240.756L126.574 236.678C126.213 236.468 125.628 236.468 125.264 236.678L118.202 240.756Z" fill="#57B3FE"/>
<path d="M129.703 234.116C129.34 234.325 129.339 234.664 129.7 234.874L136.716 238.951C137.076 239.161 137.661 239.161 138.024 238.951L145.087 234.873C145.45 234.664 145.452 234.325 145.091 234.116L138.075 230.038C137.714 229.829 137.129 229.829 136.766 230.038L129.703 234.116Z" fill="#57B3FE"/>
<path d="M141.202 227.477C140.839 227.686 140.837 228.025 141.198 228.235L148.215 232.312C148.575 232.522 149.16 232.522 149.523 232.312L156.586 228.234C156.948 228.025 156.95 227.686 156.59 227.477L149.574 223.399C149.213 223.189 148.628 223.189 148.265 223.399L141.202 227.477Z" fill="#57B3FE"/>
<path d="M163.973 227.387C163.609 227.597 163.607 227.936 163.968 228.145L170.984 232.222C171.344 232.432 171.93 232.432 172.294 232.222L179.356 228.145C179.718 227.936 179.719 227.596 179.359 227.387L172.343 223.309C171.983 223.1 171.398 223.1 171.035 223.309L163.973 227.387Z" fill="#57B3FE"/>
<path d="M152.702 220.837C152.339 221.047 152.337 221.386 152.698 221.596L159.714 225.673C160.074 225.882 160.659 225.882 161.023 225.673L168.085 221.595C168.448 221.386 168.45 221.047 168.09 220.838L161.073 216.76C160.712 216.55 160.127 216.55 159.764 216.76L152.702 220.837Z" fill="#57B3FE"/>
<path d="M209.74 214.017C209.378 214.227 209.376 214.566 209.737 214.775L216.753 218.853C217.113 219.062 217.698 219.062 218.061 218.853L225.123 214.776C225.486 214.566 225.489 214.227 225.128 214.017L218.112 209.94C217.751 209.73 217.165 209.731 216.802 209.94L209.74 214.017Z" fill="#57B3FE"/>
<path d="M198.24 220.656C197.878 220.866 197.875 221.205 198.236 221.415L205.252 225.493C205.613 225.702 206.199 225.701 206.561 225.492L213.623 221.415C213.986 221.205 213.989 220.866 213.629 220.657L206.612 216.579C206.251 216.369 205.665 216.37 205.303 216.579L198.24 220.656Z" fill="#57B3FE"/>
<path d="M187.201 200.919C186.839 201.128 186.837 201.467 187.198 201.677L194.214 205.755C194.575 205.964 195.16 205.964 195.522 205.755L202.584 201.677C202.947 201.468 202.95 201.129 202.59 200.919L195.573 196.842C195.212 196.632 194.626 196.632 194.264 196.842L187.201 200.919Z" fill="#57B3FE"/>
<path d="M198.471 207.469C198.109 207.678 198.107 208.017 198.467 208.226L205.483 212.304C205.844 212.513 206.43 212.514 206.792 212.304L213.855 208.227C214.217 208.018 214.219 207.678 213.859 207.468L206.842 203.391C206.482 203.182 205.896 203.182 205.534 203.391L198.471 207.469Z" fill="#57B3FE"/>
<path d="M175.702 207.558C175.339 207.768 175.336 208.107 175.698 208.317L182.714 212.394C183.074 212.604 183.66 212.603 184.023 212.394L191.085 208.317C191.447 208.107 191.45 207.768 191.09 207.558L184.074 203.481C183.713 203.271 183.127 203.272 182.764 203.481L175.702 207.558Z" fill="#57B3FE"/>
<path d="M186.972 214.108C186.609 214.317 186.606 214.656 186.967 214.866L193.983 218.943C194.343 219.153 194.93 219.153 195.293 218.943L202.355 214.866C202.718 214.657 202.72 214.317 202.359 214.107L195.343 210.03C194.983 209.82 194.397 209.821 194.034 210.03L186.972 214.108Z" fill="#57B3FE"/>
<path d="M164.201 214.198C163.838 214.408 163.836 214.747 164.197 214.956L171.213 219.034C171.574 219.243 172.159 219.243 172.522 219.033L179.585 214.956C179.947 214.747 179.949 214.408 179.589 214.198L172.572 210.121C172.211 209.911 171.626 209.911 171.264 210.12L164.201 214.198Z" fill="#57B3FE"/>
<path d="M175.471 220.748C175.108 220.957 175.106 221.296 175.466 221.506L182.482 225.583C182.843 225.792 183.429 225.793 183.792 225.583L190.854 221.506C191.217 221.296 191.218 220.957 190.858 220.748L183.841 216.67C183.481 216.461 182.896 216.461 182.534 216.67L175.471 220.748Z" fill="#57B3FE"/>
<path d="M232.51 213.928C232.147 214.137 232.145 214.476 232.505 214.685L239.522 218.763C239.882 218.972 240.468 218.973 240.83 218.763L247.893 214.686C248.256 214.476 248.257 214.137 247.897 213.927L240.881 209.85C240.52 209.64 239.935 209.64 239.572 209.85L232.51 213.928Z" fill="#57B3FE"/>
<path d="M210.201 187.64C209.839 187.85 209.837 188.189 210.198 188.399L217.214 192.476C217.575 192.685 218.16 192.685 218.522 192.476L225.584 188.399C225.948 188.189 225.95 187.85 225.59 187.641L218.573 183.563C218.212 183.353 217.627 183.353 217.263 183.563L210.201 187.64Z" fill="#57B3FE"/>
<path d="M198.701 194.28C198.338 194.489 198.336 194.828 198.698 195.038L205.714 199.116C206.074 199.325 206.659 199.325 207.022 199.116L214.084 195.038C214.447 194.828 214.449 194.49 214.089 194.28L207.073 190.203C206.712 189.993 206.127 189.993 205.763 190.203L198.701 194.28Z" fill="#57B3FE"/>
<path d="M209.971 200.83C209.608 201.039 209.606 201.378 209.966 201.587L216.983 205.665C217.343 205.874 217.929 205.875 218.292 205.665L229.136 199.404L239.752 205.574C240.113 205.783 240.698 205.783 241.06 205.574L248.123 201.496C248.486 201.287 248.488 200.948 248.128 200.739L229.842 190.112C229.482 189.903 228.897 189.903 228.533 190.113L209.971 200.83Z" fill="#57B3FE"/>
<path d="M221.239 207.378C220.876 207.587 220.874 207.926 221.235 208.136L228.252 212.214C228.612 212.423 229.197 212.423 229.56 212.214L236.622 208.136C236.985 207.926 236.987 207.587 236.627 207.378L229.611 203.301C229.249 203.091 228.664 203.091 228.301 203.301L221.239 207.378Z" fill="#57B3FE"/>
<path d="M244.01 207.288C243.647 207.497 243.645 207.836 244.005 208.046L251.022 212.123C251.382 212.332 251.968 212.333 252.33 212.124L259.394 208.046C259.756 207.836 259.757 207.497 259.397 207.288L252.381 203.21C252.02 203.001 251.435 203.001 251.073 203.21L244.01 207.288Z" fill="#57B3FE"/>
<path d="M275.981 198.581L266.653 203.965L224.812 179.651L234.14 174.266L275.981 198.581Z" fill="#205988"/>
<path d="M140.781 276.683L131.42 282.015L89.5532 257.701L98.915 252.37L140.781 276.683Z" fill="#205988"/>
<path d="M216.691 153.325L72.1024 236.734L71.8225 140.716C71.8225 138.942 73.4102 136.233 74.905 135.392L216.317 53.6647L216.691 153.325Z" fill="#1A212B"/>
<path d="M212.187 140.662C212.187 143.997 209.92 147.932 207.051 149.6L92.7176 215.639C91.3167 216.439 89.9825 216.506 89.0489 215.972L80.4436 210.969C79.5096 210.436 78.9095 209.302 78.9095 207.634L78.5093 85.0289L203.249 13.0536L211.787 18.0565L212.187 140.662Z" fill="#205988"/>
<path d="M87.5281 212.647L87.1346 90.0558L78.5399 85.061L78.9334 207.652C78.9384 209.304 79.514 210.451 80.4394 210.989L89.0346 215.984C88.1087 215.446 87.5331 214.299 87.5281 212.647Z" fill="#205988"/>
<path d="M87.1344 90.056L78.5397 85.0613L203.217 13.0787L211.812 18.0734L87.1344 90.056Z" fill="#1A212B"/>
<path d="M211.812 18.0735L212.205 140.664C212.215 144.004 209.938 147.948 207.084 149.596L92.7354 215.615C89.8806 217.263 87.5374 215.987 87.5279 212.647L87.1343 90.056L211.812 18.0735Z" fill="#1A212B"/>
<path d="M91.8105 92.745L207.168 26.1434L207.536 140.68C207.542 142.322 206.161 144.735 204.751 145.549L92.2079 210.529L91.8105 92.745Z" fill="#1A212B"/>
<path d="M211.787 9.3181V18.0565L87.1142 90.0319L78.5093 85.029V76.2905C78.5093 72.9552 80.8438 68.9531 83.7121 67.2854L197.979 1.31333C199.447 0.512894 200.781 0.379352 201.715 0.979884L210.053 5.84927C210.12 5.84927 210.186 5.84927 210.186 5.91604C211.187 6.38303 211.787 7.58369 211.787 9.3181Z" fill="#DF3260"/>
<path d="M201.692 0.955272C200.753 0.40945 199.447 0.498767 197.984 1.3428L83.7396 67.3018C80.8328 68.9804 78.5046 72.953 78.5141 76.2929L78.5389 85.0603L87.1336 90.055L87.1088 81.2877C87.0993 77.9478 89.4275 73.9747 92.3342 72.2965L206.579 6.33756C208.041 5.49303 209.348 5.40421 210.287 5.95003L201.692 0.955272Z" fill="#DF3260"/>
<path d="M206.579 6.33847C209.486 4.66028 211.777 5.966 211.787 9.30583L211.812 18.0734L87.1343 90.056L87.1094 81.2884C87.0999 77.9486 89.4282 73.9757 92.335 72.2975L206.579 6.33847Z" fill="#F45170"/>
<path d="M96.0149 75.4888C97.5202 74.6198 98.7697 75.2722 98.7747 77.0018C98.7796 78.7317 97.5378 80.8225 96.0325 81.6916C94.5791 82.5307 93.3295 81.8783 93.3246 80.1483C93.3197 78.4188 94.5616 76.3279 96.0149 75.4888Z" fill="#1A212B"/>
<path d="M105.566 69.9748C107.019 69.1357 108.32 69.7581 108.325 71.4877C108.33 73.2177 107.037 75.3384 105.583 76.1776C104.13 77.0167 102.828 76.3942 102.823 74.6642C102.818 72.9347 104.112 70.8139 105.566 69.9748Z" fill="#1A212B"/>
<path d="M115.116 64.4608C116.57 63.6217 117.819 64.2741 117.824 66.0036C117.829 67.7336 116.587 69.8245 115.134 70.6635C113.628 71.5326 112.379 70.8803 112.374 69.1503C112.369 67.4207 113.611 65.3299 115.116 64.4608Z" fill="#1A212B"/>
<path d="M203.097 13.9635C204.498 13.1544 205.592 13.7778 205.596 15.3281C205.601 16.9388 204.514 18.8204 203.113 19.6295L156.294 46.6605C154.893 47.4696 153.799 46.8466 153.794 45.236C153.79 43.6856 154.876 41.8036 156.278 40.9945L203.097 13.9635Z" fill="#1A212B"/>
<path d="M107.328 114.332L107.337 117.558L96.3452 123.905L96.3361 120.679L107.328 114.332Z" fill="#205988"/>
<path d="M107.305 106.199L107.314 109.425L96.322 115.771L96.3129 112.545L107.305 106.199Z" fill="#205988"/>
<path d="M107.282 98.0848L107.291 101.291L96.299 107.638L96.2899 104.431L107.282 98.0848Z" fill="#205988"/>
<path d="M107.259 89.9512L107.268 93.1772L96.276 99.5235L96.2668 96.2974L107.259 89.9512Z" fill="#205988"/>
<path d="M203.073 99.7697L179.078 113.623L179.087 116.829L203.073 102.981V99.7697Z" fill="#205988"/>
<path d="M191.54 114.556L191.549 117.782L148.84 142.44L148.831 139.213L191.54 114.556Z" fill="#205988"/>
<path d="M200.154 93.3074L200.164 96.5334L155.685 122.213L155.676 118.987L200.154 93.3074Z" fill="#205988"/>
<path d="M194.153 80.4978L194.162 83.7044L162.666 101.888L162.657 98.6818L194.153 80.4978Z" fill="#205988"/>
<path d="M203.073 59.054L168.294 79.1335L168.304 82.3597L203.073 62.2855V59.054Z" fill="#205988"/>
<path d="M174.756 116.118L174.765 119.325L131.92 144.061L131.911 140.854L174.756 116.118Z" fill="#DBA660"/>
<path d="M203.073 42.7798L180.686 55.7044L180.695 58.9109L203.073 45.9911V42.7798Z" fill="#8FABFE"/>
<path d="M177.143 98.4459L177.153 101.672L140.246 122.98L140.237 119.754L177.143 98.4459Z" fill="#205988"/>
<path d="M178.986 81.1074L178.995 84.3139L149.933 101.093L149.924 97.8866L178.986 81.1074Z" fill="#205988"/>
<path d="M142.603 142.809L142.612 146.035L114.23 162.421L114.221 159.195L142.603 142.809Z" fill="#205988"/>
<path d="M148.921 122.887L148.93 126.113L114.184 146.173L114.175 142.947L148.921 122.887Z" fill="#205988"/>
<path d="M203.073 50.9072L143.531 85.2837L143.54 88.5098L203.073 54.1383V50.9072Z" fill="#205988"/>
<path d="M135.098 122.721L135.107 125.947L114.161 138.04L114.152 134.814L135.098 122.721Z" fill="#205988"/>
<path d="M159.407 100.558L159.416 103.765L114.138 129.906L114.129 126.7L159.407 100.558Z" fill="#78E75A"/>
<path d="M188.354 43.1302L188.363 46.3563L141.196 73.5881L141.187 70.3621L188.354 43.1302Z" fill="#205988"/>
<path d="M164.091 81.5602L164.1 84.7862L114.092 113.659L114.083 110.433L164.091 81.5602Z" fill="#205988"/>
<path d="M172.979 60.1545L172.988 63.3611L114.046 97.3911L114.037 94.1845L172.979 60.1545Z" fill="#205988"/>
<path d="M141.552 102.72L141.561 105.927L114.115 121.773L114.106 118.566L141.552 102.72Z" fill="#205988"/>
<path d="M137.575 88.7219L137.585 91.948L114.069 105.525L114.06 102.299L137.575 88.7219Z" fill="#F45170"/>
<path d="M135.777 73.4861L135.786 76.7121L114.023 89.2769L114.014 86.0508L135.777 73.4861Z" fill="#205988"/>
<path d="M107.351 122.466L107.36 125.673L96.368 132.019L96.3589 128.812L107.351 122.466Z" fill="#205988"/>
<path d="M107.374 130.6L107.383 133.806L96.3912 140.153L96.3821 136.946L107.374 130.6Z" fill="#205988"/>
<path d="M107.397 138.714L107.406 141.94L96.4142 148.286L96.405 145.06L107.397 138.714Z" fill="#205988"/>
<path d="M107.42 146.848L107.429 150.074L96.4372 156.42L96.4281 153.194L107.42 146.848Z" fill="#205988"/>
<path d="M107.466 163.095L107.475 166.322L96.4834 172.668L96.4742 169.442L107.466 163.095Z" fill="#205988"/>
<path d="M107.443 154.981L107.452 158.188L96.4601 164.534L96.451 161.327L107.443 154.981Z" fill="#205988"/>
<path d="M127.3 143.517L127.309 146.724L114.207 154.288L114.198 151.081L127.3 143.517Z" fill="#205988"/>
<path d="M107.304 190.227L96.2977 196.631V185.291L107.238 178.887L107.304 190.227Z" fill="#B28AFD"/>
<path d="M203.073 131.74L180.687 144.665L180.695 147.872L203.073 134.952V131.74Z" fill="#8FABFE"/>
<path d="M188.355 132.091L188.364 135.317L141.197 162.549L141.188 159.323L188.355 132.091Z" fill="#205988"/>
<path d="M172.979 149.115L172.988 152.322L114.046 186.352L114.037 183.145L172.979 149.115Z" fill="#205988"/>
<path d="M135.777 162.447L135.786 165.673L114.023 178.238L114.014 175.012L135.777 162.447Z" fill="#205988"/>
<path d="M275.025 95.1685C275.025 99.1039 272.289 103.907 268.821 105.841L241.004 121.984C239.27 122.985 237.736 123.051 236.602 122.385C236.468 122.318 236.335 122.251 236.268 122.184L231.265 119.316C230.198 118.649 229.531 117.315 229.464 115.313L229.398 83.3614C229.398 79.426 232.132 74.623 235.535 72.6887L263.417 56.6124C265.152 55.612 266.686 55.5452 267.82 56.1454L272.756 59.0141C272.89 59.1472 273.023 59.214 273.157 59.2807C274.291 59.8809 274.958 61.2818 274.958 63.2162L275.025 95.1685Z" fill="#BF7D5A"/>
<path d="M236.593 122.39C235.486 121.747 234.801 120.374 234.796 118.419L234.705 86.4582C234.694 82.5227 237.437 77.7338 240.862 75.7562L268.709 59.6789C270.432 58.6839 271.996 58.5927 273.125 59.2493L267.825 56.1693C266.696 55.5127 265.132 55.6039 263.409 56.5989L235.562 72.6762C232.138 74.6537 229.394 79.4427 229.405 83.3782L229.496 115.339C229.501 117.295 230.186 118.667 231.293 119.31L236.593 122.39Z" fill="#BF7D5A"/>
<path d="M268.709 59.679C272.134 57.7016 274.927 59.2938 274.938 63.2292L275.029 95.1904C275.04 99.1258 272.265 103.896 268.84 105.874L240.993 121.951C237.568 123.928 234.807 122.355 234.795 118.419L234.705 86.4581C234.694 82.5227 237.437 77.7336 240.862 75.7562L268.709 59.679Z" fill="#DBA660"/>
<path d="M248.701 87.0145C249.056 86.8093 249.41 86.7782 249.662 86.9792C250.124 87.3215 250.081 88.2729 249.53 89.12L244.715 96.6907L249.58 98.6456C250.111 98.8688 250.182 99.7539 249.724 100.653C249.472 101.143 249.105 101.514 248.737 101.726C248.461 101.886 248.161 101.953 247.908 101.861L241.935 99.4071C241.658 99.2757 241.496 98.9723 241.495 98.5494C241.494 98.1003 241.654 97.611 241.929 97.1874L247.868 87.8564C248.108 87.4773 248.405 87.1854 248.701 87.0145Z" fill="#1A212B"/>
<path d="M259.108 76.226C259.289 76.1212 259.474 76.059 259.651 76.0512C260.295 76.023 260.574 76.7357 260.277 77.6482L251.783 103.885C251.555 104.572 251.095 105.128 250.613 105.407L250.083 105.581C249.438 105.635 249.16 104.896 249.457 104.01L257.951 77.7473C258.167 77.0843 258.626 76.5044 259.108 76.226Z" fill="#1A212B"/>
<path d="M260.981 79.9243C261.283 79.7502 261.585 79.6959 261.826 79.7973L267.799 82.2511C268.076 82.3561 268.238 82.6596 268.239 83.1086C268.24 83.5315 268.08 84.0208 267.805 84.4708L261.843 93.8151C261.614 94.1857 261.315 94.464 261.016 94.6366C260.648 94.849 260.303 94.8896 260.049 94.6921C259.587 94.3236 259.653 93.359 260.181 92.525L264.996 84.9806L260.154 82.9861C259.623 82.763 259.552 81.878 260.01 81.0046C260.26 80.514 260.62 80.133 260.981 79.9243Z" fill="#1A212B"/>
<path d="M8.20172 282.412C8.06818 282.345 7.93464 282.278 7.86787 282.211C7.73473 282.145 7.60119 282.011 7.46765 281.811C7.66796 282.078 7.93464 282.278 8.20172 282.412Z" fill="#678AEE"/>
<path d="M46.6238 255.195C46.6238 259.131 43.8223 263.934 40.4202 265.935L12.604 282.011C10.8696 283.012 9.33553 283.078 8.20165 282.411C7.93457 282.278 7.66789 282.078 7.46758 281.811C7.60112 282.011 7.73466 282.144 7.86779 282.211L2.86486 279.343C1.73098 278.676 1.06409 277.342 1.06409 275.407L0.997314 243.388C0.997314 239.453 3.73207 234.717 7.13413 232.716L35.0171 216.639C36.6847 215.639 38.2856 215.572 39.4199 216.239L44.2225 219.041L44.6895 219.308C45.8234 219.908 46.4907 221.242 46.4907 223.244L46.6238 255.195Z" fill="#678AEE"/>
<path d="M8.20172 282.412C8.06818 282.345 7.93464 282.278 7.86787 282.211C7.73473 282.145 7.60119 282.011 7.46765 281.811C7.66796 282.078 7.93464 282.278 8.20172 282.412Z" fill="#678AEE"/>
<path d="M8.17054 282.427C7.06319 281.783 6.3787 280.411 6.3732 278.456L6.28263 246.495C6.27131 242.56 9.01505 237.771 12.4399 235.793L40.2865 219.716C42.0098 218.721 43.5733 218.63 44.703 219.286L39.4031 216.206C38.2734 215.55 36.7098 215.641 34.9866 216.636L7.13999 232.713C3.71513 234.691 0.97138 239.48 0.982701 243.415L1.07327 275.376C1.07878 277.331 1.76326 278.703 2.87031 279.347L8.17054 282.427Z" fill="#678AEE"/>
<path d="M40.2863 219.716C43.7112 217.738 46.5049 219.331 46.516 223.266L46.6066 255.227C46.6178 259.163 43.8421 263.933 40.4172 265.911L12.5706 281.988C9.14573 283.965 6.38415 282.392 6.37299 278.456L6.28238 246.495C6.27122 242.56 9.01477 237.77 12.4396 235.793L40.2863 219.716Z" fill="#8FABFE"/>
<path d="M38.6496 244.192C38.6496 244.525 38.5828 244.859 38.3825 245.193C38.2494 245.593 37.9823 245.859 37.6489 246.06C37.1151 246.527 36.7816 246.86 36.6481 247.06C36.3814 247.394 36.3147 247.527 36.3147 247.594C36.2479 247.794 36.2479 247.994 36.2479 248.261V252.864C36.2479 253.998 35.9812 254.998 35.4474 255.799C34.9141 256.533 34.1137 257.2 33.1797 257.733L32.9794 257.866C32.7127 258 32.5124 258.067 32.3125 258.067C32.1122 258.067 31.9123 257.933 31.7787 257.933C31.5788 257.8 31.245 257.466 31.245 256.866C31.245 256.533 31.3117 256.199 31.5788 255.799C31.7787 255.465 31.979 255.198 32.3125 254.998L32.5791 254.865C33.0461 254.598 33.1797 254.398 33.1797 254.398C33.2465 254.264 33.3128 254.131 33.3128 253.998V249.128C33.3128 248.061 33.6467 247.06 34.3136 246.06C34.18 245.993 34.0469 245.926 33.9801 245.793C33.5131 245.393 33.3128 244.792 33.2465 243.925V239.389C33.2465 239.389 33.2465 239.389 33.1797 239.389L32.9126 239.589C32.3792 239.856 31.9123 239.723 31.7119 239.589C31.5788 239.522 31.1786 239.189 31.1786 238.589C31.1786 238.189 31.3117 237.855 31.512 237.521C31.7119 237.188 31.979 236.921 32.2457 236.721L32.446 236.587C33.5131 235.987 34.3136 235.787 34.9805 235.92C35.7813 236.121 36.1815 236.921 36.2479 238.322V243.258C36.3814 243.258 36.5817 243.192 37.0483 243.058C37.6488 242.791 38.0491 242.991 38.1826 243.125C38.5161 243.391 38.6496 243.725 38.6496 244.192Z" fill="#1A212B"/>
<path d="M21.706 263.137C21.706 263.47 21.5729 263.87 21.3725 264.204C21.1726 264.537 20.9056 264.804 20.6389 265.004L20.4386 265.138C19.5714 265.605 18.9045 265.805 18.3707 265.805C18.1708 265.805 18.0373 265.805 17.9037 265.738C17.1033 265.538 16.7031 264.737 16.7031 263.403L16.6363 258.801V258.467C16.5032 258.467 16.3028 258.534 15.8359 258.667C15.3025 258.934 14.9023 258.734 14.702 258.601C14.4353 258.334 14.235 258.067 14.235 257.533C14.235 257.2 14.3018 256.799 14.5021 256.466C14.6352 256.199 14.9023 255.865 15.169 255.666C15.7695 255.199 16.1029 254.865 16.2361 254.665C16.5032 254.331 16.5699 254.131 16.5699 254.131C16.6363 253.931 16.6363 253.731 16.6363 253.464V248.861C16.6363 247.728 16.9034 246.727 17.4371 245.926C18.0373 245.126 18.7709 244.525 19.7049 243.992L19.9052 243.859C20.4386 243.525 20.9056 243.659 21.1059 243.792C21.3058 243.925 21.6392 244.259 21.6392 244.859C21.6392 245.193 21.5729 245.526 21.3058 245.86C21.1059 246.26 20.9056 246.527 20.5721 246.66L20.3054 246.86C19.7717 247.127 19.7049 247.327 19.7049 247.327C19.5714 247.46 19.5714 247.594 19.5714 247.728V252.597C19.5714 253.664 19.2379 254.665 18.571 255.666C18.7042 255.732 18.8377 255.799 18.9045 255.932C19.3715 256.332 19.5714 256.933 19.5714 257.8L19.6381 262.336H19.7049L19.9716 262.136C20.5053 261.802 20.9056 262.003 21.1059 262.069C21.3725 262.203 21.706 262.469 21.706 263.137Z" fill="#1A212B"/>
</svg>
