<svg width="319" height="310" viewBox="0 0 319 310" fill="none" xmlns="http://www.w3.org/2000/svg">
<path d="M220.906 168.345L17.7132 285.585L0.435552 275.567L0 121.738H0.0726658C-2.50154e-07 117.746 2.83131 112.882 6.31573 110.922L196.877 0.867925C198.692 -0.14851 200.217 -0.221176 201.379 0.432373L218.438 10.3778C218.511 10.3778 218.511 10.4505 218.584 10.4505C219.745 11.1036 220.471 12.4829 220.471 14.5158L220.906 168.345Z" fill="#1C2841"/>
<path d="M220.89 168.355L17.7462 285.583L17.6813 285.649V285.583L0.47171 275.586L0.0150146 121.761H0.0803107C0.0150145 117.781 2.82009 112.889 6.34306 110.932L196.896 0.879454C198.657 -0.164141 200.223 -0.229437 201.397 0.422756L218.411 10.3549C218.476 10.3549 218.541 10.4202 218.606 10.4855C219.781 11.0724 220.498 12.5078 220.498 14.5301L220.89 168.355Z" fill="#212B3B"/>
<path d="M164.526 257.989V272.667C164.526 277.755 161.2 282.778 154.545 286.627L135.823 297.522C122.45 305.285 100.661 305.285 87.157 297.522L68.3039 286.627C61.5195 282.713 58.1272 277.625 58.1925 272.471V257.793C58.1925 262.947 61.5848 268.1 68.3692 272.014L164.526 257.989Z" fill="#1A212B"/>
<path d="M154.37 243.799C167.851 251.583 167.922 264.204 154.528 271.988L135.827 282.856C122.433 290.639 100.646 290.638 87.1646 282.855L68.3412 271.987C54.8596 264.204 54.7886 251.585 68.1826 243.801L86.8836 232.933C100.278 225.149 122.065 225.148 135.546 232.932L154.37 243.799Z" fill="#327AB4"/>
<path d="M129.629 206.572L129.509 262.995C129.502 265.678 127.739 268.358 124.216 270.405C117.114 274.532 105.571 274.528 98.4296 270.405C94.8368 268.331 93.042 265.609 93.0497 262.89L93.1693 206.468C93.1616 209.186 94.9564 211.908 98.5492 213.982C105.691 218.106 117.234 218.109 124.335 213.982C127.858 211.935 129.621 209.256 129.629 206.572Z" fill="#4D5C75"/>
<path d="M124.245 196.172C131.386 200.296 131.431 206.982 124.336 211.105C117.234 215.232 105.691 215.228 98.5493 211.105C91.4079 206.982 91.3704 200.3 98.4719 196.173C105.567 192.049 117.104 192.049 124.245 196.172Z" fill="#2D2C2B"/>
<path d="M19.6234 309.568L2.34864 299.505C1.17488 298.853 0.522694 297.483 0.457397 295.461V275.565L17.7314 285.627L17.7967 305.523C17.7967 307.546 18.4489 308.915 19.6234 309.568Z" fill="#205988"/>
<path d="M220.873 168.325L220.929 188.236C220.941 192.232 218.132 197.097 214.654 199.106L24.0734 309.137C20.5954 311.145 17.777 309.529 17.7657 305.532L17.7092 285.621L220.873 168.325Z" fill="#205988"/>
<path d="M214.164 10.8994C217.643 8.89131 220.47 10.5025 220.481 14.4991L220.873 168.325L17.7092 285.621L17.3175 131.796C17.3062 127.799 20.1063 122.939 23.5843 120.931L214.164 10.8994Z" fill="#1C2841"/>
<path d="M215.503 164.383L23.4987 275.247L23.1356 131.068C23.1356 129.084 24.8816 126.053 26.6136 125.047L215.126 16.2083L215.503 164.383Z" fill="#101123"/>
<path d="M124.144 237.968C124.144 242.673 120.783 248.356 116.69 250.8C112.534 253.122 109.235 251.227 109.174 246.522C109.174 241.817 112.534 236.073 116.628 233.69C120.783 231.307 124.083 233.201 124.144 237.968Z" fill="#DBDCE0"/>
<path d="M37.7637 128.808L37.7743 132.545L29.681 137.217L29.6704 133.481L37.7637 128.808Z" fill="#57B3FE"/>
<path d="M122.356 98.8748L122.367 102.659L93.2726 119.457L93.2618 115.672L122.356 98.8748Z" fill="#57B3FE"/>
<path d="M127.189 162.376L127.199 166.112L95.5715 184.373L95.5609 180.636L127.189 162.376Z" fill="#4C5C75"/>
<path d="M103.05 166.835L103.061 170.62L90.2663 178.007L90.2556 174.222L103.05 166.835Z" fill="#57B3FE"/>
<path d="M115.059 150.474L115.069 154.21L98.1363 163.986L98.1257 160.25L115.059 150.474Z" fill="#57B3FE"/>
<path d="M97.1544 160.811L97.165 164.547L79.9366 174.494L79.926 170.758L97.1544 160.811Z" fill="#57B3FE"/>
<path d="M102.997 147.96L103.007 151.696L94.2242 156.767L94.2136 153.031L102.997 147.96Z" fill="#57B3FE"/>
<path d="M92.2717 154.153L92.2823 157.889L70.1556 170.664L70.145 166.928L92.2717 154.153Z" fill="#57B3FE"/>
<path d="M114.978 122.089L114.988 125.825L98.182 135.528L98.1714 131.792L114.978 122.089Z" fill="#57B3FE"/>
<path d="M131.608 121.964L77.5492 153.175L77.5599 156.911L131.608 125.706V121.964Z" fill="#57B3FE"/>
<path d="M102.917 119.575L102.927 123.312L64.7124 145.375L64.7018 141.639L102.917 119.575Z" fill="#78E75A"/>
<path d="M102.863 100.701L102.874 104.437L69.6415 123.623L69.6309 119.887L102.863 100.701Z" fill="#FFD06C"/>
<path d="M102.836 91.2388L102.847 94.975L75.3574 110.846L75.3468 107.11L102.836 91.2388Z" fill="#57B3FE"/>
<path d="M90.5173 117.257L90.5281 121.042L58.6048 139.472L58.5941 135.688L90.5173 117.257Z" fill="#57B3FE"/>
<path d="M72.6864 108.646L72.697 112.382L53.7796 123.304L53.769 119.568L72.6864 108.646Z" fill="#57B3FE"/>
<path d="M75.1007 154.589L75.1113 158.325L62.4854 165.615L62.4749 161.879L75.1007 154.589Z" fill="#F45170"/>
<path d="M63.0127 142.614L63.0233 146.35L43.008 157.906L42.9974 154.17L63.0127 142.614Z" fill="#57B3FE"/>
<path d="M55.4271 137.516L55.4378 141.301L42.9812 148.493L42.9705 144.708L55.4271 137.516Z" fill="#57B3FE"/>
<path d="M66.5478 121.667L66.5584 125.403L42.9541 139.031L42.9435 135.295L66.5478 121.667Z" fill="#57B3FE"/>
<path d="M51.615 120.811L51.6256 124.547L42.9272 129.569L42.9166 125.833L51.615 120.811Z" fill="#57B3FE"/>
<path d="M37.7907 138.27L37.8012 142.006L29.708 146.679L29.6974 142.943L37.7907 138.27Z" fill="#F45170"/>
<path d="M37.8169 147.683L37.8276 151.468L29.7344 156.141L29.7236 152.356L37.8169 147.683Z" fill="#57B3FE"/>
<path d="M37.8439 157.145L37.8545 160.881L29.7612 165.554L29.7506 161.818L37.8439 157.145Z" fill="#57B3FE"/>
<path d="M37.8709 166.607L37.8814 170.343L29.7882 175.015L29.7776 171.279L37.8709 166.607Z" fill="#57B3FE"/>
<path d="M94.5473 181.222L94.5579 184.958L75.894 195.733L75.8834 191.997L94.5473 181.222Z" fill="#57B3FE"/>
<path d="M88.3132 175.344L88.324 179.128L69.1532 190.197L69.1425 186.412L88.3132 175.344Z" fill="#57B3FE"/>
<path d="M77.561 172.123L77.5716 175.859L59.7519 186.147L59.7413 182.411L77.561 172.123Z" fill="#DBA660"/>
<path d="M61.1657 162.634L61.1763 166.371L43.0614 176.829L43.0508 173.093L61.1657 162.634Z" fill="#57B3FE"/>
<path d="M54.0025 157.293L54.0131 161.029L43.0344 167.367L43.0238 163.631L54.0025 157.293Z" fill="#57B3FE"/>
<path d="M69.0351 148.614L69.0457 152.35L57.3915 159.078L57.3809 155.342L69.0351 148.614Z" fill="#57B3FE"/>
<path d="M96.5668 132.718L96.5774 136.454L70.3969 151.57L70.3864 147.834L96.5668 132.718Z" fill="#57B3FE"/>
<path d="M37.8978 176.068L37.9084 179.804L29.8152 184.477L29.8046 180.741L37.8978 176.068Z" fill="#57B3FE"/>
<path d="M37.9242 185.53L37.9348 189.266L29.8415 193.939L29.8309 190.203L37.9242 185.53Z" fill="#57B3FE"/>
<path d="M74.1518 192.997L74.1624 196.733L57.0185 206.631L57.0079 202.895L74.1518 192.997Z" fill="#57B3FE"/>
<path d="M67.3687 187.436L67.3795 191.22L50.2356 201.119L50.2249 197.334L67.3687 187.436Z" fill="#57B3FE"/>
<path d="M56.9971 183.996L57.0077 187.732L43.1152 195.752L43.1046 192.016L56.9971 183.996Z" fill="#57B3FE"/>
<path d="M51.4384 177.728L51.449 181.464L43.0882 186.291L43.0776 182.555L51.4384 177.728Z" fill="#57B3FE"/>
<path d="M68.329 167.976L68.3396 171.712L53.5182 180.269L53.5076 176.533L68.329 167.976Z" fill="#57B3FE"/>
<path d="M37.951 194.992L37.9616 198.728L29.8684 203.4L29.8578 199.664L37.951 194.992Z" fill="#DBA660"/>
<path d="M37.978 204.405L37.9888 208.189L29.8955 212.862L29.8848 209.077L37.978 204.405Z" fill="#57B3FE"/>
<path d="M48.3669 198.407L48.3776 202.191L43.1417 205.214L43.131 201.43L48.3669 198.407Z" fill="#57B3FE"/>
<path d="M38.005 213.866L38.0156 217.603L29.9223 222.275L29.9117 218.539L38.005 213.866Z" fill="#57B3FE"/>
<path d="M54.5167 204.333L54.5273 208.069L43.1686 214.627L43.158 210.891L54.5167 204.333Z" fill="#57B3FE"/>
<path d="M38.0049 222.89L38.0155 226.626L29.9222 231.298L29.9116 227.562L38.0049 222.89Z" fill="#57B3FE"/>
<path d="M103.077 185.32L103.088 189.056L75.5985 204.927L75.5879 201.191L103.077 185.32Z" fill="#57B3FE"/>
<path d="M72.9275 202.727L72.9381 206.463L54.0207 217.385L54.0101 213.649L72.9275 202.727Z" fill="#57B3FE"/>
<path d="M51.8562 214.892L51.8668 218.629L43.1684 223.651L43.1578 219.914L51.8562 214.892Z" fill="#57B3FE"/>
<path d="M179.448 161.034C181.758 159.701 183.637 160.807 183.644 163.425C183.648 164.788 183.183 166.242 182.437 167.535C181.69 168.864 180.631 170.014 179.476 170.681L59.1912 240.127L100.451 216.306C101.606 215.639 102.634 214.507 103.412 213.16C104.159 211.866 104.624 210.413 104.62 209.05C104.612 206.432 102.702 205.343 100.424 206.659L179.448 161.034Z" fill="#1A212B"/>
<path d="M100.424 206.659C102.702 205.343 104.612 206.432 104.62 209.05C104.624 210.413 104.159 211.866 103.412 213.16C102.634 214.507 101.606 215.639 100.451 216.306L59.1913 240.127C56.8817 241.461 55.003 240.39 54.9954 237.701C54.9917 236.409 55.4564 234.92 56.1718 233.645C56.9495 232.298 58.0091 231.147 59.1639 230.48L100.424 206.659Z" fill="#F45170"/>
<path d="M175.184 78.8469L179.804 76.9162L179.819 82.4133L175.204 85.8142C174.797 89.5068 173.638 93.3772 171.865 97.1216L174.659 99.7983L171.304 105.641L167.568 104.564C165.21 107.911 162.432 110.891 159.43 113.137L158.805 118.811L154.021 121.573L153.366 116.637C150.333 117.876 147.576 118.092 145.206 117.475L141.488 122.855L138.111 120.899L140.881 115.011C139.148 113.29 137.943 110.816 137.517 107.637L132.869 109.52L132.854 104.023L137.496 100.542C137.932 96.8651 139.119 93.0107 140.808 89.3145L138.014 86.6376L141.369 80.8274L145.105 81.8716C147.436 78.5412 150.213 75.5929 153.188 73.3635L153.868 67.6246L158.652 64.8627L159.363 69.7985C162.34 68.5916 165.098 68.3761 167.467 68.9608L171.185 63.613L174.562 65.5369L171.792 71.4256C173.524 73.1466 174.757 75.6361 175.184 78.8469ZM156.35 107.84C163.387 103.777 169.07 93.9334 169.047 85.8475C169.024 77.7935 163.304 74.5655 156.267 78.6282C149.23 82.6911 143.603 92.4707 143.626 100.525C143.648 108.611 149.313 111.903 156.35 107.84Z" fill="#57B3FE"/>
<path d="M178.092 121.825L181.431 120.41L181.443 124.405L178.107 126.875C177.808 129.545 176.952 132.344 175.678 135.064L177.717 136.992L175.278 141.217L172.573 140.442C170.881 142.86 168.853 145.023 166.685 146.659L166.223 150.767L162.774 152.758L162.29 149.196C160.092 150.081 158.086 150.246 156.386 149.788L153.694 153.679L151.239 152.279L153.26 148.007C151.975 146.764 151.134 144.977 150.821 142.66L147.454 144.028L147.443 140.033L150.807 137.547C151.134 134.861 151.962 132.078 153.207 129.406L151.168 127.478L153.608 123.253L156.312 123.996C157.977 121.594 160.005 119.495 162.173 117.827L162.663 113.703L166.112 111.712L166.623 115.258C168.794 114.421 170.799 114.223 172.5 114.65L175.192 110.791L177.647 112.191L175.626 116.463C176.883 117.69 177.779 119.509 178.092 121.825ZM164.473 142.814C169.535 139.891 173.666 132.736 173.649 126.888C173.633 121.071 169.475 118.734 164.413 121.656C159.295 124.611 155.22 131.702 155.236 137.518C155.253 143.367 159.355 145.768 164.473 142.814Z" fill="#DBA660"/>
<path d="M156.31 83.7897C160.816 81.1882 164.499 83.3193 164.514 88.4968C164.529 93.6744 160.869 100.013 156.363 102.614C151.83 105.232 148.174 103.117 148.159 97.9391C148.145 92.7615 151.776 86.4072 156.31 83.7897Z" fill="#57B3FE"/>
<path d="M191.484 89.348C194.738 87.4691 197.417 88.9956 197.427 92.735C197.438 96.5063 194.777 101.116 191.522 102.995C188.212 104.906 185.562 103.363 185.551 99.5919C185.54 95.8526 188.174 91.2589 191.484 89.348Z" fill="#F45170"/>
<path d="M205.152 85.7461L208.492 84.3624L208.503 88.3574L205.167 90.8278C204.868 93.4973 204.012 96.2963 202.738 98.9845L204.778 100.944L202.338 105.17L199.606 104.411C197.913 106.828 195.913 108.975 193.745 110.611L193.283 114.688L189.806 116.695L189.323 113.165C187.152 114.034 185.147 114.199 183.446 113.74L180.755 117.631L178.299 116.232L180.293 111.944C179.035 110.717 178.195 108.929 177.854 106.629L174.515 107.981L174.503 103.986L177.839 101.483C178.166 98.7978 179.022 96.0309 180.24 93.3747L178.228 91.3988L180.668 87.2051L183.373 87.9486C185.037 85.5469 187.065 83.4158 189.234 81.7797L189.695 77.6396L193.172 75.6323L193.684 79.2104C195.854 78.3413 197.832 78.1919 199.533 78.6187L202.252 74.7439L204.707 76.1112L202.686 80.4157C203.943 81.6426 204.839 83.4298 205.152 85.7461ZM191.505 106.75C196.595 103.812 200.726 96.689 200.709 90.8403C200.693 84.9916 196.535 82.6542 191.445 85.5928C186.355 88.5314 182.28 95.6221 182.297 101.471C182.313 107.32 186.415 109.689 191.505 106.75Z" fill="#F45170"/>
<path d="M168.603 134.51C170.918 130.523 170.922 126.203 168.612 124.863C166.303 123.523 162.554 125.669 160.24 129.657C157.926 133.645 157.922 137.964 160.231 139.304C162.541 140.644 166.289 138.498 168.603 134.51Z" fill="#DBA660"/>
<path d="M318.62 232.445C318.62 237.309 315.135 243.407 310.852 245.875L204.21 307.436C201.959 308.742 199.927 308.815 198.548 307.871C198.402 307.799 198.33 307.726 198.257 307.654L191.578 303.879C190.199 303.007 189.328 301.265 189.328 298.869L188.965 186.928L311.215 116.366L318.257 120.504L318.62 232.445Z" fill="#57B3FE"/>
<path d="M198.687 307.947L191.58 303.86C190.197 303.042 189.316 301.281 189.316 298.891L188.939 186.943L196.046 191.031L196.36 302.979C196.36 305.432 197.241 307.13 198.687 307.947Z" fill="#57B3FE"/>
<path d="M196.062 191.049L188.969 186.927L311.199 116.358L318.292 120.479L196.062 191.049Z" fill="#57B3FE"/>
<path d="M318.292 120.479L318.609 232.416C318.623 237.307 315.141 243.384 310.844 245.865L204.194 307.439C199.938 309.897 196.393 307.876 196.379 302.986L196.062 191.049L318.292 120.479Z" fill="#205988"/>
<path d="M201.918 194.416L312.478 130.586L312.767 232.432C312.776 235.494 310.613 239.252 307.961 240.783L209.925 297.381C206.523 299.345 202.268 296.898 202.255 292.97L201.918 194.416Z" fill="#101123"/>
<path d="M318.257 109.833V120.504L196.08 191.066L188.965 186.928V176.257C188.893 171.32 192.377 165.295 196.733 162.827L303.375 101.266C305.553 100.032 307.513 99.8871 308.892 100.685L315.716 104.678C317.241 105.404 318.257 107.219 318.257 109.833Z" fill="#AA6256"/>
<path d="M308.896 100.706C307.478 99.883 305.517 99.9974 303.355 101.246L196.745 162.797C192.408 165.3 188.926 171.332 188.94 176.269L188.97 186.927L196.062 191.049L196.032 180.39C196.018 175.453 199.5 169.422 203.837 166.918L310.447 105.367C312.609 104.119 314.571 104.005 315.988 104.828L308.896 100.706Z" fill="#AA6256"/>
<path d="M310.446 105.367C314.743 102.886 318.248 104.884 318.262 109.821L318.292 120.479L196.062 191.049L196.032 180.39C196.018 175.453 199.5 169.422 203.836 166.918L310.446 105.367Z" fill="#DBA660"/>
<path d="M252.508 172.086L252.519 175.706L244.677 180.233L244.667 176.613L252.508 172.086Z" fill="#57B3FE"/>
<path d="M305.32 196.641L305.33 200.261L283.892 212.639L283.882 209.019L305.32 196.641Z" fill="#57B3FE"/>
<path d="M308.511 167.252L278.608 184.516L278.618 188.137L308.511 170.879V167.252Z" fill="#78E75A"/>
<path d="M303.62 160.894L303.631 164.561L272.701 182.418L272.69 178.751L303.62 160.894Z" fill="#57B3FE"/>
<path d="M286.345 152.551L286.355 156.17L268.026 166.753L268.016 163.133L286.345 152.551Z" fill="#57B3FE"/>
<path d="M288.684 197.064L288.694 200.684L276.461 207.747L276.451 204.127L288.684 197.064Z" fill="#F45170"/>
<path d="M276.971 185.461L276.982 189.081L257.589 200.278L257.579 196.658L276.971 185.461Z" fill="#57B3FE"/>
<path d="M269.622 180.523L269.633 184.189L257.564 191.157L257.553 187.491L269.622 180.523Z" fill="#57B3FE"/>
<path d="M280.397 165.167L280.407 168.786L257.537 181.99L257.527 178.37L280.397 165.167Z" fill="#57B3FE"/>
<path d="M265.929 164.337L265.939 167.957L257.511 172.823L257.501 169.203L265.929 164.337Z" fill="#57B3FE"/>
<path d="M252.534 181.253L252.544 184.873L244.703 189.4L244.693 185.78L252.534 181.253Z" fill="#F45170"/>
<path d="M252.56 190.373L252.571 194.04L244.729 198.567L244.719 194.9L252.56 190.373Z" fill="#57B3FE"/>
<path d="M252.586 199.54L252.596 203.16L244.755 207.688L244.745 204.068L252.586 199.54Z" fill="#57B3FE"/>
<path d="M252.612 208.708L252.623 212.327L244.781 216.855L244.771 213.235L252.612 208.708Z" fill="#57B3FE"/>
<path d="M307.525 222.868L307.535 226.488L295.249 233.581L295.239 229.961L307.525 222.868Z" fill="#57B3FE"/>
<path d="M301.485 217.173L301.496 220.84L282.921 231.564L282.911 227.897L301.485 217.173Z" fill="#57B3FE"/>
<path d="M291.068 214.052L291.078 217.672L273.813 227.64L273.802 224.02L291.068 214.052Z" fill="#DBA660"/>
<path d="M275.182 204.859L275.193 208.479L257.641 218.612L257.631 214.992L275.182 204.859Z" fill="#57B3FE"/>
<path d="M268.242 199.684L268.253 203.304L257.615 209.445L257.605 205.825L268.242 199.684Z" fill="#57B3FE"/>
<path d="M282.807 191.275L282.817 194.895L271.526 201.414L271.515 197.794L282.807 191.275Z" fill="#57B3FE"/>
<path d="M252.638 217.875L252.649 221.495L244.807 226.022L244.797 222.402L252.638 217.875Z" fill="#57B3FE"/>
<path d="M252.664 227.042L252.675 230.662L244.833 235.189L244.823 231.569L252.664 227.042Z" fill="#57B3FE"/>
<path d="M293.561 230.93L293.571 234.55L271.164 247.486L271.154 243.867L293.561 230.93Z" fill="#57B3FE"/>
<path d="M281.192 228.889L281.203 232.556L264.592 242.146L264.582 238.479L281.192 228.889Z" fill="#57B3FE"/>
<path d="M271.143 225.555L271.154 229.175L257.693 236.947L257.683 233.327L271.143 225.555Z" fill="#57B3FE"/>
<path d="M265.757 219.483L265.768 223.102L257.667 227.779L257.657 224.159L265.757 219.483Z" fill="#57B3FE"/>
<path d="M282.122 210.034L282.132 213.654L267.772 221.945L267.762 218.325L282.122 210.034Z" fill="#57B3FE"/>
<path d="M252.69 236.209L252.701 239.829L244.859 244.356L244.849 240.737L252.69 236.209Z" fill="#DBA660"/>
<path d="M252.716 245.33L252.726 248.996L244.885 253.524L244.875 249.857L252.716 245.33Z" fill="#57B3FE"/>
<path d="M262.782 239.518L262.792 243.185L257.719 246.114L257.709 242.447L262.782 239.518Z" fill="#57B3FE"/>
<path d="M252.742 254.497L252.753 258.117L244.911 262.644L244.901 259.024L252.742 254.497Z" fill="#57B3FE"/>
<path d="M268.74 245.26L268.751 248.88L257.745 255.234L257.735 251.614L268.74 245.26Z" fill="#57B3FE"/>
<path d="M252.742 263.239L252.753 266.859L244.911 271.386L244.901 267.766L252.742 263.239Z" fill="#57B3FE"/>
<path d="M286.578 243.704L286.589 247.324L268.26 257.906L268.25 254.286L286.578 243.704Z" fill="#57B3FE"/>
<path d="M266.163 255.491L266.173 259.111L257.745 263.976L257.735 260.356L266.163 255.491Z" fill="#57B3FE"/>
<path d="M216.204 244.238C216.428 244.381 216.57 244.625 216.57 244.992C216.57 245.358 216.448 245.745 216.204 246.152C215.98 246.559 215.695 246.865 215.369 247.048L215.023 247.252C213.72 248.005 212.681 248.31 211.928 248.127C211.195 247.944 210.788 247.068 210.788 245.501L210.767 238.497C210.767 238.049 210.727 237.723 210.645 237.478C210.564 237.255 210.34 237.132 209.994 237.092C209.627 237.031 209.057 237.153 208.263 237.458C207.897 237.601 207.611 237.601 207.428 237.417C207.225 237.255 207.123 236.99 207.123 236.583C207.123 236.175 207.225 235.768 207.408 235.402C207.591 235.015 207.876 234.669 208.263 234.384C209.037 233.793 209.607 233.244 209.973 232.775C210.319 232.327 210.543 231.94 210.625 231.635C210.706 231.289 210.747 230.902 210.747 230.474L210.727 223.45C210.727 221.882 211.114 220.559 211.846 219.52C212.579 218.502 213.618 217.586 214.941 216.833L215.287 216.629C215.613 216.446 215.898 216.426 216.122 216.568C216.367 216.711 216.489 216.955 216.489 217.321C216.489 217.668 216.367 218.075 216.122 218.482C215.898 218.889 215.613 219.195 215.308 219.378L214.86 219.622C214.025 220.111 213.72 220.457 213.597 220.681C213.435 221.007 213.333 221.332 213.333 221.699L213.353 229.069C213.374 230.861 212.6 232.633 211.093 234.302C212.6 234.2 213.374 235.076 213.374 236.888L213.394 244.259C213.414 244.605 213.496 244.829 213.659 244.971C213.781 245.053 214.086 245.053 214.941 244.564L215.369 244.32C215.674 244.136 215.959 244.096 216.204 244.238Z" fill="#4C5C75"/>
<path d="M239.964 217.627C239.964 218.014 239.883 218.4 239.679 218.787C239.496 219.174 239.211 219.5 238.845 219.805C238.071 220.396 237.48 220.946 237.114 221.414C236.768 221.862 236.564 222.249 236.462 222.574C236.381 222.9 236.34 223.287 236.34 223.735L236.36 230.739C236.36 232.307 235.994 233.63 235.241 234.669C234.508 235.707 233.469 236.603 232.146 237.356L231.8 237.56C231.474 237.743 231.209 237.764 230.965 237.621C230.721 237.499 230.619 237.255 230.619 236.868C230.598 236.522 230.721 236.114 230.965 235.728C231.209 235.3 231.474 235.015 231.8 234.832L232.227 234.587C233.082 234.099 233.388 233.732 233.49 233.529C233.673 233.182 233.754 232.857 233.754 232.51L233.734 225.14C233.714 223.328 234.508 221.577 236.014 219.907C234.487 219.989 233.714 219.113 233.714 217.321L233.693 209.951C233.673 209.584 233.612 209.36 233.429 209.238C233.327 209.136 233.001 209.136 232.166 209.625L231.739 209.89C231.413 210.073 231.128 210.093 230.883 209.971C230.639 209.829 230.537 209.564 230.537 209.218C230.537 208.831 230.639 208.464 230.883 208.037C231.128 207.63 231.392 207.345 231.718 207.141L232.064 206.958C233.388 206.184 234.426 205.879 235.159 206.062C235.913 206.245 236.299 207.121 236.299 208.689L236.32 215.693C236.32 216.14 236.381 216.487 236.442 216.711C236.544 216.935 236.768 217.057 237.093 217.118C237.46 217.159 238.05 217.036 238.824 216.731C239.211 216.588 239.476 216.609 239.679 216.772C239.883 216.935 239.964 217.22 239.964 217.627Z" fill="#4C5C75"/>
<path d="M228.339 209.401C228.583 209.564 228.726 209.849 228.726 210.277C228.726 210.44 228.705 210.643 228.644 210.887L221.05 241.042C220.968 241.388 220.826 241.714 220.602 242.06C220.358 242.406 220.093 242.671 219.767 242.854C219.36 243.078 219.034 243.118 218.769 242.956C218.525 242.793 218.403 242.508 218.403 242.08C218.403 241.917 218.423 241.714 218.484 241.449L226.079 211.315C226.14 210.969 226.303 210.623 226.527 210.297C226.751 209.971 227.036 209.686 227.362 209.503C227.748 209.279 228.074 209.238 228.339 209.401Z" fill="#4C5C75"/>
</svg>
