<svg width="58" height="58" viewBox="0 0 58 58" fill="none" xmlns="http://www.w3.org/2000/svg">
<g clip-path="url(#clip0_202_183)">
<path d="M35.5599 23.6123L26.8454 31.8434L22.663 27.5406C22.1994 27.0633 21.4359 27.0524 20.959 27.5161C20.4817 27.9802 20.4708 28.7432 20.9345 29.2206L25.9506 34.3699C26.4166 34.8387 27.1697 34.8548 27.6551 34.4057L37.2403 25.365C37.473 25.1454 37.609 24.8423 37.618 24.5226C37.627 24.203 37.5085 23.8928 37.2884 23.6605C36.8219 23.1756 36.0528 23.1543 35.5599 23.6123Z" fill="#6BC1FF"/>
<path d="M29.0936 10.9449C19.134 10.9449 11.0356 19.0433 11.0356 29.0029C11.0356 38.963 19.134 47.0613 29.0936 47.0613C39.0537 47.0613 47.152 38.963 47.152 29.0029C47.152 19.0433 39.0537 10.9449 29.0936 10.9449ZM29.0936 44.6439C20.4636 44.6439 13.4531 37.6211 13.4531 29.0029C13.4531 20.3847 20.4636 13.3624 29.0936 13.3624C37.7321 13.3624 44.7346 20.3649 44.7346 29.0029C44.7346 37.6409 37.7321 44.6439 29.0936 44.6439Z" fill="#6BC1FF"/>
<path d="M53.9446 22.355L54.3436 15.1873C54.3714 14.7061 54.1098 14.2543 53.6788 14.039L47.2967 10.8118L44.0695 4.42973C43.85 4.00244 43.401 3.74228 42.9212 3.76494L35.7412 4.15211L29.7581 0.199244C29.3549 -0.0665776 28.8322 -0.0665776 28.4285 0.199244L22.4454 4.15211L15.2781 3.75314C14.7965 3.72481 14.3451 3.98638 14.1298 4.41793L10.9022 10.8L4.52059 14.0272C4.09282 14.2463 3.83314 14.6953 3.8558 15.1755L4.2543 22.3432L0.301906 28.3263C0.0360836 28.7295 0.0360836 29.2522 0.301906 29.6559L4.24249 35.6508L3.84352 42.8186C3.81567 43.2997 4.07677 43.7516 4.50831 43.9669L10.8904 47.194L14.1176 53.5761C14.3366 54.0039 14.7857 54.2636 15.2658 54.2409L22.4336 53.8419L28.4167 57.7943C28.8176 58.0687 29.3454 58.0687 29.7463 57.7943L35.7294 53.8419L42.8972 54.2409C43.3783 54.2688 43.8297 54.0072 44.0454 53.5761L47.2726 47.194L53.6547 43.9669C54.082 43.7473 54.3421 43.2988 54.3195 42.8186L53.9205 35.6508L57.8729 29.6677C58.1387 29.2645 58.1387 28.7414 57.8729 28.3381L53.9446 22.355ZM51.6962 34.6598C51.5489 34.876 51.4804 35.1362 51.5031 35.3973L51.8775 42.1779L45.8462 45.2237C45.6163 45.3389 45.4298 45.5259 45.3146 45.7559L42.2683 51.7871L35.4877 51.4127C35.228 51.4033 34.9716 51.4703 34.7502 51.6058L29.0933 55.341L23.4369 51.6058C23.2405 51.4732 23.0091 51.4014 22.7721 51.4004H22.7117L15.9306 51.7753L12.8848 45.7436C12.7696 45.5136 12.5831 45.3271 12.3527 45.2119L6.3091 42.1779L6.68399 35.3973C6.69344 35.1376 6.62592 34.8812 6.49041 34.6598L2.75568 29.0029L6.49041 23.3461C6.6382 23.1303 6.70666 22.8697 6.68399 22.609L6.3091 15.828L12.3409 12.7821C12.5708 12.6669 12.7573 12.4804 12.8725 12.2505L15.9184 6.21872L22.6994 6.59361C22.9586 6.60258 23.215 6.53553 23.4369 6.40003L29.0933 2.6653L34.7502 6.40003C34.9664 6.54781 35.227 6.61627 35.4877 6.59361L42.2683 6.21872L45.3146 12.2505C45.4298 12.4804 45.6163 12.6669 45.8462 12.7821L51.8775 15.828L51.5031 22.609C51.4937 22.8682 51.5612 23.1246 51.6962 23.3461L55.4314 29.0029L51.6962 34.6598Z" fill="#6BC1FF"/>
</g>
<defs>
<clipPath id="clip0_202_183">
<rect width="58" height="58" fill="white"/>
</clipPath>
</defs>
</svg>
