<svg width="80" height="80" viewBox="0 0 80 80" fill="none" xmlns="http://www.w3.org/2000/svg">
<path d="M54.1688 20.4125C51.9385 18.4016 49.3043 16.8904 46.4427 15.9801C43.581 15.0698 40.5578 14.7814 37.5757 15.1341C33.0745 15.6482 28.8556 17.5883 25.5355 20.6708C22.2154 23.7534 19.9681 27.8169 19.1218 32.2676C18.2756 36.7183 18.8748 41.323 20.832 45.409C22.7891 49.4949 26.0016 52.8479 30 54.978V67.5C30.0007 68.1629 30.2643 68.7984 30.733 69.2671C31.2017 69.7357 31.8372 69.9994 32.5 70H35V72.5C35.0007 73.1629 35.2643 73.7984 35.733 74.2671C36.2017 74.7357 36.8372 74.9994 37.5 75H42.5C43.1629 74.9994 43.7984 74.7357 44.2671 74.2671C44.7358 73.7984 44.9994 73.1629 45 72.5V70H47.5C48.1629 69.9994 48.7984 69.7357 49.2671 69.2671C49.7358 68.7984 49.9994 68.1629 50 67.5V54.9786C53.017 53.3718 55.6013 51.0603 57.5334 48.2405C59.4655 45.4207 60.6881 42.1761 61.0974 38.7826C61.5067 35.389 61.0905 31.9467 59.8842 28.7485C58.6779 25.5502 56.7172 22.6905 54.1688 20.4125ZM47.5 60V62.5H32.5V60H47.5ZM42.5019 72.5H37.5V70H42.5007L42.5019 72.5ZM43.75 67.5H32.5V65H47.5V67.5H43.75ZM48.2019 53.0903C47.9914 53.1928 47.814 53.3525 47.6898 53.5511C47.5657 53.7496 47.5 53.9791 47.5 54.2133V57.5H41.25V51.7676L44.6338 48.3838C44.8615 48.148 44.9875 47.8323 44.9846 47.5045C44.9818 47.1768 44.8503 46.8633 44.6186 46.6315C44.3868 46.3997 44.0733 46.2683 43.7455 46.2654C43.4178 46.2626 43.102 46.3886 42.8663 46.6163L40 49.4824L37.1338 46.6163C36.898 46.3886 36.5823 46.2626 36.2545 46.2654C35.9268 46.2683 35.6133 46.3997 35.3815 46.6315C35.1498 46.8633 35.0183 47.1768 35.0154 47.5045C35.0126 47.8323 35.1386 48.148 35.3663 48.3838L38.75 51.7676V57.5H32.5V54.2133C32.5001 53.9791 32.4343 53.7496 32.3102 53.5511C32.1861 53.3525 32.0087 53.1928 31.7982 53.0903C28.1492 51.3181 25.1739 48.4096 23.3194 44.8019C21.4648 41.1941 20.8311 37.0819 21.5136 33.0832C22.196 29.0845 24.1577 25.4152 27.1038 22.6268C30.05 19.8383 33.8215 18.0813 37.8517 17.6196C38.5735 17.539 39.2993 17.4984 40.0257 17.4981C44.6334 17.4844 49.0811 19.1874 52.5013 22.275C54.794 24.3242 56.5469 26.9063 57.6054 29.7933C58.6639 32.6804 58.9953 35.7837 58.5703 38.8292C58.1454 41.8746 56.9773 44.7687 55.169 47.2558C53.3607 49.7429 50.9679 51.7469 48.2019 53.0903Z" fill="#6BC1FF"/>
<path d="M40 12.5C40.3315 12.5 40.6495 12.3683 40.8839 12.1339C41.1183 11.8995 41.25 11.5815 41.25 11.25V6.25C41.25 5.91848 41.1183 5.60054 40.8839 5.36612C40.6495 5.1317 40.3315 5 40 5C39.6685 5 39.3505 5.1317 39.1161 5.36612C38.8817 5.60054 38.75 5.91848 38.75 6.25V11.25C38.75 11.5815 38.8817 11.8995 39.1161 12.1339C39.3505 12.3683 39.6685 12.5 40 12.5Z" fill="#6BC1FF"/>
<path d="M21.4388 19.4561C21.5542 19.5755 21.6921 19.6707 21.8446 19.7362C21.9971 19.8017 22.1611 19.8362 22.3271 19.8377C22.4931 19.8391 22.6577 19.8075 22.8113 19.7446C22.9649 19.6818 23.1045 19.589 23.2218 19.4716C23.3392 19.3542 23.432 19.2147 23.4949 19.061C23.5577 18.9074 23.5893 18.7428 23.5879 18.5768C23.5865 18.4109 23.552 18.2468 23.4865 18.0943C23.421 17.9418 23.3257 17.8039 23.2063 17.6886L19.6706 14.1529C19.5553 14.0335 19.4174 13.9382 19.2648 13.8727C19.1123 13.8072 18.9483 13.7727 18.7823 13.7713C18.6164 13.7698 18.4518 13.8015 18.2982 13.8643C18.1445 13.9272 18.005 14.02 17.8876 14.1374C17.7702 14.2547 17.6774 14.3943 17.6146 14.5479C17.5517 14.7015 17.5201 14.8661 17.5215 15.0321C17.523 15.1981 17.5575 15.3621 17.623 15.5146C17.6885 15.6671 17.7837 15.805 17.9031 15.9204L21.4388 19.4561Z" fill="#6BC1FF"/>
<path d="M15 35H10C9.66848 35 9.35054 35.1317 9.11612 35.3661C8.8817 35.6005 8.75 35.9185 8.75 36.25C8.75 36.5815 8.8817 36.8995 9.11612 37.1339C9.35054 37.3683 9.66848 37.5 10 37.5H15C15.3315 37.5 15.6495 37.3683 15.8839 37.1339C16.1183 36.8995 16.25 36.5815 16.25 36.25C16.25 35.9185 16.1183 35.6005 15.8839 35.3661C15.6495 35.1317 15.3315 35 15 35Z" fill="#6BC1FF"/>
<path d="M21.4388 53.0439L17.9031 56.5796C17.7837 56.6949 17.6885 56.8329 17.623 56.9854C17.5575 57.1379 17.523 57.3019 17.5215 57.4679C17.5201 57.6339 17.5517 57.7985 17.6146 57.9521C17.6774 58.1057 17.7702 58.2453 17.8876 58.3626C18.005 58.48 18.1445 58.5728 18.2982 58.6357C18.4518 58.6985 18.6164 58.7301 18.7823 58.7287C18.9483 58.7273 19.1123 58.6928 19.2648 58.6273C19.4174 58.5617 19.5553 58.4665 19.6706 58.3471L23.2063 54.8114C23.434 54.5756 23.56 54.2599 23.5572 53.9321C23.5543 53.6044 23.4229 53.2909 23.1911 53.0591C22.9594 52.8273 22.6458 52.6959 22.3181 52.693C21.9904 52.6902 21.6746 52.8162 21.4388 53.0439Z" fill="#6BC1FF"/>
<path d="M60.3295 14.1529L56.7937 17.6886C56.6743 17.8039 56.5791 17.9418 56.5136 18.0943C56.4481 18.2468 56.4136 18.4109 56.4122 18.5768C56.4107 18.7428 56.4423 18.9074 56.5052 19.061C56.568 19.2147 56.6609 19.3542 56.7782 19.4716C56.8956 19.589 57.0352 19.6818 57.1888 19.7446C57.3424 19.8075 57.507 19.8391 57.673 19.8377C57.8389 19.8362 58.003 19.8017 58.1555 19.7362C58.308 19.6707 58.4459 19.5755 58.5612 19.4561L62.097 15.9204C62.2164 15.805 62.3116 15.6671 62.3771 15.5146C62.4426 15.3621 62.4771 15.1981 62.4785 15.0321C62.48 14.8661 62.4484 14.7015 62.3855 14.5479C62.3226 14.3943 62.2298 14.2547 62.1125 14.1374C61.9951 14.02 61.8555 13.9272 61.7019 13.8643C61.5483 13.8015 61.3837 13.7698 61.2177 13.7713C61.0517 13.7727 60.8877 13.8072 60.7352 13.8727C60.5827 13.9382 60.4448 14.0335 60.3295 14.1529Z" fill="#6BC1FF"/>
<path d="M58.5613 53.0439C58.3255 52.8162 58.0098 52.6902 57.682 52.693C57.3543 52.6959 57.0407 52.8273 56.809 53.0591C56.5772 53.2909 56.4458 53.6044 56.4429 53.9321C56.4401 54.2599 56.5661 54.5756 56.7938 54.8114L60.3295 58.3471C60.5653 58.5748 60.881 58.7008 61.2088 58.698C61.5365 58.6951 61.85 58.5637 62.0818 58.3319C62.3135 58.1001 62.445 57.7866 62.4479 57.4589C62.4507 57.1311 62.3247 56.8154 62.097 56.5796L58.5613 53.0439Z" fill="#6BC1FF"/>
<path d="M70 35H65C64.6685 35 64.3505 35.1317 64.1161 35.3661C63.8817 35.6005 63.75 35.9185 63.75 36.25C63.75 36.5815 63.8817 36.8995 64.1161 37.1339C64.3505 37.3683 64.6685 37.5 65 37.5H70C70.3315 37.5 70.6495 37.3683 70.8839 37.1339C71.1183 36.8995 71.25 36.5815 71.25 36.25C71.25 35.9185 71.1183 35.6005 70.8839 35.3661C70.6495 35.1317 70.3315 35 70 35Z" fill="#6BC1FF"/>
</svg>
