<svg width="90" height="90" viewBox="0 0 90 90" fill="none" xmlns="http://www.w3.org/2000/svg">
<mask id="mask0_202_189" style="mask-type:luminance" maskUnits="userSpaceOnUse" x="0" y="0" width="90" height="90">
<path d="M89 89V1H1V89H89Z" fill="white" stroke="white" stroke-width="2"/>
</mask>
<g mask="url(#mask0_202_189)">
<path d="M1.4145 42.2455L10.4287 19.3962C10.707 18.6906 11.5047 18.3442 12.2103 18.6226L19.383 21.4523C20.0886 21.7306 20.4351 22.5283 20.1567 23.2339L11.1424 46.0833C10.8642 46.7889 10.0665 47.1352 9.36087 46.8568L2.18812 44.0272C1.48253 43.7488 1.13624 42.9511 1.4145 42.2455Z" stroke="#6BC1FF" stroke-width="2" stroke-miterlimit="10" stroke-linecap="round" stroke-linejoin="round"/>
<path d="M64.5851 55.0264L59.8926 51.4107" stroke="#6BC1FF" stroke-width="2" stroke-miterlimit="10" stroke-linecap="round" stroke-linejoin="round"/>
<path d="M58.3059 60.079L54.1343 56.8673" stroke="#6BC1FF" stroke-width="2" stroke-miterlimit="10" stroke-linecap="round" stroke-linejoin="round"/>
<path d="M51.4046 64.6805L48.4316 62.3797" stroke="#6BC1FF" stroke-width="2" stroke-miterlimit="10" stroke-linecap="round" stroke-linejoin="round"/>
<path d="M20.0644 57.123C18.5962 55.8781 18.4152 53.6789 19.6601 52.2108L22.9189 48.3856C24.1637 46.9175 26.3631 46.7365 27.8311 47.9813C29.2992 49.2261 29.4803 51.4253 28.2354 52.8934L24.9766 56.7187C23.7317 58.1869 21.5325 58.3679 20.0644 57.123Z" stroke="#6BC1FF" stroke-width="2" stroke-miterlimit="10" stroke-linecap="round" stroke-linejoin="round"/>
<path d="M25.3807 61.6308C23.9126 60.386 23.7317 58.1868 24.9764 56.7186L28.2354 52.8935C29.4801 51.4253 31.6795 51.2443 33.1476 52.4892C34.6157 53.7339 34.7966 55.9332 33.5519 57.4012L30.2929 61.2265C29.048 62.6947 26.8488 62.8757 25.3807 61.6308Z" stroke="#6BC1FF" stroke-width="2" stroke-miterlimit="10" stroke-linecap="round" stroke-linejoin="round"/>
<path d="M30.6972 66.1387C29.229 64.8938 29.048 62.6946 30.2929 61.2264L33.5519 57.4011C34.7966 55.9331 36.9959 55.7521 38.4641 56.997C39.932 58.2417 40.1131 60.4409 38.8682 61.909L35.6094 65.7344C34.3645 67.2025 32.1653 67.3835 30.6972 66.1387Z" stroke="#6BC1FF" stroke-width="2" stroke-miterlimit="10" stroke-linecap="round" stroke-linejoin="round"/>
<path d="M36.0136 70.6466C34.5454 69.4017 34.3644 67.2025 35.6093 65.7344L38.8681 61.9092C40.113 60.4411 42.3123 60.26 43.7803 61.5049C45.2484 62.7496 45.4295 64.9488 44.1846 66.4169L40.9258 70.2423C39.6809 71.7104 37.4817 71.8915 36.0136 70.6466Z" stroke="#6BC1FF" stroke-width="2" stroke-miterlimit="10" stroke-linecap="round" stroke-linejoin="round"/>
<path d="M70.4321 49.5137L68.6792 48.2201L60.4351 42.1358L59.4905 41.4717C51.7076 42.7937 46.4898 38.5293 44.3659 36.3114C43.7412 35.6589 42.71 35.6341 42.038 36.2378C34.7401 42.7921 30.514 41.1122 28.4621 39.1624C27.4754 38.225 27.6452 36.609 28.7908 35.8737C32.7133 33.356 36.3763 30.1693 38.9935 27.6857L38.5275 27.5111C36.8707 26.8903 35.1296 26.5241 33.3634 26.4248L28.537 26.1537C27.9048 26.1182 27.2708 26.1103 26.639 26.1509C25.4998 26.2242 24.356 26.0337 23.2978 25.5909L19.8034 24.1287L11.2334 45.852L18.0085 50.1249L20.1527 51.632L22.9186 48.3857C24.1633 46.9174 26.3625 46.7365 27.8307 47.9812C29.2988 49.2261 29.4798 51.4253 28.235 52.8934C29.4798 51.4253 31.679 51.2442 33.1472 52.4891C34.6153 53.734 34.7963 55.9332 33.5515 57.4013C34.7963 55.9332 36.9955 55.7521 38.4637 56.997C39.9318 58.2417 40.1129 60.4411 38.868 61.9091C40.1129 60.4411 42.3121 60.26 43.7802 61.5048C45.2483 62.7496 45.4294 64.949 44.1845 66.417L42.8626 67.9686L45.7723 70.1161C47.3883 71.3086 49.6655 71.1717 51.053 69.7199C52.4035 68.307 52.484 66.18 51.4043 64.6806L52.8633 65.7573C54.5273 66.9853 56.884 66.7968 58.2515 65.2459C59.5764 63.7435 59.5428 61.5392 58.3057 60.079L59.1254 60.6837C60.712 61.8546 62.9419 61.7484 64.3378 60.3557C65.8217 58.8751 65.8611 56.5555 64.5849 55.0265L65.8154 55.9348C67.5356 57.2041 69.9579 56.8782 71.2797 55.1868C72.6598 53.4209 72.2355 50.8445 70.4321 49.5137Z" stroke="#6BC1FF" stroke-width="2" stroke-miterlimit="10" stroke-linecap="round" stroke-linejoin="round"/>
<path d="M50.7099 24.9171L45.7057 24.124C44.0128 23.8556 42.2924 24.4162 41.0874 25.635C38.6043 28.1469 33.9184 32.5826 28.7908 35.8738C27.6453 36.6091 27.4753 38.2248 28.4621 39.1625C30.5138 41.112 34.74 42.792 42.038 36.2376C42.7101 35.634 43.741 35.6588 44.3659 36.3113C46.4934 38.5328 51.7239 42.8082 59.5276 41.4661L71.2603 50.1249L78.5933 45.4146L70.2193 24.188L65.1296 26.0669C63.718 26.5879 62.1963 26.7377 60.7102 26.5023L56.8232 25.8862" stroke="#6BC1FF" stroke-width="2" stroke-miterlimit="10" stroke-linecap="round" stroke-linejoin="round"/>
<path d="M83.0465 28.2052L79.5711 19.3961C79.2929 18.6907 78.4952 18.3443 77.7896 18.6225L70.6168 21.4522C69.9112 21.7307 69.565 22.5284 69.8432 23.2338L78.8575 46.0832C79.1357 46.7888 79.9336 47.1351 80.639 46.8569L87.8118 44.0271C88.5175 43.7487 88.8638 42.9512 88.5854 42.2456L85.307 33.9355" stroke="#6BC1FF" stroke-width="2" stroke-miterlimit="10" stroke-linecap="round" stroke-linejoin="round"/>
</g>
</svg>
