<svg width="65" height="65" viewBox="0 0 65 65" fill="none" xmlns="http://www.w3.org/2000/svg">
<path fill-rule="evenodd" clip-rule="evenodd" d="M56.3602 31.4983C55.8078 31.5915 55.4349 32.1152 55.5281 32.6686C55.7483 33.9699 55.8594 35.2791 55.8594 36.5625C55.8594 43.7211 52.6687 50.1827 47.5278 54.4851C46.63 48.6555 42.4911 43.98 36.9951 42.3068C39.1802 40.8492 40.625 38.3656 40.625 35.5469C40.625 31.0658 36.9801 27.4219 32.5 27.4219C28.0199 27.4219 24.375 31.0658 24.375 35.5469C24.375 38.3656 25.8198 40.8492 28.0049 42.3068C22.5089 43.98 18.37 48.6555 17.4722 54.4851C12.3313 50.1827 9.14062 43.7211 9.14062 36.5625C9.14062 35.2791 9.25171 33.9699 9.47189 32.6686C9.56512 32.1152 9.1922 31.5915 8.63976 31.4983C8.07442 31.403 7.56264 31.778 7.46841 32.3314C7.23038 33.7418 7.10938 35.166 7.10938 36.5625C7.10938 49.0356 16.0179 59.5628 28.2917 61.5941C28.3472 61.604 28.4038 61.608 28.4583 61.608C28.9463 61.608 29.3768 61.2549 29.4591 60.759C29.5513 60.2055 29.1764 59.6819 28.623 59.5906C25.2006 59.0242 22.0696 57.7302 19.3582 55.8947C19.8482 49.0023 25.5127 43.6719 32.5 43.6719C39.4873 43.6719 45.1518 49.0023 45.6418 55.8947C42.9304 57.7302 39.7994 59.0242 36.377 59.5906C35.8236 59.6819 35.4487 60.2055 35.5409 60.759C35.6232 61.2549 36.0537 61.608 36.5417 61.608C36.5962 61.608 36.6528 61.604 36.7083 61.5941C48.9821 59.5628 57.8906 49.0356 57.8906 36.5625C57.8906 35.166 57.7696 33.7418 57.5316 32.3314C57.4374 31.778 56.9196 31.4011 56.3602 31.4983ZM26.4062 35.5469C26.4062 32.1866 29.1397 29.4531 32.5 29.4531C35.8603 29.4531 38.5938 32.1866 38.5938 35.5469C38.5938 38.9072 35.8603 41.6406 32.5 41.6406C29.1397 41.6406 26.4062 38.9072 26.4062 35.5469Z" fill="#6BC1FF"/>
<path fill-rule="evenodd" clip-rule="evenodd" d="M43.6222 11.1282C43.5022 10.7593 43.1848 10.4915 42.802 10.4359L36.3125 9.49371L33.4104 3.61221C33.0693 2.92191 31.9307 2.92191 31.5895 3.61221L28.6874 9.49371L22.1979 10.4359C21.8151 10.4915 21.4977 10.7593 21.3777 11.1282C21.2587 11.4952 21.3578 11.8999 21.6346 12.1696L26.3308 16.7459L25.222 23.2086C25.1565 23.5915 25.3132 23.9763 25.6256 24.2024C25.9401 24.4305 26.3536 24.4643 26.6958 24.2798L32.5 21.227L38.3041 24.2798C38.4529 24.3591 38.6155 24.3968 38.7772 24.3968C38.9875 24.3968 39.1967 24.3314 39.3743 24.2024C39.6867 23.9763 39.8434 23.5915 39.7779 23.2086L38.6691 16.7459L43.3654 12.1696C43.6421 11.8999 43.7413 11.4952 43.6222 11.1282ZM36.8689 15.6628C36.6299 15.8969 36.5208 16.2321 36.5773 16.5634L37.4283 21.5245L32.9731 19.1818C32.8243 19.1045 32.6626 19.0648 32.5 19.0648C32.3373 19.0648 32.1756 19.1045 32.0269 19.1818L27.5716 21.5245L28.4226 16.5634C28.4791 16.2321 28.37 15.8969 28.131 15.6628L24.5267 12.1518L29.5076 11.4278C29.8389 11.3782 30.1245 11.1719 30.2723 10.8723L32.5 6.35757L34.7276 10.8723C34.8754 11.1719 35.161 11.3782 35.4923 11.4278L40.4732 12.1518L36.8689 15.6628Z" fill="#6BC1FF"/>
<path fill-rule="evenodd" clip-rule="evenodd" d="M8.19637 27.4695C8.13091 27.8523 8.28762 28.2372 8.60004 28.4633C8.91544 28.6914 9.33002 28.7231 9.67021 28.5406L14.2187 26.1484L18.7672 28.5406C18.916 28.62 19.0786 28.6577 19.2403 28.6577C19.4506 28.6577 19.6598 28.5922 19.8374 28.4633C20.1498 28.2372 20.3065 27.8523 20.241 27.4695L19.3722 22.4052L23.0529 18.8188C23.3296 18.549 23.4288 18.1444 23.3097 17.7774C23.1897 17.4084 22.8723 17.1407 22.4895 17.0851L17.4034 16.3472L15.1292 11.7372C14.788 11.0469 13.6494 11.0469 13.3082 11.7372L11.034 16.3472L5.94791 17.0851C5.56507 17.1407 5.24768 17.4084 5.12767 17.7774C5.00865 18.1444 5.10784 18.549 5.38455 18.8188L9.0652 22.4052L8.19637 27.4695ZM8.27671 18.801L11.8542 18.2812C12.1855 18.2317 12.4711 18.0254 12.6189 17.7258L14.2187 14.4826L15.8185 17.7258C15.9663 18.0254 16.2519 18.2317 16.5832 18.2812L20.1607 18.801L17.5721 21.3222C17.333 21.5562 17.2239 21.8915 17.2805 22.2227L17.8914 25.7854L14.6918 24.1032C14.543 24.0259 14.3814 23.9862 14.2187 23.9862C14.056 23.9862 13.8944 24.0259 13.7456 24.1032L10.546 25.7854L11.157 22.2227C11.2135 21.8915 11.1044 21.5562 10.8654 21.3222L8.27671 18.801Z" fill="#6BC1FF"/>
<path fill-rule="evenodd" clip-rule="evenodd" d="M59.052 17.0851L53.9659 16.3472L51.6917 11.7372C51.3505 11.0469 50.2119 11.0469 49.8707 11.7372L47.5965 16.3472L42.5104 17.0851C42.1276 17.1407 41.8102 17.4084 41.6902 17.7774C41.5712 18.1444 41.6703 18.549 41.9471 18.8188L45.6277 22.4052L44.7589 27.4695C44.6934 27.8523 44.8501 28.2372 45.1625 28.4633C45.4769 28.6914 45.8905 28.7231 46.2327 28.5406L50.7812 26.1484L55.3297 28.5406C55.4785 28.62 55.6411 28.6577 55.8028 28.6577C56.0131 28.6577 56.2223 28.5922 56.3999 28.4633C56.7123 28.2372 56.869 27.8523 56.8035 27.4695L55.9347 22.4052L59.6154 18.8188C59.8921 18.549 59.9913 18.1444 59.8722 17.7774C59.7522 17.4084 59.4348 17.1407 59.052 17.0851ZM54.1346 21.3222C53.8955 21.5562 53.7864 21.8915 53.843 22.2227L54.4539 25.7854L51.2543 24.1032C51.1055 24.0259 50.9439 23.9862 50.7812 23.9862C50.6185 23.9862 50.4569 24.0259 50.3081 24.1032L47.1085 25.7854L47.7195 22.2227C47.776 21.8915 47.6669 21.5562 47.4279 21.3222L44.8392 18.801L48.4167 18.2812C48.748 18.2317 49.0336 18.0254 49.1814 17.7258L50.7812 14.4826L52.381 17.7258C52.5288 18.0254 52.8144 18.2317 53.1457 18.2812L56.7232 18.801L54.1346 21.3222Z" fill="#6BC1FF"/>
<path d="M32.5 61.9531C33.0609 61.9531 33.5156 61.4984 33.5156 60.9375C33.5156 60.3766 33.0609 59.9219 32.5 59.9219C31.9391 59.9219 31.4844 60.3766 31.4844 60.9375C31.4844 61.4984 31.9391 61.9531 32.5 61.9531Z" fill="#6BC1FF"/>
</svg>
